Involve-Medium.ufo
<glyph name="exclam" format="2">
	<unicode hex="0021"/>
	<advance width="304"/>
	<outline>
		<contour>
			<point x="105.333" y="194" type="line"/>
			<point x="199" y="194" type="line"/>
			<point x="199" y="739" type="line"/>
			<point x="105.333" y="739" type="line"/>
		</contour>
		<contour>
			<point x="105.333" y="0" type="line"/>
			<point x="199" y="0" type="line"/>
			<point x="199" y="126.667" type="line"/>
			<point x="105.333" y="126.667" type="line"/>
		</contour>
	</outline>
</glyph>
<glyph name="quotedbl" format="2">
	<unicode hex="0022"/>
	<advance width="318"/>
	<outline>
		<contour>
			<point x="190.333" y="513" type="line"/>
			<point x="249" y="513" type="line"/>
			<point x="249" y="739" type="line"/>
			<point x="190.333" y="739" type="line"/>
		</contour>
		<contour>
			<point x="70.667" y="513" type="line"/>
			<point x="129.333" y="513" type="line"/>
			<point x="129.333" y="739" type="line"/>
			<point x="70.667" y="739" type="line"/>
		</contour>
	</outline>
</glyph>
<glyph name="numbersign" format="2">
	<unicode hex="0023"/>
	<advance width="556"/>
	<outline>
		<contour>
			<point x="72.333" y="0" type="line"/>
			<point x="146" y="0" type="line"/>
			<point x="186.333" y="235.667" type="line"/>
			<point x="324.667" y="235.667" type="line"/>
			<point x="285.333" y="0" type="line"/>
			<point x="359.333" y="0" type="line"/>
			<point x="398.667" y="235.667" type="line"/>
			<point x="522.667" y="235.667" type="line"/>
			<point x="522.667" y="309.667" type="line"/>
			<point x="411" y="309.667" type="line"/>
			<point x="433.667" y="442.667" type="line"/>
			<point x="541.333" y="442.667" type="line"/>
			<point x="541.333" y="516.333" type="line"/>
			<point x="445.667" y="516.333" type="line"/>
			<point x="482.667" y="739" type="line"/>
			<point x="408" y="739" type="line"/>
			<point x="371.667" y="516.333" type="line"/>
			<point x="234" y="516.333" type="line"/>
			<point x="271" y="739" type="line"/>
			<point x="198.333" y="739" type="line"/>
			<point x="160.667" y="516.333" type="line"/>
			<point x="34" y="516.333" type="line"/>
			<point x="34" y="442.667" type="line"/>
			<point x="148.667" y="442.667" type="line"/>
			<point x="125.333" y="309.667" type="line"/>
			<point x="14.667" y="309.667" type="line"/>
			<point x="14.667" y="235.667" type="line"/>
			<point x="113" y="235.667" type="line"/>
		</contour>
		<contour>
			<point x="198.667" y="309.667" type="line"/>
			<point x="222.333" y="442.667" type="line"/>
			<point x="359.667" y="442.667" type="line"/>
			<point x="336.333" y="309.667" type="line"/>
		</contour>
	</outline>
</glyph>
<glyph name="dollar" format="2">
	<unicode hex="0024"/>
	<advance width="556"/>
	<outline>
		<contour>
			<point x="237.667" y="-66" type="line"/>
			<point x="324" y="-66" type="line"/>
			<point x="324" y="34.667" type="line"/>
			<point x="420.869" y="49.968"/>
			<point x="485" y="129.188"/>
			<point x="485" y="234.333" type="curve" smooth="yes"/>
			<point x="485" y="338.121"/>
			<point x="437.293" y="392.591"/>
			<point x="310" y="435" type="curve" smooth="yes"/>
			<point x="216.364" y="466.233"/>
			<point x="190.667" y="490.389"/>
			<point x="190.667" y="547" type="curve" smooth="yes"/>
			<point x="190.667" y="608.216"/>
			<point x="227.888" y="647.667"/>
			<point x="285.667" y="647.667" type="curve" smooth="yes"/>
			<point x="342.905" y="647.667"/>
			<point x="379.326" y="611.104"/>
			<point x="384.667" y="548.333" type="curve"/>
			<point x="473.333" y="548.333" type="line"/>
			<point x="469.664" y="642.739"/>
			<point x="411.945" y="712.011"/>
			<point x="324" y="726.333" type="curve"/>
			<point x="324" y="825.333" type="line"/>
			<point x="237.667" y="825.333" type="line"/>
			<point x="237.667" y="726.333" type="line"/>
			<point x="150.688" y="708.27"/>
			<point x="97" y="640.353"/>
			<point x="97" y="548.333" type="curve" smooth="yes"/>
			<point x="97" y="453.502"/>
			<point x="145.197" y="395.666"/>
			<point x="253.333" y="362.333" type="curve" smooth="yes"/>
			<point x="353.231" y="331.26"/>
			<point x="391.333" y="293.8"/>
			<point x="391.333" y="226.63" type="curve" smooth="yes"/>
			<point x="391.333" y="160.826"/>
			<point x="344.458" y="114.333"/>
			<point x="278" y="114.333" type="curve" smooth="yes"/>
			<point x="209.256" y="114.333"/>
			<point x="165.662" y="159.416"/>
			<point x="161.333" y="235" type="curve"/>
			<point x="70" y="235" type="line"/>
			<point x="70" y="126.343"/>
			<point x="126.686" y="58.549"/>
			<point x="237.667" y="34.667" type="curve"/>
		</contour>
	</outline>
</glyph>
<glyph name="percent" format="2">
	<unicode hex="0025"/>
	<advance width="803"/>
	<outline>
		<contour>
			<point x="196.333" y="0" type="line"/>
			<point x="278.333" y="0" type="line"/>
			<point x="603" y="739" type="line"/>
			<point x="519.333" y="739" type="line"/>
		</contour>
		<contour>
			<point x="542.333" y="47" type="curve" smooth="yes"/>
			<point x="607" y="13.925"/>
			<point x="686.742" y="39.667"/>
			<point x="720" y="104.333" type="curve" smooth="yes"/>
			<point x="753.333" y="167.696"/>
			<point x="727.638" y="248"/>
			<point x="665" y="281.333" type="curve"/>
			<point x="598.292" y="314"/>
			<point x="519" y="289.959"/>
			<point x="486.333" y="224" type="curve"/>
			<point x="452.239" y="160"/>
			<point x="478.333" y="80.907"/>
		</contour>
		<contour>
			<point x="602.667" y="66.667" type="curve" smooth="yes"/>
			<point x="549.629" y="66.667"/>
			<point x="506.333" y="110.711"/>
			<point x="506.333" y="164.667" type="curve" smooth="yes"/>
			<point x="506.333" y="218.053"/>
			<point x="549.379" y="262"/>
			<point x="601.667" y="262" type="curve" smooth="yes"/>
			<point x="656.404" y="262"/>
			<point x="699.333" y="218.927"/>
			<point x="699.333" y="164" type="curve" smooth="yes"/>
			<point x="699.333" y="110.148"/>
			<point x="656.15" y="66.667"/>
		</contour>
		<contour>
			<point x="133" y="455" type="curve" smooth="yes"/>
			<point x="197.667" y="421.925"/>
			<point x="277.408" y="447.667"/>
			<point x="310.667" y="512.333" type="curve" smooth="yes"/>
			<point x="344" y="576.21"/>
			<point x="318.455" y="656.667"/>
			<point x="255.667" y="690" type="curve"/>
			<point x="189.295" y="722.667"/>
			<point x="109.667" y="698.292"/>
			<point x="77" y="632.667" type="curve"/>
			<point x="42.906" y="568.15"/>
			<point x="68.85" y="488.907"/>
		</contour>
		<contour>
			<point x="193.333" y="474.667" type="curve" smooth="yes"/>
			<point x="139.777" y="474.667"/>
			<point x="96.333" y="518.559"/>
			<point x="96.333" y="572.667" type="curve" smooth="yes"/>
			<point x="96.333" y="626.227"/>
			<point x="139.563" y="670.667"/>
			<point x="191.667" y="670.667" type="curve" smooth="yes"/>
			<point x="247.07" y="670.667"/>
			<point x="290" y="627.595"/>
			<point x="290" y="572" type="curve" smooth="yes"/>
			<point x="290" y="518.485"/>
			<point x="246.483" y="474.667"/>
		</contour>
	</outline>
</glyph>
<glyph name="ampersand" format="2">
	<unicode hex="0026"/>
	<advance width="731"/>
	<outline>
		<contour>
			<point x="49.333" y="216.333" type="curve" smooth="yes"/>
			<point x="49.333" y="85.969"/>
			<point x="151.032" y="-13"/>
			<point x="285" y="-13" type="curve" smooth="yes"/>
			<point x="377.103" y="-13"/>
			<point x="436.931" y="29.176"/>
			<point x="496.333" y="134.667" type="curve"/>
			<point x="645.333" y="-13" type="line"/>
			<point x="711" y="49.667" type="line"/>
			<point x="542.333" y="218" type="line"/>
			<point x="675.667" y="465" type="line"/>
			<point x="571.333" y="465" type="line"/>
			<point x="475.333" y="286.667" type="line"/>
			<point x="359.667" y="403.667" type="line"/>
			<point x="438.134" y="447.222"/>
			<point x="494.333" y="486.304"/>
			<point x="494.333" y="578.667" type="curve" smooth="yes"/>
			<point x="494.333" y="678.084"/>
			<point x="416.579" y="752"/>
			<point x="312" y="752" type="curve" smooth="yes"/>
			<point x="211.662" y="752"/>
			<point x="133.333" y="677.331"/>
			<point x="133.333" y="581.667" type="curve" smooth="yes"/>
			<point x="133.333" y="529.387"/>
			<point x="151.302" y="494.039"/>
			<point x="208.667" y="433" type="curve"/>
			<point x="95.894" y="372.807"/>
			<point x="49.333" y="309.417"/>
		</contour>
		<contour>
			<point x="296" y="469.667" type="curve"/>
			<point x="244.17" y="517.801"/>
			<point x="225" y="548.093"/>
			<point x="225" y="582" type="curve" smooth="yes"/>
			<point x="225" y="629.235"/>
			<point x="263.917" y="665.667"/>
			<point x="314.333" y="665.667" type="curve" smooth="yes"/>
			<point x="366.91" y="665.667"/>
			<point x="405.333" y="630.082"/>
			<point x="405.333" y="581.333" type="curve" smooth="yes"/>
			<point x="405.333" y="534.532"/>
			<point x="372.804" y="501.563"/>
		</contour>
		<contour>
			<point x="142.333" y="208.333" type="curve" smooth="yes"/>
			<point x="142.333" y="274.068"/>
			<point x="177.771" y="315.718"/>
			<point x="272" y="360.667" type="curve"/>
			<point x="429" y="203.333" type="line"/>
			<point x="381.249" y="109.871"/>
			<point x="341.23" y="75.667"/>
			<point x="279" y="75.667" type="curve" smooth="yes"/>
			<point x="201.869" y="75.667"/>
			<point x="142.333" y="133.468"/>
		</contour>
	</outline>
</glyph>
<glyph name="parenleft" format="2">
	<unicode hex="0028"/>
	<advance width="365"/>
	<outline>
		<contour>
			<point x="327" y="-37.333" type="line"/>
			<point x="215.821" y="32.065"/>
			<point x="144.333" y="166.759"/>
			<point x="144.333" y="306" type="curve" smooth="yes"/>
			<point x="144.333" y="444.907"/>
			<point x="213.95" y="575.21"/>
			<point x="327" y="649" type="curve"/>
			<point x="327" y="739" type="line"/>
			<point x="162.733" y="677.406"/>
			<point x="50" y="501.325"/>
			<point x="50" y="306" type="curve" smooth="yes"/>
			<point x="50" y="112.681"/>
			<point x="168.305" y="-73.1"/>
			<point x="327" y="-129" type="curve"/>
		</contour>
	</outline>
</glyph>
<glyph name="parenright" format="2">
	<unicode hex="0029"/>
	<advance width="365"/>
	<outline>
		<contour>
			<point x="38" y="-129" type="line"/>
			<point x="202.074" y="-67.472"/>
			<point x="315" y="108.907"/>
			<point x="315" y="304" type="curve" smooth="yes"/>
			<point x="315" y="498.241"/>
			<point x="197.462" y="682.825"/>
			<point x="38" y="739" type="curve"/>
			<point x="38" y="647.333" type="line"/>
			<point x="149.19" y="577.929"/>
			<point x="220.667" y="443.509"/>
			<point x="220.667" y="304.667" type="curve" smooth="yes"/>
			<point x="220.667" y="165.348"/>
			<point x="150.227" y="33.565"/>
			<point x="38" y="-38.333" type="curve"/>
		</contour>
	</outline>
</glyph>
<glyph name="asterisk" format="2">
	<unicode hex="002A"/>
	<advance width="420"/>
	<outline>
		<contour>
			<point x="108" y="488" type="line"/>
			<point x="161.333" y="459" type="line"/>
			<point x="211" y="549" type="line"/>
			<point x="262" y="459" type="line"/>
			<point x="312.333" y="489.667" type="line"/>
			<point x="258" y="576.333" type="line"/>
			<point x="358.333" y="573.333" type="line"/>
			<point x="358.333" y="632" type="line"/>
			<point x="257.333" y="628" type="line"/>
			<point x="313.333" y="717" type="line"/>
			<point x="262.333" y="747.667" type="line"/>
			<point x="212.333" y="658.667" type="line"/>
			<point x="162.333" y="747.333" type="line"/>
			<point x="108.667" y="718" type="line"/>
			<point x="163.667" y="628" type="line"/>
			<point x="60.667" y="631.667" type="line"/>
			<point x="60.667" y="573.333" type="line"/>
			<point x="163.333" y="577" type="line"/>
		</contour>
	</outline>
</glyph>
<glyph name="plus" format="2">
	<unicode hex="002B"/>
	<advance width="604"/>
	<outline>
		<contour>
			<point x="256.667" y="71.667" type="line"/>
			<point x="348" y="71.667" type="line"/>
			<point x="348" y="282" type="line"/>
			<point x="554" y="282" type="line"/>
			<point x="554" y="370.667" type="line"/>
			<point x="348" y="370.667" type="line"/>
			<point x="348" y="579.667" type="line"/>
			<point x="256.667" y="579.667" type="line"/>
			<point x="256.667" y="370.667" type="line"/>
			<point x="50" y="370.667" type="line"/>
			<point x="50" y="282" type="line"/>
			<point x="256.667" y="282" type="line"/>
		</contour>
	</outline>
</glyph>
<glyph name="comma" format="2">
	<unicode hex="002C"/>
	<advance width="234"/>
	<outline>
		<contour>
			<point x="77.3333" y="0" type="line"/>
			<point x="116.692" y="0" type="line"/>
			<point x="116.692" y="-23.771" type="line" smooth="yes"/>
			<point x="116.692" y="-53.715"/>
			<point x="95.1733" y="-76.301"/>
			<point x="63.3333" y="-78.947" type="curve"/>
			<point x="63.3333" y="-130.667" type="line"/>
			<point x="125.163" y="-130.667"/>
			<point x="171" y="-81.456"/>
			<point x="171" y="-15.673" type="curve" smooth="yes"/>
			<point x="171" y="126.667" type="line"/>
			<point x="77.3333" y="126.667" type="line"/>
		</contour>
	</outline>
</glyph>
<glyph name="zero" format="2">
	<unicode hex="0030"/>
	<advance width="556"/>
	<outline>
		<contour>
			<point x="32" y="261.667" type="line" smooth="yes"/>
			<point x="32" y="84.964"/>
			<point x="122.504" y="-13"/>
			<point x="285.333" y="-13" type="curve" smooth="yes"/>
			<point x="442.793" y="-13"/>
			<point x="527" y="82.561"/>
			<point x="527" y="261.667" type="curve" smooth="yes"/>
			<point x="527" y="487.667" type="line" smooth="yes"/>
			<point x="527" y="654.251"/>
			<point x="435.241" y="752"/>
			<point x="279.333" y="752" type="curve" smooth="yes"/>
			<point x="122.168" y="752"/>
			<point x="32" y="654.931"/>
			<point x="32" y="485.333" type="curve" smooth="yes"/>
		</contour>
		<contour>
			<point x="125" y="271" type="curve" smooth="yes"/>
			<point x="125" y="474" type="line" smooth="yes"/>
			<point x="125" y="601.47"/>
			<point x="177.732" y="666.667"/>
			<point x="280.333" y="666.667" type="curve" smooth="yes"/>
			<point x="382.582" y="666.667"/>
			<point x="434" y="602.305"/>
			<point x="434" y="474" type="curve" smooth="yes"/>
			<point x="434" y="270" type="line" smooth="yes"/>
			<point x="434" y="134.51"/>
			<point x="386.152" y="72.333"/>
			<point x="282" y="72.333" type="curve" smooth="yes"/>
			<point x="177.003" y="72.333"/>
			<point x="125" y="138.084"/>
		</contour>
	</outline>
	<anchor name="Anchor-0" x="278" y="805"/>
</glyph>
<glyph name="one" format="2">
	<unicode hex="0031"/>
	<advance width="556"/>
	<outline>
		<contour>
			<point x="266.667" y="0" type="line"/>
			<point x="359.667" y="0" type="line"/>
			<point x="359.667" y="739" type="line"/>
			<point x="151.667" y="739" type="line"/>
			<point x="151.667" y="652.667" type="line"/>
			<point x="266.667" y="652.667" type="line"/>
		</contour>
	</outline>
	<anchor name="Anchor-0" x="278" y="805"/>
</glyph>
<glyph name="two" format="2">
	<unicode hex="0032"/>
	<advance width="556"/>
	<outline>
		<contour>
			<point x="35.667" y="0" type="line"/>
			<point x="507.667" y="0" type="line"/>
			<point x="507.667" y="86.333" type="line"/>
			<point x="164.667" y="86.333" type="line"/>
			<point x="373" y="283.333" type="line" smooth="yes"/>
			<point x="478.46" y="382.523"/>
			<point x="511.333" y="439.25"/>
			<point x="511.333" y="522" type="curve" smooth="yes"/>
			<point x="511.333" y="654.86"/>
			<point x="411.814" y="752"/>
			<point x="275.667" y="752" type="curve" smooth="yes"/>
			<point x="129.659" y="752"/>
			<point x="38" y="652.754"/>
			<point x="38" y="494.667" type="curve"/>
			<point x="130.333" y="494.667" type="line"/>
			<point x="130.333" y="601.705"/>
			<point x="185.019" y="666.667"/>
			<point x="275.333" y="666.667" type="curve" smooth="yes"/>
			<point x="357.815" y="666.667"/>
			<point x="417.667" y="607.193"/>
			<point x="417.667" y="525.333" type="curve" smooth="yes"/>
			<point x="417.667" y="464.223"/>
			<point x="396.206" y="429.684"/>
			<point x="296" y="333.333" type="curve" smooth="yes"/>
			<point x="35.667" y="83.667" type="line"/>
		</contour>
	</outline>
	<anchor name="Anchor-0" x="278" y="805"/>
</glyph>
<glyph name="three" format="2">
	<unicode hex="0033"/>
	<advance width="556"/>
	<outline>
		<contour>
			<point x="29.333" y="228.667" type="line"/>
			<point x="35.897" y="82.999"/>
			<point x="133.332" y="-13"/>
			<point x="274.333" y="-13" type="curve" smooth="yes"/>
			<point x="408.211" y="-13"/>
			<point x="511" y="91.55"/>
			<point x="511" y="227.667" type="curve" smooth="yes"/>
			<point x="511" y="318.36"/>
			<point x="470" y="384.503"/>
			<point x="389.333" y="424" type="curve"/>
			<point x="438.278" y="458.295"/>
			<point x="460.667" y="501.267"/>
			<point x="460.667" y="561" type="curve" smooth="yes"/>
			<point x="460.667" y="672.53"/>
			<point x="381.471" y="752"/>
			<point x="270.333" y="752" type="curve" smooth="yes"/>
			<point x="159.056" y="752"/>
			<point x="86.149" y="677.411"/>
			<point x="80.333" y="557.667" type="curve"/>
			<point x="174" y="557.667" type="line"/>
			<point x="176.68" y="628.507"/>
			<point x="210.477" y="666.667"/>
			<point x="270.667" y="666.667" type="curve" smooth="yes"/>
			<point x="327.23" y="666.667"/>
			<point x="367" y="625.106"/>
			<point x="367" y="566" type="curve" smooth="yes"/>
			<point x="367" y="506.313"/>
			<point x="326.123" y="464.058"/>
			<point x="266.516" y="464.058" type="curve" smooth="yes"/>
			<point x="221" y="464.058" type="line"/>
			<point x="221" y="377.229" type="line"/>
			<point x="240.312" y="377.229" type="line" smooth="yes"/>
			<point x="352.631" y="377.229"/>
			<point x="417.333" y="321.24"/>
			<point x="417.333" y="224" type="curve" smooth="yes"/>
			<point x="417.333" y="137.522"/>
			<point x="354.861" y="72.333"/>
			<point x="272" y="72.333" type="curve" smooth="yes"/>
			<point x="186.73" y="72.333"/>
			<point x="131.23" y="130.362"/>
			<point x="122.667" y="228.667" type="curve"/>
		</contour>
	</outline>
	<anchor name="Anchor-0" x="278" y="805"/>
</glyph>
<glyph name="four" format="2">
	<unicode hex="0034"/>
	<advance width="556"/>
	<outline>
		<contour>
			<point x="11.333" y="127" type="line"/>
			<point x="367" y="127" type="line"/>
			<point x="367" y="0" type="line"/>
			<point x="460" y="0" type="line"/>
			<point x="460" y="127" type="line"/>
			<point x="531.333" y="127" type="line"/>
			<point x="531.333" y="211.333" type="line"/>
			<point x="460" y="211.333" type="line"/>
			<point x="460" y="739" type="line"/>
			<point x="364.667" y="739" type="line"/>
			<point x="11.333" y="207.667" type="line"/>
		</contour>
		<contour>
			<point x="113" y="211.333" type="line"/>
			<point x="367" y="596.333" type="line"/>
			<point x="367" y="211.333" type="line"/>
		</contour>
	</outline>
	<anchor name="Anchor-0" x="278" y="805"/>
</glyph>
<glyph name="five" format="2">
	<unicode hex="0035"/>
	<advance width="556"/>
	<outline>
		<contour>
			<point x="24.333" y="228.333" type="line"/>
			<point x="41.214" y="82.277"/>
			<point x="142.074" y="-13"/>
			<point x="279.333" y="-13" type="curve" smooth="yes"/>
			<point x="420.24" y="-13"/>
			<point x="528.333" y="99.584"/>
			<point x="528.333" y="246.333" type="curve" smooth="yes"/>
			<point x="528.333" y="391.317"/>
			<point x="424.017" y="501.667"/>
			<point x="287" y="501.667" type="curve" smooth="yes"/>
			<point x="245.698" y="501.667"/>
			<point x="212.701" y="492.991"/>
			<point x="170.667" y="471.333" type="curve"/>
			<point x="202.667" y="652.667" type="line"/>
			<point x="463.333" y="652.667" type="line"/>
			<point x="463.333" y="739" type="line"/>
			<point x="130" y="739" type="line"/>
			<point x="63" y="367.667" type="line"/>
			<point x="140.333" y="342.333" type="line"/>
			<point x="181.221" y="393.194"/>
			<point x="223.855" y="416.333"/>
			<point x="276.667" y="416.333" type="curve" smooth="yes"/>
			<point x="366.734" y="416.333"/>
			<point x="434.667" y="342.956"/>
			<point x="434.667" y="245.667" type="curve" smooth="yes"/>
			<point x="434.667" y="146.798"/>
			<point x="366.482" y="72.333"/>
			<point x="276" y="72.333" type="curve" smooth="yes"/>
			<point x="192.278" y="72.333"/>
			<point x="130.05" y="133.351"/>
			<point x="116.667" y="228.333" type="curve"/>
		</contour>
	</outline>
	<anchor name="Anchor-0" x="278" y="805"/>
</glyph>
<glyph name="six" format="2">
	<unicode hex="0036"/>
	<advance width="556"/>
	<outline>
		<contour>
			<point x="294" y="739" type="line"/>
			<point x="107.667" y="461" type="line" smooth="yes"/>
			<point x="42.468" y="363.802"/>
			<point x="24.667" y="316.756"/>
			<point x="24.667" y="243.333" type="curve" smooth="yes"/>
			<point x="24.667" y="96.335"/>
			<point x="133.997" y="-13"/>
			<point x="281" y="-13" type="curve" smooth="yes"/>
			<point x="426.483" y="-13"/>
			<point x="531.333" y="97.157"/>
			<point x="531.333" y="250" type="curve" smooth="yes"/>
			<point x="531.333" y="389.915"/>
			<point x="433.406" y="497.333"/>
			<point x="306" y="497.333" type="curve" smooth="yes"/>
			<point x="276.659" y="497.333"/>
			<point x="257.665" y="493.03"/>
			<point x="228.667" y="480" type="curve"/>
			<point x="403.667" y="739" type="line"/>
		</contour>
		<contour>
			<point x="280.667" y="72.333" type="curve" smooth="yes"/>
			<point x="187.084" y="72.333"/>
			<point x="118.333" y="144.916"/>
			<point x="118.333" y="243.667" type="curve" smooth="yes"/>
			<point x="118.333" y="340.851"/>
			<point x="186.193" y="414"/>
			<point x="276.333" y="414" type="curve" smooth="yes"/>
			<point x="371.81" y="414"/>
			<point x="437.667" y="344.198"/>
			<point x="437.667" y="243" type="curve" smooth="yes"/>
			<point x="437.667" y="143.162"/>
			<point x="372.508" y="72.333"/>
		</contour>
	</outline>
	<anchor name="Anchor-0" x="278" y="805"/>
</glyph>
<glyph name="seven" format="2">
	<unicode hex="0037"/>
	<advance width="556"/>
	<outline>
		<contour>
			<point x="100" y="0" type="line"/>
			<point x="202" y="0" type="line"/>
			<point x="493.333" y="652.667" type="line"/>
			<point x="493.333" y="739" type="line"/>
			<point x="64.333" y="739" type="line"/>
			<point x="64.333" y="652.667" type="line"/>
			<point x="396" y="652.667" type="line"/>
		</contour>
	</outline>
	<anchor name="Anchor-0" x="278" y="805"/>
</glyph>
<glyph name="eight" format="2">
	<unicode hex="0038"/>
	<advance width="556"/>
	<outline>
		<contour>
			<point x="39.333" y="220.333" type="curve" smooth="yes"/>
			<point x="39.333" y="87.521"/>
			<point x="143.15" y="-13"/>
			<point x="280.333" y="-13" type="curve" smooth="yes"/>
			<point x="417.195" y="-13"/>
			<point x="516.667" y="86.194"/>
			<point x="516.667" y="222.667" type="curve" smooth="yes"/>
			<point x="516.667" y="310.899"/>
			<point x="477.245" y="373.24"/>
			<point x="397.333" y="412.333" type="curve"/>
			<point x="451.567" y="442.246"/>
			<point x="476.667" y="488.181"/>
			<point x="476.667" y="557.667" type="curve" smooth="yes"/>
			<point x="476.667" y="670.625"/>
			<point x="394.044" y="752"/>
			<point x="279.333" y="752" type="curve" smooth="yes"/>
			<point x="166.859" y="752"/>
			<point x="80.333" y="667.196"/>
			<point x="80.333" y="557" type="curve" smooth="yes"/>
			<point x="80.333" y="493.56"/>
			<point x="103.257" y="451.399"/>
			<point x="158" y="412.333" type="curve"/>
			<point x="80.078" y="372.958"/>
			<point x="39.333" y="307.127"/>
		</contour>
		<contour>
			<point x="280.667" y="452.333" type="curve" smooth="yes"/>
			<point x="218.968" y="452.333"/>
			<point x="172" y="499.033"/>
			<point x="172" y="560.333" type="curve" smooth="yes"/>
			<point x="172" y="621.532"/>
			<point x="216.529" y="666.667"/>
			<point x="277" y="666.667" type="curve" smooth="yes"/>
			<point x="340.849" y="666.667"/>
			<point x="385" y="623.154"/>
			<point x="385" y="560.333" type="curve" smooth="yes"/>
			<point x="385" y="498.966"/>
			<point x="339.965" y="452.333"/>
		</contour>
		<contour>
			<point x="133" y="217" type="curve" smooth="yes"/>
			<point x="133" y="301.621"/>
			<point x="193.621" y="363.667"/>
			<point x="276.333" y="363.667" type="curve" smooth="yes"/>
			<point x="362.194" y="363.667"/>
			<point x="423" y="303.8"/>
			<point x="423" y="219.333" type="curve" smooth="yes"/>
			<point x="423" y="133.848"/>
			<point x="363.174" y="72.333"/>
			<point x="280" y="72.333" type="curve" smooth="yes"/>
			<point x="195.322" y="72.333"/>
			<point x="133" y="133.683"/>
		</contour>
	</outline>
	<anchor name="Anchor-0" x="278" y="805"/>
</glyph>
<glyph name="nine" format="2">
	<unicode hex="0039"/>
	<advance width="556"/>
	<outline>
		<contour>
			<point x="152" y="0" type="line"/>
			<point x="261.667" y="0" type="line"/>
			<point x="448" y="278" type="line" smooth="yes"/>
			<point x="513.113" y="375.07"/>
			<point x="531" y="422.268"/>
			<point x="531" y="495.333" type="curve" smooth="yes"/>
			<point x="531" y="642.427"/>
			<point x="421.572" y="752"/>
			<point x="274.667" y="752" type="curve" smooth="yes"/>
			<point x="129.545" y="752"/>
			<point x="25" y="641.873"/>
			<point x="25" y="489" type="curve" smooth="yes"/>
			<point x="25" y="349.501"/>
			<point x="123.477" y="241"/>
			<point x="250" y="241" type="curve" smooth="yes"/>
			<point x="278.508" y="241"/>
			<point x="297.468" y="245.44"/>
			<point x="327.333" y="259" type="curve"/>
		</contour>
		<contour>
			<point x="277.667" y="325" type="curve" smooth="yes"/>
			<point x="184.815" y="325"/>
			<point x="118.667" y="395.865"/>
			<point x="118.667" y="495.333" type="curve" smooth="yes"/>
			<point x="118.667" y="594.695"/>
			<point x="183.359" y="666.667"/>
			<point x="272.667" y="666.667" type="curve" smooth="yes"/>
			<point x="368.568" y="666.667"/>
			<point x="437.333" y="595.102"/>
			<point x="437.333" y="495.333" type="curve" smooth="yes"/>
			<point x="437.333" y="397.446"/>
			<point x="369.417" y="325"/>
		</contour>
	</outline>
	<anchor name="Anchor-0" x="278" y="805"/>
</glyph>
<glyph name="colon" format="2">
	<unicode hex="003A"/>
	<advance width="278"/>
	<outline>
		<contour>
			<point x="92" y="0" type="line"/>
			<point x="185.667" y="0" type="line"/>
			<point x="185.667" y="126.667" type="line"/>
			<point x="92" y="126.667" type="line"/>
		</contour>
		<contour>
			<point x="92" y="377" type="line"/>
			<point x="185.667" y="377" type="line"/>
			<point x="185.667" y="505.333" type="line"/>
			<point x="92" y="505.333" type="line"/>
		</contour>
	</outline>
</glyph>
<glyph name="semicolon" format="2">
	<unicode hex="003B"/>
	<advance width="278"/>
	<outline>
		<contour>
			<point x="108" y="0" type="line"/>
			<point x="147.526" y="0" type="line"/>
			<point x="147.526" y="-22.771" type="line" smooth="yes"/>
			<point x="147.526" y="-53.679"/>
			<point x="126.225" y="-76.291"/>
			<point x="94" y="-78.947" type="curve"/>
			<point x="94" y="-130.667" type="line"/>
			<point x="155.577" y="-130.667"/>
			<point x="201.667" y="-81.203"/>
			<point x="201.667" y="-15.673" type="curve" smooth="yes"/>
			<point x="201.667" y="126.667" type="line"/>
			<point x="108" y="126.667" type="line"/>
		</contour>
		<contour>
			<point x="108" y="377" type="line"/>
			<point x="201.667" y="377" type="line"/>
			<point x="201.667" y="505.333" type="line"/>
			<point x="108" y="505.333" type="line"/>
		</contour>
	</outline>
</glyph>
<glyph name="less" format="2">
	<unicode hex="003C"/>
	<advance width="604"/>
	<outline>
		<contour>
			<point x="47.333" y="264.667" type="line"/>
			<point x="556.333" y="35.667" type="line"/>
			<point x="556.333" y="126.333" type="line"/>
			<point x="175.333" y="302.667" type="line"/>
			<point x="556.333" y="479.667" type="line"/>
			<point x="556.333" y="570.667" type="line"/>
			<point x="47.333" y="340.667" type="line"/>
		</contour>
	</outline>
</glyph>
<glyph name="equal" format="2">
	<unicode hex="003D"/>
	<advance width="604"/>
	<outline>
		<contour>
			<point x="50" y="376.333" type="line"/>
			<point x="554" y="376.333" type="line"/>
			<point x="554" y="465" type="line"/>
			<point x="50" y="465" type="line"/>
		</contour>
		<contour>
			<point x="50" y="179.333" type="line"/>
			<point x="554" y="179.333" type="line"/>
			<point x="554" y="268" type="line"/>
			<point x="50" y="268" type="line"/>
		</contour>
	</outline>
</glyph>
<glyph name="greater" format="2">
	<unicode hex="003E"/>
	<advance width="604"/>
	<outline>
		<contour>
			<point x="47.667" y="35.667" type="line"/>
			<point x="556.667" y="265.333" type="line"/>
			<point x="556.667" y="341.333" type="line"/>
			<point x="47.667" y="570.667" type="line"/>
			<point x="47.667" y="479.667" type="line"/>
			<point x="429.667" y="303.333" type="line"/>
			<point x="47.667" y="126.333" type="line"/>
		</contour>
	</outline>
</glyph>
<glyph name="question" format="2">
	<unicode hex="003F"/>
	<advance width="567"/>
	<outline>
		<contour>
			<point x="327.667" y="191" type="line"/>
			<point x="328.308" y="259.707"/>
			<point x="348.259" y="295.658"/>
			<point x="417.333" y="358" type="curve" smooth="yes"/>
			<point x="487.278" y="420.954"/>
			<point x="511.333" y="465.297"/>
			<point x="511.333" y="531" type="curve" smooth="yes"/>
			<point x="511.333" y="658.643"/>
			<point x="416.027" y="752"/>
			<point x="285.667" y="752" type="curve" smooth="yes"/>
			<point x="147.977" y="752"/>
			<point x="60.2" y="661.208"/>
			<point x="53.667" y="512" type="curve"/>
			<point x="144.667" y="512" type="line"/>
			<point x="154.391" y="613.623"/>
			<point x="200.38" y="663.333"/>
			<point x="284.667" y="663.333" type="curve" smooth="yes"/>
			<point x="361.802" y="663.333"/>
			<point x="417.667" y="608.868"/>
			<point x="417.667" y="533.667" type="curve" smooth="yes"/>
			<point x="417.667" y="489.756"/>
			<point x="400.579" y="460.096"/>
			<point x="346.667" y="412" type="curve" smooth="yes"/>
			<point x="263.075" y="339.002"/>
			<point x="237.333" y="287.516"/>
			<point x="236.667" y="191" type="curve"/>
		</contour>
		<contour>
			<point x="235.333" y="0" type="line"/>
			<point x="329" y="0" type="line"/>
			<point x="329" y="126.667" type="line"/>
			<point x="235.333" y="126.667" type="line"/>
		</contour>
	</outline>
</glyph>
<glyph name="at" format="2">
	<unicode hex="0040"/>
	<advance width="839"/>
	<outline>
		<contour>
			<point x="647" y="127.667" type="line"/>
			<point x="589.823" y="72.457"/>
			<point x="521.406" y="44.667"/>
			<point x="441.333" y="44.667" type="curve" smooth="yes"/>
			<point x="255.217" y="44.667"/>
			<point x="112.333" y="186.181"/>
			<point x="112.333" y="370.333" type="curve" smooth="yes"/>
			<point x="112.333" y="553.522"/>
			<point x="255.853" y="698.667"/>
			<point x="437" y="698.667" type="curve" smooth="yes"/>
			<point x="604.912" y="698.667"/>
			<point x="727.667" y="584.085"/>
			<point x="727.667" y="427" type="curve" smooth="yes"/>
			<point x="727.667" y="321.93"/>
			<point x="653.309" y="214.33"/>
			<point x="581.291" y="214.33" type="curve" smooth="yes"/>
			<point x="561.326" y="214.33"/>
			<point x="548.689" y="225.168"/>
			<point x="548.689" y="242.33" type="curve" smooth="yes"/>
			<point x="548.689" y="257.648"/>
			<point x="551.194" y="271.673"/>
			<point x="562.868" y="308.667" type="curve"/>
			<point x="636.333" y="573.667" type="line"/>
			<point x="560.667" y="573.667" type="line"/>
			<point x="547" y="522.333" type="line"/>
			<point x="522.023" y="568.479"/>
			<point x="488.182" y="587.667"/>
			<point x="431" y="587.667" type="curve" smooth="yes"/>
			<point x="309.774" y="587.667"/>
			<point x="201" y="455.789"/>
			<point x="201" y="309.333" type="curve" smooth="yes"/>
			<point x="201" y="212.66"/>
			<point x="260.337" y="147.333"/>
			<point x="348" y="147.333" type="curve" smooth="yes"/>
			<point x="397.848" y="147.333"/>
			<point x="437.774" y="165.134"/>
			<point x="470.47" y="201.768" type="curve"/>
			<point x="485.636" y="162.017"/>
			<point x="518.641" y="141.883"/>
			<point x="567.235" y="141.883" type="curve" smooth="yes"/>
			<point x="695.644" y="141.883"/>
			<point x="802" y="270.182"/>
			<point x="802" y="422.32" type="curve" smooth="yes"/>
			<point x="802" y="625.42"/>
			<point x="649.177" y="770.844"/>
			<point x="436.632" y="770.844" type="curve" smooth="yes"/>
			<point x="212.278" y="770.844"/>
			<point x="37.333" y="595.328"/>
			<point x="37.333" y="370.328" type="curve" smooth="yes"/>
			<point x="37.333" y="144.591"/>
			<point x="211.209" y="-26.844"/>
			<point x="440.388" y="-26.844" type="curve" smooth="yes"/>
			<point x="543.75" y="-26.844"/>
			<point x="638.375" y="10.627"/>
			<point x="698.191" y="74.571" type="curve"/>
		</contour>
		<contour>
			<point x="368.667" y="221.333" type="curve" smooth="yes"/>
			<point x="320.381" y="221.333"/>
			<point x="289" y="257.946"/>
			<point x="289" y="314.333" type="curve" smooth="yes"/>
			<point x="289" y="415.009"/>
			<point x="362.336" y="514.333"/>
			<point x="437.333" y="514.333" type="curve" smooth="yes"/>
			<point x="485.013" y="514.333"/>
			<point x="514.333" y="483.318"/>
			<point x="514.333" y="432.667" type="curve" smooth="yes"/>
			<point x="514.333" y="332.836"/>
			<point x="438.427" y="221.333"/>
		</contour>
	</outline>
</glyph>
<glyph name="A" format="2">
	<unicode hex="0041"/>
	<advance width="740"/>
	<outline>
		<contour>
			<point x="9.667" y="0" type="line"/>
			<point x="112" y="0" type="line"/>
			<point x="211.333" y="229.667" type="line"/>
			<point x="528.333" y="229.667" type="line"/>
			<point x="626" y="0" type="line"/>
			<point x="730.333" y="0" type="line"/>
			<point x="415" y="739" type="line"/>
			<point x="323.667" y="739" type="line"/>
		</contour>
		<contour>
			<point x="246.667" y="318" type="line"/>
			<point x="369.667" y="618.667" type="line"/>
			<point x="490.667" y="318" type="line"/>
		</contour>
	</outline>
	<anchor name="Anchor-0" x="370" y="805"/>
</glyph>
<glyph name="B" format="2">
	<unicode hex="0042"/>
	<advance width="578"/>
	<outline>
		<contour>
			<point x="74.333" y="0" type="line"/>
			<point x="262" y="0" type="line" smooth="yes"/>
			<point x="453.124" y="0"/>
			<point x="546.333" y="70.487"/>
			<point x="546.333" y="214.667" type="curve" smooth="yes"/>
			<point x="546.333" y="306.178"/>
			<point x="509.032" y="360.739"/>
			<point x="421.667" y="397" type="curve"/>
			<point x="479.128" y="428.546"/>
			<point x="503.667" y="473.047"/>
			<point x="503.667" y="545.333" type="curve" smooth="yes"/>
			<point x="503.667" y="676.677"/>
			<point x="418.965" y="739"/>
			<point x="240.333" y="739" type="curve" smooth="yes"/>
			<point x="74.333" y="739" type="line"/>
		</contour>
		<contour>
			<point x="169.333" y="88.333" type="line"/>
			<point x="169.333" y="342.667" type="line"/>
			<point x="298.069" y="342.667" type="line" smooth="yes"/>
			<point x="393.265" y="342.667"/>
			<point x="450.333" y="294.058"/>
			<point x="450.333" y="213.333" type="curve" smooth="yes"/>
			<point x="450.333" y="125.804"/>
			<point x="393.079" y="88.333"/>
			<point x="259.333" y="88.333" type="curve" smooth="yes"/>
		</contour>
		<contour>
			<point x="169.333" y="432" type="line"/>
			<point x="169.333" y="649.667" type="line"/>
			<point x="247.333" y="649.667" type="line" smooth="yes"/>
			<point x="362.685" y="649.667"/>
			<point x="408" y="618.867"/>
			<point x="408" y="540.667" type="curve" smooth="yes"/>
			<point x="408" y="467.572"/>
			<point x="370.305" y="432"/>
			<point x="292.402" y="432" type="curve" smooth="yes"/>
		</contour>
	</outline>
	<anchor name="Anchor-0" x="270.333" y="805"/>
</glyph>
<glyph name="C" format="2">
	<unicode hex="0043"/>
	<advance width="809"/>
	<outline>
		<contour>
			<point x="660.333" y="198" type="line"/>
			<point x="591.186" y="113.016"/>
			<point x="521.307" y="76.333"/>
			<point x="428" y="76.333" type="curve" smooth="yes"/>
			<point x="267.751" y="76.333"/>
			<point x="137.333" y="208.247"/>
			<point x="137.333" y="370.333" type="curve" smooth="yes"/>
			<point x="137.333" y="536.625"/>
			<point x="261.939" y="662.667"/>
			<point x="426.333" y="662.667" type="curve" smooth="yes"/>
			<point x="529.677" y="662.667"/>
			<point x="605.115" y="623.139"/>
			<point x="660.333" y="540.333" type="curve"/>
			<point x="766.667" y="540.333" type="line"/>
			<point x="707.371" y="672.155"/>
			<point x="577.794" y="752"/>
			<point x="423.333" y="752" type="curve" smooth="yes"/>
			<point x="207.049" y="752"/>
			<point x="41.333" y="585.716"/>
			<point x="41.333" y="368.667" type="curve" smooth="yes"/>
			<point x="41.333" y="153.222"/>
			<point x="210.447" y="-13"/>
			<point x="429.667" y="-13" type="curve" smooth="yes"/>
			<point x="580.268" y="-13"/>
			<point x="699.964" y="61.606"/>
			<point x="768.667" y="198" type="curve"/>
		</contour>
	</outline>
	<anchor name="Anchor-0" x="424.667" y="805"/>
</glyph>
<glyph name="D" format="2">
	<unicode hex="0044"/>
	<advance width="729"/>
	<outline>
		<contour>
			<point x="74.333" y="0" type="line"/>
			<point x="264.333" y="0" type="line" smooth="yes"/>
			<point x="372.197" y="0"/>
			<point x="444.603" y="14.012"/>
			<point x="506.667" y="46.667" type="curve" smooth="yes"/>
			<point x="622.943" y="107.619"/>
			<point x="687.667" y="222.277"/>
			<point x="687.667" y="367.333" type="curve" smooth="yes"/>
			<point x="687.667" y="503.247"/>
			<point x="632.556" y="611.782"/>
			<point x="530" y="677.667" type="curve" smooth="yes"/>
			<point x="462.345" y="721.112"/>
			<point x="379.674" y="739"/>
			<point x="246.667" y="739" type="curve" smooth="yes"/>
			<point x="74.333" y="739" type="line"/>
		</contour>
		<contour>
			<point x="169.333" y="88.333" type="line"/>
			<point x="169.333" y="650.667" type="line"/>
			<point x="247" y="650.667" type="line" smooth="yes"/>
			<point x="347.335" y="650.667"/>
			<point x="408.202" y="639.566"/>
			<point x="458.333" y="612.333" type="curve" smooth="yes"/>
			<point x="542.195" y="566.901"/>
			<point x="591.667" y="476.746"/>
			<point x="591.667" y="369.333" type="curve" smooth="yes"/>
			<point x="591.667" y="276.535"/>
			<point x="553.95" y="194.737"/>
			<point x="489.333" y="146.667" type="curve" smooth="yes"/>
			<point x="435.463" y="105.242"/>
			<point x="364.96" y="88.333"/>
			<point x="248" y="88.333" type="curve" smooth="yes"/>
		</contour>
	</outline>
	<anchor name="Anchor-0" x="333.667" y="805"/>
</glyph>
<glyph name="G" format="2">
	<unicode hex="0047"/>
	<advance width="867"/>
	<outline>
		<contour>
			<point x="333" y="265.667" type="line"/>
			<point x="710.333" y="265.667" type="line"/>
			<point x="676.959" y="154.69"/>
			<point x="565.164" y="76.333"/>
			<point x="438.667" y="76.333" type="curve" smooth="yes"/>
			<point x="269.397" y="76.333"/>
			<point x="137.333" y="204.595"/>
			<point x="137.333" y="369" type="curve" smooth="yes"/>
			<point x="137.333" y="535.981"/>
			<point x="265.91" y="662.667"/>
			<point x="435.333" y="662.667" type="curve" smooth="yes"/>
			<point x="540.236" y="662.667"/>
			<point x="627.78" y="616.485"/>
			<point x="677" y="535.333" type="curve"/>
			<point x="786" y="535.333" type="line"/>
			<point x="737.398" y="663.818"/>
			<point x="593.554" y="752"/>
			<point x="432.333" y="752" type="curve" smooth="yes"/>
			<point x="213.195" y="752"/>
			<point x="41.333" y="584.532"/>
			<point x="41.333" y="371" type="curve" smooth="yes"/>
			<point x="41.333" y="154.082"/>
			<point x="216.247" y="-13"/>
			<point x="443.333" y="-13" type="curve" smooth="yes"/>
			<point x="655.352" y="-13"/>
			<point x="820.903" y="144.139"/>
			<point x="828.667" y="353" type="curve"/>
			<point x="333" y="353" type="line"/>
		</contour>
	</outline>
	<anchor name="Anchor-0" x="434.667" y="805"/>
</glyph>
<glyph name="J" format="2">
	<unicode hex="004A"/>
	<advance width="486"/>
	<outline>
		<contour>
			<point x="13.333" y="175" type="line"/>
			<point x="20.74" y="57.446"/>
			<point x="96.262" y="-13.667"/>
			<point x="213.667" y="-13.667" type="curve" smooth="yes"/>
			<point x="340.209" y="-13.667"/>
			<point x="411.667" y="72.187"/>
			<point x="411.667" y="224.667" type="curve" smooth="yes"/>
			<point x="411.667" y="739" type="line"/>
			<point x="316.667" y="739" type="line"/>
			<point x="316.667" y="226" type="line" smooth="yes"/>
			<point x="316.667" y="126.7"/>
			<point x="281.586" y="75.667"/>
			<point x="213.333" y="75.667" type="curve" smooth="yes"/>
			<point x="153.309" y="75.667"/>
			<point x="114" y="112.691"/>
			<point x="107.667" y="175" type="curve"/>
		</contour>
	</outline>
	<anchor name="Anchor-0" x="364" y="805"/>
</glyph>
<glyph name="K" format="2">
	<unicode hex="004B"/>
	<advance width="599"/>
	<outline>
		<contour>
			<point x="74.333" y="0" type="line"/>
			<point x="169.333" y="0" type="line"/>
			<point x="169.333" y="213.447" type="line"/>
			<point x="244.273" y="306.289" type="line"/>
			<point x="473.667" y="0" type="line"/>
			<point x="590.667" y="0" type="line"/>
			<point x="303.333" y="378" type="line"/>
			<point x="590.667" y="739" type="line"/>
			<point x="473.667" y="739" type="line"/>
			<point x="169.333" y="349.333" type="line"/>
			<point x="169.333" y="739" type="line"/>
			<point x="74.333" y="739" type="line"/>
		</contour>
	</outline>
	<anchor name="Anchor-0" x="315.667" y="805"/>
</glyph>
<glyph name="L" format="2">
	<unicode hex="004C"/>
	<advance width="459"/>
	<outline>
		<contour>
			<point x="74.333" y="0" type="line"/>
			<point x="448.667" y="0" type="line"/>
			<point x="448.667" y="88.333" type="line"/>
			<point x="169.333" y="88.333" type="line"/>
			<point x="169.333" y="739" type="line"/>
			<point x="74.333" y="739" type="line"/>
		</contour>
	</outline>
	<anchor name="Anchor-0" x="121.667" y="805"/>
</glyph>
<glyph name="M" format="2">
	<unicode hex="004D"/>
	<advance width="917"/>
	<outline>
		<contour>
			<point x="74.333" y="0" type="line"/>
			<point x="169.333" y="0" type="line"/>
			<point x="169.333" y="623.333" type="line"/>
			<point x="418.333" y="0" type="line"/>
			<point x="498.333" y="0" type="line"/>
			<point x="748" y="623.333" type="line"/>
			<point x="748" y="0" type="line"/>
			<point x="843" y="0" type="line"/>
			<point x="843" y="739" type="line"/>
			<point x="703.667" y="739" type="line"/>
			<point x="459.333" y="133" type="line"/>
			<point x="213.667" y="739" type="line"/>
			<point x="74.333" y="739" type="line"/>
		</contour>
	</outline>
	<anchor name="Anchor-0" x="459" y="805"/>
</glyph>
<glyph name="N" format="2">
	<unicode hex="004E"/>
	<advance width="740"/>
	<outline>
		<contour>
			<point x="74.333" y="0" type="line"/>
			<point x="169.333" y="0" type="line"/>
			<point x="169.333" y="612.333" type="line"/>
			<point x="565.667" y="0" type="line"/>
			<point x="666" y="0" type="line"/>
			<point x="666" y="739" type="line"/>
			<point x="571" y="739" type="line"/>
			<point x="571" y="151" type="line"/>
			<point x="193" y="739" type="line"/>
			<point x="74.333" y="739" type="line"/>
		</contour>
	</outline>
	<anchor name="Anchor-0" x="370" y="805"/>
</glyph>
<glyph name="O" format="2">
	<unicode hex="004F"/>
	<advance width="860"/>
	<outline>
		<contour>
			<point x="41.333" y="369" type="curve" smooth="yes"/>
			<point x="41.333" y="158.459"/>
			<point x="216.538" y="-13"/>
			<point x="431.667" y="-13" type="curve" smooth="yes"/>
			<point x="646.111" y="-13"/>
			<point x="818.667" y="157.442"/>
			<point x="818.667" y="369.333" type="curve" smooth="yes"/>
			<point x="818.667" y="578.748"/>
			<point x="645.254" y="752"/>
			<point x="435.667" y="752" type="curve" smooth="yes"/>
			<point x="215.338" y="752"/>
			<point x="41.333" y="583.006"/>
		</contour>
		<contour>
			<point x="137.333" y="369.333" type="curve" smooth="yes"/>
			<point x="137.333" y="529.095"/>
			<point x="269.096" y="662.667"/>
			<point x="426.667" y="662.667" type="curve" smooth="yes"/>
			<point x="592.529" y="662.667"/>
			<point x="722.667" y="533.137"/>
			<point x="722.667" y="368" type="curve" smooth="yes"/>
			<point x="722.667" y="206.386"/>
			<point x="592.719" y="76.333"/>
			<point x="431.333" y="76.333" type="curve" smooth="yes"/>
			<point x="269.228" y="76.333"/>
			<point x="137.333" y="207.772"/>
		</contour>
	</outline>
	<anchor name="Anchor-0" x="429.667" y="805"/>
</glyph>
<glyph name="P" format="2">
	<unicode hex="0050"/>
	<advance width="586"/>
	<outline>
		<contour>
			<point x="74.333" y="0" type="line"/>
			<point x="169.333" y="0" type="line"/>
			<point x="169.333" y="293" type="line"/>
			<point x="278.667" y="293" type="line" smooth="yes"/>
			<point x="377.963" y="293"/>
			<point x="430.199" y="303.945"/>
			<point x="474" y="333.667" type="curve" smooth="yes"/>
			<point x="527.03" y="368.785"/>
			<point x="557.667" y="434.531"/>
			<point x="557.667" y="513.667" type="curve" smooth="yes"/>
			<point x="557.667" y="597.411"/>
			<point x="525.195" y="664.761"/>
			<point x="467.667" y="700.333" type="curve" smooth="yes"/>
			<point x="422.307" y="728.352"/>
			<point x="368.259" y="739"/>
			<point x="271.333" y="739" type="curve" smooth="yes"/>
			<point x="74.333" y="739" type="line"/>
		</contour>
		<contour>
			<point x="169.333" y="381.333" type="line"/>
			<point x="169.333" y="650.667" type="line"/>
			<point x="254.667" y="650.667" type="line" smooth="yes"/>
			<point x="315.947" y="650.667"/>
			<point x="354.751" y="646.763"/>
			<point x="385" y="637.667" type="curve" smooth="yes"/>
			<point x="433.552" y="622.703"/>
			<point x="461.667" y="577.153"/>
			<point x="461.667" y="513.333" type="curve" smooth="yes"/>
			<point x="461.667" y="460.321"/>
			<point x="438.761" y="418.881"/>
			<point x="400" y="401.333" type="curve"/>
			<point x="372.788" y="387.374"/>
			<point x="334.38" y="381.333"/>
			<point x="274" y="381.333" type="curve" smooth="yes"/>
		</contour>
	</outline>
	<anchor name="Anchor-0" x="289" y="805"/>
</glyph>
<glyph name="Q" format="2">
	<unicode hex="0051"/>
	<advance width="869"/>
	<outline>
		<contour>
			<point x="41.333" y="369.333" type="curve" smooth="yes"/>
			<point x="41.333" y="156.162"/>
			<point x="218.164" y="-13"/>
			<point x="441" y="-13" type="curve" smooth="yes"/>
			<point x="520.499" y="-13"/>
			<point x="597.462" y="9.085"/>
			<point x="657" y="49" type="curve"/>
			<point x="709.697" y="5.508"/>
			<point x="751.455" y="-11.135"/>
			<point x="807.92" y="-11.135" type="curve" smooth="yes"/>
			<point x="814.092" y="-11.135"/>
			<point x="821.442" y="-10.869"/>
			<point x="829.333" y="-10.003" type="curve"/>
			<point x="829.333" y="74" type="line"/>
			<point x="822.975" y="72.85"/>
			<point x="816.969" y="72.333"/>
			<point x="810" y="72.333" type="curve" smooth="yes"/>
			<point x="781.46" y="72.333"/>
			<point x="756.518" y="81.589"/>
			<point x="721.333" y="105" type="curve"/>
			<point x="795.074" y="171.705"/>
			<point x="833" y="261.266"/>
			<point x="833" y="369.333" type="curve" smooth="yes"/>
			<point x="833" y="589.077"/>
			<point x="665.255" y="752"/>
			<point x="439" y="752" type="curve" smooth="yes"/>
			<point x="212.728" y="752"/>
			<point x="41.333" y="587.058"/>
		</contour>
		<contour>
			<point x="179.667" y="219.667" type="curve"/>
			<point x="216.925" y="232.305"/>
			<point x="240.998" y="236.333"/>
			<point x="280.667" y="236.333" type="curve" smooth="yes"/>
			<point x="392.474" y="236.333"/>
			<point x="479.064" y="200.362"/>
			<point x="578.333" y="112.667" type="curve"/>
			<point x="535.395" y="87.014"/>
			<point x="495.411" y="76.333"/>
			<point x="440.667" y="76.333" type="curve" smooth="yes"/>
			<point x="331.357" y="76.333"/>
			<point x="233.195" y="130.588"/>
		</contour>
		<contour>
			<point x="145" y="297.333" type="curve"/>
			<point x="138.724" y="328.335"/>
			<point x="137" y="342.97"/>
			<point x="137" y="364.667" type="curve" smooth="yes"/>
			<point x="137" y="534.003"/>
			<point x="266.67" y="662.667"/>
			<point x="437.333" y="662.667" type="curve" smooth="yes"/>
			<point x="607.434" y="662.667"/>
			<point x="737" y="535.566"/>
			<point x="737" y="368.667" type="curve" smooth="yes"/>
			<point x="737" y="288.163"/>
			<point x="708.166" y="220.178"/>
			<point x="649.667" y="162.667" type="curve"/>
			<point x="523.452" y="274.401"/>
			<point x="420.216" y="319"/>
			<point x="288.333" y="319" type="curve" smooth="yes"/>
			<point x="235.026" y="319"/>
			<point x="194.335" y="312.878"/>
		</contour>
	</outline>
	<anchor name="Anchor-0" x="437.333" y="805"/>
</glyph>
<glyph name="R" format="2">
	<unicode hex="0052"/>
	<advance width="606"/>
	<outline>
		<contour>
			<point x="74.333" y="0" type="line"/>
			<point x="169.333" y="0" type="line"/>
			<point x="169.333" y="650.667" type="line"/>
			<point x="259" y="650.667" type="line" smooth="yes"/>
			<point x="411.103" y="650.667"/>
			<point x="476.667" y="605.692"/>
			<point x="476.667" y="501.333" type="curve" smooth="yes"/>
			<point x="476.667" y="401.199"/>
			<point x="403.627" y="352.056"/>
			<point x="255.379" y="352.056" type="curve" smooth="yes"/>
			<point x="195.797" y="352.056" type="line"/>
			<point x="450" y="0" type="line"/>
			<point x="567.667" y="0" type="line"/>
			<point x="363" y="275" type="line"/>
			<point x="500.407" y="295.891"/>
			<point x="572.667" y="374.026"/>
			<point x="572.667" y="502" type="curve" smooth="yes"/>
			<point x="572.667" y="660.718"/>
			<point x="472" y="739"/>
			<point x="267.333" y="739" type="curve" smooth="yes"/>
			<point x="74.333" y="739" type="line"/>
		</contour>
	</outline>
	<anchor name="Anchor-0" x="296.667" y="805"/>
</glyph>
<glyph name="S" format="2">
	<unicode hex="0053"/>
	<advance width="507"/>
	<outline>
		<contour>
			<point x="21" y="208.333" type="line"/>
			<point x="28.875" y="74.718"/>
			<point x="122.018" y="-13"/>
			<point x="256" y="-13" type="curve" smooth="yes"/>
			<point x="385.84" y="-13"/>
			<point x="483.333" y="83.505"/>
			<point x="483.333" y="212" type="curve" smooth="yes"/>
			<point x="483.333" y="323.32"/>
			<point x="426.025" y="384.752"/>
			<point x="279" y="430.333" type="curve" smooth="yes"/>
			<point x="176.6" y="462.139"/>
			<point x="142" y="492.963"/>
			<point x="142" y="551.667" type="curve" smooth="yes"/>
			<point x="142" y="616.261"/>
			<point x="188.263" y="662.667"/>
			<point x="252.667" y="662.667" type="curve" smooth="yes"/>
			<point x="318" y="662.667"/>
			<point x="362" y="618.667"/>
			<point x="366.667" y="548.667" type="curve"/>
			<point x="465.333" y="548.667" type="line"/>
			<point x="460.999" y="670.65"/>
			<point x="376.582" y="752"/>
			<point x="254.333" y="752" type="curve" smooth="yes"/>
			<point x="134.87" y="752"/>
			<point x="46" y="665.541"/>
			<point x="46" y="549.333" type="curve" smooth="yes"/>
			<point x="46" y="449.148"/>
			<point x="97.962" y="390.408"/>
			<point x="224" y="351" type="curve" smooth="yes"/>
			<point x="327.108" y="319.155"/>
			<point x="388" y="285.618"/>
			<point x="388" y="204.333" type="curve" smooth="yes"/>
			<point x="388" y="129.789"/>
			<point x="333.455" y="76.333"/>
			<point x="257.333" y="76.333" type="curve" smooth="yes"/>
			<point x="178.744" y="76.333"/>
			<point x="130.154" y="123.559"/>
			<point x="121.333" y="208.333" type="curve"/>
		</contour>
	</outline>
	<anchor name="Anchor-0" x="259.667" y="805"/>
</glyph>
<glyph name="T" format="2">
	<unicode hex="0054"/>
	<advance width="426"/>
	<outline>
		<contour>
			<point x="165.333" y="0" type="line"/>
			<point x="260.333" y="0" type="line"/>
			<point x="260.333" y="650.667" type="line"/>
			<point x="418.667" y="650.667" type="line"/>
			<point x="418.667" y="739" type="line"/>
			<point x="7" y="739" type="line"/>
			<point x="7" y="650.667" type="line"/>
			<point x="165.333" y="650.667" type="line"/>
		</contour>
	</outline>
	<anchor name="Anchor-0" x="212.667" y="805"/>
</glyph>
<glyph name="U" format="2">
	<unicode hex="0055"/>
	<advance width="650"/>
	<outline>
		<contour>
			<point x="74.333" y="739" type="line"/>
			<point x="74.333" y="275.667" type="line" smooth="yes"/>
			<point x="74.333" y="92.167"/>
			<point x="165.552" y="-13"/>
			<point x="324.667" y="-13" type="curve" smooth="yes"/>
			<point x="484.769" y="-13"/>
			<point x="576" y="91.763"/>
			<point x="576" y="275.667" type="curve" smooth="yes"/>
			<point x="576" y="739" type="line"/>
			<point x="481" y="739" type="line"/>
			<point x="481" y="275.667" type="line" smooth="yes"/>
			<point x="481" y="143.582"/>
			<point x="428.205" y="76.333"/>
			<point x="324.667" y="76.333" type="curve" smooth="yes"/>
			<point x="222.139" y="76.333"/>
			<point x="169.333" y="144.029"/>
			<point x="169.333" y="275.667" type="curve" smooth="yes"/>
			<point x="169.333" y="739" type="line"/>
		</contour>
	</outline>
	<anchor name="Anchor-0" x="324.667" y="805"/>
</glyph>
<glyph name="V" format="2">
	<unicode hex="0056"/>
	<advance width="699"/>
	<outline>
		<contour>
			<point x="306.667" y="0" type="line"/>
			<point x="392" y="0" type="line"/>
			<point x="691.333" y="739" type="line"/>
			<point x="590" y="739" type="line"/>
			<point x="349.667" y="120.333" type="line"/>
			<point x="110" y="739" type="line"/>
			<point x="8" y="739" type="line"/>
		</contour>
	</outline>
	<anchor name="Anchor-0" x="349.667" y="805"/>
</glyph>
<glyph name="W" format="2">
	<unicode hex="0057"/>
	<advance width="945"/>
	<outline>
		<contour>
			<point x="223.667" y="0" type="line"/>
			<point x="323.667" y="0" type="line"/>
			<point x="472.333" y="567" type="line"/>
			<point x="621.333" y="0" type="line"/>
			<point x="721" y="0" type="line"/>
			<point x="934.333" y="739" type="line"/>
			<point x="837" y="739" type="line"/>
			<point x="672" y="138.333" type="line"/>
			<point x="512.667" y="739" type="line"/>
			<point x="432.667" y="739" type="line"/>
			<point x="272.667" y="138.333" type="line"/>
			<point x="108" y="739" type="line"/>
			<point x="10.667" y="739" type="line"/>
		</contour>
	</outline>
	<anchor name="Anchor-0" x="472.333" y="805"/>
</glyph>
<glyph name="X" format="2">
	<unicode hex="0058"/>
	<advance width="634"/>
	<outline>
		<contour>
			<point x="7.667" y="0" type="line"/>
			<point x="120" y="0" type="line"/>
			<point x="317.333" y="295.667" type="line"/>
			<point x="515.667" y="0" type="line"/>
			<point x="626.667" y="0" type="line"/>
			<point x="373.333" y="374.667" type="line"/>
			<point x="616.667" y="739" type="line"/>
			<point x="506.333" y="739" type="line"/>
			<point x="317.333" y="455.667" type="line"/>
			<point x="129.333" y="739" type="line"/>
			<point x="17" y="739" type="line"/>
			<point x="259.667" y="374.667" type="line"/>
		</contour>
	</outline>
	<anchor name="Anchor-0" x="316.667" y="805"/>
</glyph>
<glyph name="Z" format="2">
	<unicode hex="005A"/>
	<advance width="494"/>
	<outline>
		<contour>
			<point x="21.333" y="0" type="line"/>
			<point x="480" y="0" type="line"/>
			<point x="480" y="88.333" type="line"/>
			<point x="132.333" y="88.333" type="line"/>
			<point x="466.333" y="653.333" type="line"/>
			<point x="466.333" y="739" type="line"/>
			<point x="33.667" y="739" type="line"/>
			<point x="33.667" y="650.667" type="line"/>
			<point x="356.667" y="650.667" type="line"/>
			<point x="21.333" y="83.333" type="line"/>
		</contour>
	</outline>
	<anchor name="Anchor-0" x="252.333" y="805"/>
</glyph>
<glyph name="bracketleft" format="2">
	<unicode hex="005B"/>
	<advance width="338"/>
	<outline>
		<contour>
			<point x="300.667" y="-30" type="line"/>
			<point x="214.848" y="7.266"/>
			<point x="185.667" y="58.809"/>
			<point x="185.667" y="172.667" type="curve" smooth="yes"/>
			<point x="185.667" y="438.333" type="line" smooth="yes"/>
			<point x="185.667" y="551.368"/>
			<point x="215.004" y="602.867"/>
			<point x="300.667" y="640" type="curve"/>
			<point x="300.667" y="739" type="line"/>
			<point x="168.27" y="703.729"/>
			<point x="94" y="602.168"/>
			<point x="94" y="456.667" type="curve" smooth="yes"/>
			<point x="94" y="171.667" type="line" smooth="yes"/>
			<point x="94" y="8.995"/>
			<point x="164.56" y="-93.629"/>
			<point x="300.667" y="-129" type="curve"/>
		</contour>
	</outline>
</glyph>
<glyph name="bracketright" format="2">
	<unicode hex="005D"/>
	<advance width="338"/>
	<outline>
		<contour>
			<point x="37.667" y="-129" type="line"/>
			<point x="172.136" y="-91.53"/>
			<point x="244.333" y="7.428"/>
			<point x="244.333" y="154" type="curve" smooth="yes"/>
			<point x="244.333" y="438.333" type="line" smooth="yes"/>
			<point x="244.333" y="601.888"/>
			<point x="174.536" y="703.415"/>
			<point x="37.667" y="739" type="curve"/>
			<point x="37.667" y="640" type="line"/>
			<point x="123.422" y="602.762"/>
			<point x="152.667" y="551.273"/>
			<point x="152.667" y="438" type="curve" smooth="yes"/>
			<point x="152.667" y="171.667" type="line" smooth="yes"/>
			<point x="152.667" y="58.965"/>
			<point x="123.605" y="7.923"/>
			<point x="37.667" y="-30" type="curve"/>
		</contour>
	</outline>
</glyph>
<glyph name="asciicircum" format="2">
	<unicode hex="005E"/>
	<advance width="604"/>
	<outline>
		<contour>
			<point x="24.455" y="224.485" type="line"/>
			<point x="120.667" y="224.333" type="line"/>
			<point x="302.667" y="636.333" type="line"/>
			<point x="483.333" y="224.333" type="line"/>
			<point x="579.934" y="224.333" type="line"/>
			<point x="351" y="739" type="line"/>
			<point x="253.667" y="739" type="line"/>
		</contour>
	</outline>
</glyph>
<glyph name="underscore" format="2">
	<unicode hex="005F"/>
	<advance width="500"/>
	<outline>
		<contour>
			<point x="0" y="-129.333" type="line"/>
			<point x="500" y="-129.333" type="line"/>
			<point x="500" y="-60.667" type="line"/>
			<point x="0" y="-60.667" type="line"/>
		</contour>
	</outline>
</glyph>
<glyph name="grave" format="2">
	<unicode hex="0060"/>
	<advance width="388"/>
	<outline>
		<contour>
			<point x="70.667" y="724.333" type="line"/>
			<point x="277.333" y="611" type="line"/>
			<point x="317" y="674.667" type="line"/>
			<point x="111" y="792.333" type="line"/>
		</contour>
	</outline>
</glyph>
<glyph name="a" format="2">
	<unicode hex="0061"/>
	<advance width="678"/>
	<outline>
		<contour>
			<point x="37.333" y="273" type="curve" smooth="yes"/>
			<point x="37.333" y="108.02"/>
			<point x="159.643" y="-13"/>
			<point x="326.333" y="-13" type="curve" smooth="yes"/>
			<point x="414.266" y="-13"/>
			<point x="471.298" y="15.597"/>
			<point x="527.667" y="88" type="curve"/>
			<point x="527.667" y="0" type="line"/>
			<point x="617.667" y="0" type="line"/>
			<point x="617.667" y="549.333" type="line"/>
			<point x="527.667" y="549.333" type="line"/>
			<point x="527.667" y="460" type="line"/>
			<point x="475.981" y="531.232"/>
			<point x="413.885" y="562.333"/>
			<point x="323.333" y="562.333" type="curve" smooth="yes"/>
			<point x="159.465" y="562.333"/>
			<point x="37.333" y="438.803"/>
		</contour>
		<contour>
			<point x="132" y="274" type="curve" smooth="yes"/>
			<point x="132" y="387.346"/>
			<point x="217.674" y="476.333"/>
			<point x="326.667" y="476.333" type="curve" smooth="yes"/>
			<point x="441.676" y="476.333"/>
			<point x="526.333" y="390.99"/>
			<point x="526.333" y="275" type="curve" smooth="yes"/>
			<point x="526.333" y="159.311"/>
			<point x="443.312" y="73"/>
			<point x="332" y="73" type="curve" smooth="yes"/>
			<point x="218.607" y="73"/>
			<point x="132" y="160.062"/>
		</contour>
	</outline>
	<anchor name="Anchor-0" x="349.667" y="625.333"/>
</glyph>
<glyph name="b" format="2">
	<unicode hex="0062"/>
	<advance width="677"/>
	<outline>
		<contour>
			<point x="60" y="0" type="line"/>
			<point x="150" y="0" type="line"/>
			<point x="150" y="86.333" type="line"/>
			<point x="199.617" y="20.72"/>
			<point x="269.262" y="-13"/>
			<point x="356.667" y="-13" type="curve" smooth="yes"/>
			<point x="518.791" y="-13"/>
			<point x="639.333" y="110.341"/>
			<point x="639.333" y="276.333" type="curve" smooth="yes"/>
			<point x="639.333" y="439.63"/>
			<point x="515.704" y="564.667"/>
			<point x="354.333" y="564.667" type="curve" smooth="yes"/>
			<point x="269.027" y="564.667"/>
			<point x="202.57" y="532.928"/>
			<point x="153.667" y="469.667" type="curve"/>
			<point x="153.667" y="739" type="line"/>
			<point x="60" y="739" type="line"/>
		</contour>
		<contour>
			<point x="347" y="73" type="curve" smooth="yes"/>
			<point x="234.601" y="73"/>
			<point x="147.667" y="161.062"/>
			<point x="147.667" y="275" type="curve" smooth="yes"/>
			<point x="147.667" y="390.782"/>
			<point x="232.444" y="478.667"/>
			<point x="344" y="478.667" type="curve" smooth="yes"/>
			<point x="460.839" y="478.667"/>
			<point x="544.667" y="394.163"/>
			<point x="544.667" y="276.333" type="curve" smooth="yes"/>
			<point x="544.667" y="159.022"/>
			<point x="461.012" y="73"/>
		</contour>
	</outline>
	<anchor name="Anchor-0" x="330" y="805"/>
</glyph>
<glyph name="c" format="2">
	<unicode hex="0063"/>
	<advance width="640"/>
	<outline>
		<contour>
			<point x="499" y="168" type="line"/>
			<point x="449.775" y="100.034"/>
			<point x="402.363" y="73"/>
			<point x="332.333" y="73" type="curve" smooth="yes"/>
			<point x="219.559" y="73"/>
			<point x="132" y="161.111"/>
			<point x="132" y="274.667" type="curve" smooth="yes"/>
			<point x="132" y="389.424"/>
			<point x="217.088" y="476.333"/>
			<point x="329.333" y="476.333" type="curve" smooth="yes"/>
			<point x="403.625" y="476.333"/>
			<point x="462.135" y="442.083"/>
			<point x="499" y="377" type="curve"/>
			<point x="604.333" y="377" type="line"/>
			<point x="560.258" y="492.197"/>
			<point x="456.376" y="562.333"/>
			<point x="330" y="562.333" type="curve" smooth="yes"/>
			<point x="166.158" y="562.333"/>
			<point x="37.333" y="436.154"/>
			<point x="37.333" y="275.667" type="curve" smooth="yes"/>
			<point x="37.333" y="113.6"/>
			<point x="167.725" y="-13"/>
			<point x="334.667" y="-13" type="curve" smooth="yes"/>
			<point x="457.245" y="-13"/>
			<point x="547.387" y="47.507"/>
			<point x="605" y="168" type="curve"/>
		</contour>
	</outline>
	<anchor name="Anchor-0" x="330" y="625.333"/>
</glyph>
<glyph name="d" format="2">
	<unicode hex="0064"/>
	<advance width="678"/>
	<outline>
		<contour>
			<point x="37.333" y="274" type="curve" smooth="yes"/>
			<point x="37.333" y="111.234"/>
			<point x="163.432" y="-13"/>
			<point x="328.667" y="-13" type="curve" smooth="yes"/>
			<point x="414.601" y="-13"/>
			<point x="472.757" y="16.984"/>
			<point x="528.333" y="90" type="curve"/>
			<point x="528.333" y="0" type="line"/>
			<point x="618.333" y="0" type="line"/>
			<point x="618.333" y="739" type="line"/>
			<point x="524.667" y="739" type="line"/>
			<point x="524.667" y="475" type="line"/>
			<point x="475.502" y="532.854"/>
			<point x="404.052" y="564.667"/>
			<point x="323.667" y="564.667" type="curve" smooth="yes"/>
			<point x="161.373" y="564.667"/>
			<point x="37.333" y="438.702"/>
		</contour>
		<contour>
			<point x="132" y="276.667" type="curve" smooth="yes"/>
			<point x="132" y="389.231"/>
			<point x="217.903" y="478.667"/>
			<point x="326" y="478.667" type="curve" smooth="yes"/>
			<point x="441.108" y="478.667"/>
			<point x="530" y="390.554"/>
			<point x="530" y="276.333" type="curve" smooth="yes"/>
			<point x="530" y="164.046"/>
			<point x="442.378" y="73"/>
			<point x="334.333" y="73" type="curve" smooth="yes"/>
			<point x="220.873" y="73"/>
			<point x="132" y="162.464"/>
		</contour>
	</outline>
	<anchor name="Anchor-0" x="344" y="805"/>
</glyph>
<glyph name="e" format="2">
	<unicode hex="0065"/>
	<advance width="645"/>
	<outline>
		<contour>
			<point x="495.667" y="174.667" type="line"/>
			<point x="463.713" y="111.48"/>
			<point x="401.488" y="73"/>
			<point x="327.667" y="73" type="curve" smooth="yes"/>
			<point x="226.3" y="73"/>
			<point x="144.04" y="144.062"/>
			<point x="134.667" y="238.667" type="curve"/>
			<point x="607" y="238.667" type="line"/>
			<point x="609.94" y="251.677"/>
			<point x="611.154" y="262.444"/>
			<point x="611.159" y="276.226" type="curve" smooth="yes"/>
			<point x="611.244" y="435.255"/>
			<point x="483.254" y="562.333"/>
			<point x="323.333" y="562.333" type="curve" smooth="yes"/>
			<point x="163.52" y="562.333"/>
			<point x="37.333" y="435.853"/>
			<point x="37.333" y="275.667" type="curve" smooth="yes"/>
			<point x="37.333" y="113.627"/>
			<point x="165.708" y="-13"/>
			<point x="330" y="-13" type="curve" smooth="yes"/>
			<point x="449.677" y="-13"/>
			<point x="557.482" y="63.215"/>
			<point x="595.333" y="174.667" type="curve"/>
		</contour>
		<contour>
			<point x="134.667" y="322.333" type="line"/>
			<point x="154.997" y="416.384"/>
			<point x="228.369" y="476.333"/>
			<point x="324" y="476.333" type="curve" smooth="yes"/>
			<point x="422.058" y="476.333"/>
			<point x="494.015" y="418.601"/>
			<point x="516.333" y="322.333" type="curve"/>
		</contour>
	</outline>
	<anchor name="Anchor-0" x="327.333" y="625.333"/>
</glyph>
<glyph name="f" format="2">
	<unicode hex="0066"/>
	<advance width="307"/>
	<outline>
		<contour>
			<point x="90" y="0" type="line"/>
			<point x="183.667" y="0" type="line"/>
			<point x="183.667" y="464.333" type="line"/>
			<point x="299.333" y="464.333" type="line"/>
			<point x="299.333" y="546" type="line"/>
			<point x="183.667" y="546" type="line"/>
			<point x="184.002" y="623.515"/>
			<point x="212.419" y="651.627"/>
			<point x="290.474" y="651.627" type="curve" smooth="yes"/>
			<point x="302" y="651.627" type="line"/>
			<point x="302" y="738.333" type="line"/>
			<point x="289.699" y="739.624"/>
			<point x="280.293" y="739.928"/>
			<point x="270.788" y="739.912" type="curve" smooth="yes"/>
			<point x="157.283" y="739.721"/>
			<point x="94.183" y="672.034"/>
			<point x="90" y="546" type="curve"/>
			<point x="17.333" y="546" type="line"/>
			<point x="17.333" y="464.333" type="line"/>
			<point x="90" y="464.333" type="line"/>
		</contour>
	</outline>
	<anchor name="Anchor-0" x="178.333" y="805"/>
</glyph>
<glyph name="g" format="2">
	<unicode hex="0067"/>
	<advance width="670"/>
	<outline>
		<contour>
			<point x="53.667" y="-26.333" type="line"/>
			<point x="95.425" y="-148.908"/>
			<point x="194.95" y="-217"/>
			<point x="332" y="-217" type="curve" smooth="yes"/>
			<point x="517.287" y="-217"/>
			<point x="609.667" y="-111.431"/>
			<point x="609.667" y="100.333" type="curve" smooth="yes"/>
			<point x="609.667" y="549.333" type="line"/>
			<point x="518" y="549.333" type="line"/>
			<point x="518" y="461.333" type="line"/>
			<point x="467.451" y="530.505"/>
			<point x="403.202" y="562.333"/>
			<point x="314.333" y="562.333" type="curve" smooth="yes"/>
			<point x="155.324" y="562.333"/>
			<point x="37.333" y="439.658"/>
			<point x="37.333" y="274.333" type="curve" smooth="yes"/>
			<point x="37.333" y="110.558"/>
			<point x="158.112" y="-13"/>
			<point x="318" y="-13" type="curve" smooth="yes"/>
			<point x="409.701" y="-13"/>
			<point x="471.808" y="21.755"/>
			<point x="517.977" y="98.333" type="curve"/>
			<point x="517.977" y="67.692" type="line" smooth="yes"/>
			<point x="517.977" y="-63.002"/>
			<point x="453.387" y="-132.667"/>
			<point x="332.333" y="-132.667" type="curve" smooth="yes"/>
			<point x="249.41" y="-132.667"/>
			<point x="200.109" y="-103.592"/>
			<point x="152" y="-26.333" type="curve"/>
		</contour>
		<contour>
			<point x="324" y="73" type="curve" smooth="yes"/>
			<point x="212.302" y="73"/>
			<point x="132" y="158.033"/>
			<point x="132" y="276.333" type="curve" smooth="yes"/>
			<point x="132" y="391.562"/>
			<point x="210.903" y="476.333"/>
			<point x="318" y="476.333" type="curve" smooth="yes"/>
			<point x="433.149" y="476.333"/>
			<point x="516" y="393.525"/>
			<point x="516" y="278.333" type="curve" smooth="yes"/>
			<point x="516" y="159.474"/>
			<point x="435.153" y="73"/>
		</contour>
	</outline>
	<anchor name="Anchor-0" x="336.333" y="625.333"/>
</glyph>
<glyph name="h" format="2">
	<unicode hex="0068"/>
	<advance width="606"/>
	<outline>
		<contour>
			<point x="60" y="0" type="line"/>
			<point x="153.667" y="0" type="line"/>
			<point x="153.667" y="293.667" type="line" smooth="yes"/>
			<point x="153.667" y="411.734"/>
			<point x="207.133" y="476.333"/>
			<point x="304" y="476.333" type="curve" smooth="yes"/>
			<point x="401.814" y="476.333"/>
			<point x="452.667" y="413.47"/>
			<point x="452.667" y="290.333" type="curve" smooth="yes"/>
			<point x="452.667" y="0" type="line"/>
			<point x="546.333" y="0" type="line"/>
			<point x="546.333" y="300.333" type="line" smooth="yes"/>
			<point x="546.333" y="471.474"/>
			<point x="466.231" y="562.667"/>
			<point x="316" y="562.667" type="curve" smooth="yes"/>
			<point x="247.326" y="562.667"/>
			<point x="191.676" y="537.321"/>
			<point x="153.667" y="489.333" type="curve"/>
			<point x="153.667" y="739" type="line"/>
			<point x="60" y="739" type="line"/>
		</contour>
	</outline>
	<anchor name="Anchor-0" x="290" y="805"/>
</glyph>
<glyph name="j" format="2">
	<unicode hex="006A"/>
	<advance width="220"/>
	<outline>
		<contour>
			<point x="-25.667" y="-189.667" type="line"/>
			<point x="22.083" y="-188.319"/>
			<point x="58.462" y="-176.128"/>
			<point x="90.667" y="-151" type="curve" smooth="yes"/>
			<point x="142.522" y="-111.533"/>
			<point x="160.333" y="-62.973"/>
			<point x="160.333" y="37.667" type="curve" smooth="yes"/>
			<point x="160.333" y="549.333" type="line"/>
			<point x="66.667" y="549.333" type="line"/>
			<point x="66.667" y="38.667" type="line" smooth="yes"/>
			<point x="66.667" y="-63.343"/>
			<point x="46.331" y="-93.004"/>
			<point x="-25.667" y="-99.333" type="curve"/>
		</contour>
		<contour>
			<point x="66.667" y="613.333" type="line"/>
			<point x="160.333" y="613.333" type="line"/>
			<point x="160.333" y="739" type="line"/>
			<point x="66.667" y="739" type="line"/>
		</contour>
	</outline>
	<anchor name="Anchor-0" x="113.333" y="805"/>
</glyph>
<glyph name="k" format="2">
	<unicode hex="006B"/>
	<advance width="520"/>
	<outline>
		<contour>
			<point x="60" y="0" type="line"/>
			<point x="153.667" y="0" type="line"/>
			<point x="153.667" y="106.707" type="line"/>
			<point x="230.949" y="204.678" type="line"/>
			<point x="395.333" y="0" type="line"/>
			<point x="516.333" y="0" type="line"/>
			<point x="288.333" y="275.667" type="line"/>
			<point x="496.333" y="549.333" type="line"/>
			<point x="382.667" y="549.333" type="line"/>
			<point x="153.667" y="241" type="line"/>
			<point x="153.667" y="739" type="line"/>
			<point x="60" y="739" type="line"/>
		</contour>
	</outline>
	<anchor name="Anchor-0" x="255.333" y="805"/>
</glyph>
<glyph name="m" format="2">
	<unicode hex="006D"/>
	<advance width="938"/>
	<outline>
		<contour>
			<point x="60" y="0" type="line"/>
			<point x="153.667" y="0" type="line"/>
			<point x="153.667" y="303.667" type="line" smooth="yes"/>
			<point x="153.667" y="416.932"/>
			<point x="200.578" y="476.333"/>
			<point x="288" y="476.333" type="curve" smooth="yes"/>
			<point x="375.441" y="476.333"/>
			<point x="422.333" y="419.901"/>
			<point x="422.333" y="314" type="curve" smooth="yes"/>
			<point x="422.333" y="0" type="line"/>
			<point x="516" y="0" type="line"/>
			<point x="516" y="302.333" type="line" smooth="yes"/>
			<point x="516" y="416.709"/>
			<point x="563.433" y="476.333"/>
			<point x="653.333" y="476.333" type="curve" smooth="yes"/>
			<point x="739.772" y="476.333"/>
			<point x="784.667" y="420.499"/>
			<point x="784.667" y="312.667" type="curve" smooth="yes"/>
			<point x="784.667" y="0" type="line"/>
			<point x="878.333" y="0" type="line"/>
			<point x="878.333" y="323.333" type="line" smooth="yes"/>
			<point x="878.333" y="476.792"/>
			<point x="799.938" y="562.333"/>
			<point x="659.333" y="562.333" type="curve" smooth="yes"/>
			<point x="576.785" y="562.333"/>
			<point x="519.702" y="531.872"/>
			<point x="474.333" y="463.667" type="curve"/>
			<point x="433.077" y="533.207"/>
			<point x="381.82" y="562.333"/>
			<point x="300.667" y="562.333" type="curve" smooth="yes"/>
			<point x="233.164" y="562.333"/>
			<point x="191.77" y="542.467"/>
			<point x="150" y="490" type="curve"/>
			<point x="150" y="549.333" type="line"/>
			<point x="60" y="549.333" type="line"/>
		</contour>
	</outline>
	<anchor name="Anchor-0" x="469" y="625.333"/>
</glyph>
<glyph name="n" format="2">
	<unicode hex="006E"/>
	<advance width="606"/>
	<outline>
		<contour>
			<point x="60" y="0" type="line"/>
			<point x="153.667" y="0" type="line"/>
			<point x="153.667" y="287.667" type="line" smooth="yes"/>
			<point x="153.667" y="413.675"/>
			<point x="204.32" y="476.333"/>
			<point x="305" y="476.333" type="curve" smooth="yes"/>
			<point x="404.296" y="476.333"/>
			<point x="453" y="412.917"/>
			<point x="453" y="281.667" type="curve" smooth="yes"/>
			<point x="453" y="0" type="line"/>
			<point x="546.667" y="0" type="line"/>
			<point x="546.667" y="290.333" type="line" smooth="yes"/>
			<point x="546.667" y="470.111"/>
			<point x="469.519" y="562.333"/>
			<point x="319.667" y="562.333" type="curve" smooth="yes"/>
			<point x="249.781" y="562.333"/>
			<point x="196.977" y="537.907"/>
			<point x="150.333" y="484.333" type="curve"/>
			<point x="150.333" y="549.333" type="line"/>
			<point x="60" y="549.333" type="line"/>
		</contour>
	</outline>
	<anchor name="Anchor-0" x="303.333" y="625.333"/>
</glyph>
<glyph name="p" format="2">
	<unicode hex="0070"/>
	<advance width="675"/>
	<outline>
		<contour>
			<point x="60" y="-189.667" type="line"/>
			<point x="153.667" y="-189.667" type="line"/>
			<point x="153.667" y="80" type="line"/>
			<point x="202.773" y="18.275"/>
			<point x="269.103" y="-13"/>
			<point x="352.333" y="-13" type="curve" smooth="yes"/>
			<point x="514.646" y="-13"/>
			<point x="638" y="111.31"/>
			<point x="638" y="275" type="curve" smooth="yes"/>
			<point x="638" y="439.137"/>
			<point x="516.196" y="562.333"/>
			<point x="354" y="562.333" type="curve" smooth="yes"/>
			<point x="265.949" y="562.333"/>
			<point x="194.8" y="528.394"/>
			<point x="150" y="465" type="curve"/>
			<point x="150" y="549.333" type="line"/>
			<point x="60" y="549.333" type="line"/>
		</contour>
		<contour>
			<point x="346.667" y="73" type="curve" smooth="yes"/>
			<point x="234.138" y="73"/>
			<point x="147.667" y="160.196"/>
			<point x="147.667" y="273.667" type="curve" smooth="yes"/>
			<point x="147.667" y="387.806"/>
			<point x="233.149" y="476.333"/>
			<point x="343.333" y="476.333" type="curve" smooth="yes"/>
			<point x="459.441" y="476.333"/>
			<point x="543.333" y="390.897"/>
			<point x="543.333" y="272.667" type="curve" smooth="yes"/>
			<point x="543.333" y="159.322"/>
			<point x="458.322" y="73"/>
		</contour>
	</outline>
	<anchor name="Anchor-0" x="332.667" y="625.333"/>
</glyph>
<glyph name="q" format="2">
	<unicode hex="0071"/>
	<advance width="676"/>
	<outline>
		<contour>
			<point x="522" y="-189.667" type="line"/>
			<point x="615.667" y="-189.667" type="line"/>
			<point x="615.667" y="549.333" type="line"/>
			<point x="525.667" y="549.333" type="line"/>
			<point x="525.667" y="463" type="line"/>
			<point x="480.374" y="528.925"/>
			<point x="412.099" y="562.333"/>
			<point x="322.333" y="562.333" type="curve" smooth="yes"/>
			<point x="161.483" y="562.333"/>
			<point x="37.333" y="437.15"/>
			<point x="37.333" y="275" type="curve" smooth="yes"/>
			<point x="37.333" y="112.383"/>
			<point x="162.285" y="-13"/>
			<point x="324.333" y="-13" type="curve" smooth="yes"/>
			<point x="407.671" y="-13"/>
			<point x="475.321" y="19.016"/>
			<point x="522" y="80.333" type="curve"/>
		</contour>
		<contour>
			<point x="330.333" y="73" type="curve" smooth="yes"/>
			<point x="216.907" y="73"/>
			<point x="132" y="158.759"/>
			<point x="132" y="273.333" type="curve" smooth="yes"/>
			<point x="132" y="388.484"/>
			<point x="216.813" y="476.333"/>
			<point x="328" y="476.333" type="curve" smooth="yes"/>
			<point x="442.89" y="476.333"/>
			<point x="528" y="390.115"/>
			<point x="528" y="273.667" type="curve" smooth="yes"/>
			<point x="528" y="159.643"/>
			<point x="442.637" y="73"/>
		</contour>
	</outline>
	<anchor name="Anchor-0" x="343.667" y="625.333"/>
</glyph>
<glyph name="r" format="2">
	<unicode hex="0072"/>
	<advance width="311"/>
	<outline>
		<contour>
			<point x="60" y="0" type="line"/>
			<point x="153.667" y="0" type="line"/>
			<point x="153.667" y="315.333" type="line" smooth="yes"/>
			<point x="153.667" y="412.229"/>
			<point x="201.52" y="464.321"/>
			<point x="296.667" y="471" type="curve"/>
			<point x="296.667" y="562.333" type="line"/>
			<point x="220.854" y="559.648"/>
			<point x="181.298" y="537.031"/>
			<point x="150" y="479.333" type="curve"/>
			<point x="150" y="549.333" type="line"/>
			<point x="60" y="549.333" type="line"/>
		</contour>
	</outline>
	<anchor name="Anchor-0" x="174.333" y="625.333"/>
</glyph>
<glyph name="s" format="2">
	<unicode hex="0073"/>
	<advance width="405"/>
	<outline>
		<contour>
			<point x="17" y="166" type="line"/>
			<point x="21.494" y="55.602"/>
			<point x="92.336" y="-13"/>
			<point x="202.001" y="-13" type="curve" smooth="yes"/>
			<point x="304.754" y="-13"/>
			<point x="379.334" y="61.081"/>
			<point x="379.334" y="163.333" type="curve" smooth="yes"/>
			<point x="379.334" y="236.824"/>
			<point x="334.928" y="288.005"/>
			<point x="243.279" y="318.8" type="curve" smooth="yes"/>
			<point x="179.091" y="340.974"/>
			<point x="131.334" y="368.389"/>
			<point x="131.334" y="413.294" type="curve" smooth="yes"/>
			<point x="131.334" y="450.108"/>
			<point x="160.312" y="476.333"/>
			<point x="201.001" y="476.333" type="curve" smooth="yes"/>
			<point x="242.379" y="476.333"/>
			<point x="267.01" y="452.62"/>
			<point x="271.667" y="408.333" type="curve"/>
			<point x="365.001" y="408.333" type="line"/>
			<point x="361.554" y="499.496"/>
			<point x="294.904" y="562.333"/>
			<point x="201.667" y="562.333" type="curve" smooth="yes"/>
			<point x="105.508" y="562.333"/>
			<point x="37.001" y="496.277"/>
			<point x="37.001" y="403.333" type="curve" smooth="yes"/>
			<point x="37.001" y="328.387"/>
			<point x="75.201" y="287.743"/>
			<point x="183.001" y="248" type="curve" smooth="yes"/>
			<point x="250.466" y="222.608"/>
			<point x="285.001" y="203.917"/>
			<point x="285.001" y="154.333" type="curve" smooth="yes"/>
			<point x="285.001" y="106.996"/>
			<point x="250.996" y="73"/>
			<point x="203.667" y="73" type="curve" smooth="yes"/>
			<point x="149.324" y="73"/>
			<point x="117.337" y="105.01"/>
			<point x="110.334" y="166" type="curve"/>
		</contour>
	</outline>
	<anchor name="Anchor-0" x="202.667" y="625.333"/>
</glyph>
<glyph name="t" format="2">
	<unicode hex="0074"/>
	<advance width="327"/>
	<outline>
		<contour>
			<point x="112.667" y="0" type="line"/>
			<point x="206.333" y="0" type="line"/>
			<point x="206.333" y="464.333" type="line"/>
			<point x="315" y="464.333" type="line"/>
			<point x="315" y="549.333" type="line"/>
			<point x="206.333" y="549.333" type="line"/>
			<point x="206.333" y="739" type="line"/>
			<point x="112.667" y="739" type="line"/>
			<point x="112.667" y="549.333" type="line"/>
			<point x="12.333" y="549.333" type="line"/>
			<point x="12.333" y="464.333" type="line"/>
			<point x="112.667" y="464.333" type="line"/>
		</contour>
	</outline>
	<anchor name="Anchor-0" x="161.333" y="805"/>
</glyph>
<glyph name="v" format="2">
	<unicode hex="0076"/>
	<advance width="555"/>
	<outline>
		<contour>
			<point x="234" y="0" type="line"/>
			<point x="321.333" y="0" type="line"/>
			<point x="549" y="549.333" type="line"/>
			<point x="449" y="549.333" type="line"/>
			<point x="276.333" y="120.333" type="line"/>
			<point x="105.667" y="549.333" type="line"/>
			<point x="6.333" y="549.333" type="line"/>
		</contour>
	</outline>
	<anchor name="Anchor-0" x="277.667" y="625.333"/>
</glyph>
<glyph name="w" format="2">
	<unicode hex="0077"/>
	<advance width="814"/>
	<outline>
		<contour>
			<point x="211" y="0" type="line"/>
			<point x="291.667" y="0" type="line"/>
			<point x="406" y="361.667" type="line"/>
			<point x="520.333" y="0" type="line"/>
			<point x="600.667" y="0" type="line"/>
			<point x="808.667" y="549.333" type="line"/>
			<point x="713.333" y="549.333" type="line"/>
			<point x="561" y="131.333" type="line"/>
			<point x="444.667" y="504.667" type="line"/>
			<point x="368.667" y="504.667" type="line"/>
			<point x="251.667" y="131.333" type="line"/>
			<point x="102.667" y="549.333" type="line"/>
			<point x="5.667" y="549.333" type="line"/>
		</contour>
	</outline>
	<anchor name="Anchor-0" x="406.667" y="625.333"/>
</glyph>
<glyph name="x" format="2">
	<unicode hex="0078"/>
	<advance width="506"/>
	<outline>
		<contour>
			<point x="6.333" y="0" type="line"/>
			<point x="115.667" y="0" type="line"/>
			<point x="253" y="209.333" type="line"/>
			<point x="389.667" y="0" type="line"/>
			<point x="499.667" y="0" type="line"/>
			<point x="306.667" y="281.333" type="line"/>
			<point x="490.333" y="549.333" type="line"/>
			<point x="383.667" y="549.333" type="line"/>
			<point x="253" y="353" type="line"/>
			<point x="121" y="549.333" type="line"/>
			<point x="15" y="549.333" type="line"/>
			<point x="198.333" y="281.333" type="line"/>
		</contour>
	</outline>
	<anchor name="Anchor-0" x="253" y="625.333"/>
</glyph>
<glyph name="y" format="2">
	<unicode hex="0079"/>
	<advance width="547"/>
	<outline>
		<contour>
			<point x="122" y="-189.667" type="line"/>
			<point x="222.333" y="-189.667" type="line"/>
			<point x="539.667" y="549.333" type="line"/>
			<point x="436" y="549.333" type="line"/>
			<point x="268" y="139" type="line"/>
			<point x="111.667" y="549.333" type="line"/>
			<point x="7" y="549.333" type="line"/>
			<point x="216" y="29.333" type="line"/>
		</contour>
	</outline>
	<anchor name="Anchor-0" x="271.333" y="625.333"/>
</glyph>
<glyph name="z" format="2">
	<unicode hex="007A"/>
	<advance width="444"/>
	<outline>
		<contour>
			<point x="16.667" y="0" type="line"/>
			<point x="427.333" y="0" type="line"/>
			<point x="427.333" y="84.333" type="line"/>
			<point x="127.667" y="84.333" type="line"/>
			<point x="408.333" y="467.667" type="line"/>
			<point x="408.333" y="549.333" type="line"/>
			<point x="32.667" y="549.333" type="line"/>
			<point x="32.667" y="465" type="line"/>
			<point x="299.333" y="465" type="line"/>
			<point x="16.667" y="84.333" type="line"/>
		</contour>
	</outline>
	<anchor name="Anchor-0" x="221.667" y="625.333"/>
</glyph>
<glyph name="braceleft" format="2">
	<unicode hex="007B"/>
	<advance width="346"/>
	<outline>
		<contour>
			<point x="296.333" y="-55.333" type="line"/>
			<point x="232.001" y="-53.341"/>
			<point x="218" y="-39.546"/>
			<point x="218" y="26" type="curve" smooth="yes"/>
			<point x="218" y="180.333" type="line" smooth="yes"/>
			<point x="218" y="254.449"/>
			<point x="199.235" y="282.944"/>
			<point x="136" y="305.667" type="curve"/>
			<point x="203.068" y="331.002"/>
			<point x="218" y="353.633"/>
			<point x="218" y="432" type="curve" smooth="yes"/>
			<point x="218" y="586.333" type="line" smooth="yes"/>
			<point x="218" y="649.18"/>
			<point x="234.966" y="665.674"/>
			<point x="296.333" y="667.667" type="curve"/>
			<point x="296.333" y="739" type="line"/>
			<point x="175.319" y="739"/>
			<point x="131.667" y="702.512"/>
			<point x="131.667" y="600.333" type="curve" smooth="yes"/>
			<point x="131.667" y="434.667" type="line" smooth="yes"/>
			<point x="131.667" y="373.132"/>
			<point x="113.805" y="352.305"/>
			<point x="52" y="342.667" type="curve"/>
			<point x="52" y="269.667" type="line"/>
			<point x="114.158" y="259.297"/>
			<point x="131.667" y="238.868"/>
			<point x="131.667" y="177.667" type="curve" smooth="yes"/>
			<point x="131.667" y="12" type="line" smooth="yes"/>
			<point x="131.667" y="-90.692"/>
			<point x="174.748" y="-126.667"/>
			<point x="296.333" y="-126.667" type="curve"/>
		</contour>
	</outline>
</glyph>
<glyph name="asciitilde" format="2">
	<unicode hex="007E"/>
	<advance width="604"/>
	<outline>
		<contour>
			<point x="99" y="211.333" type="line"/>
			<point x="131.985" y="266.565"/>
			<point x="159.734" y="298.333"/>
			<point x="195.333" y="298.333" type="curve" smooth="yes"/>
			<point x="212.362" y="298.333"/>
			<point x="221.132" y="295.775"/>
			<point x="265.333" y="278" type="curve" smooth="yes"/>
			<point x="320" y="256" type="line" smooth="yes"/>
			<point x="361.188" y="238.518"/>
			<point x="389.901" y="230.667"/>
			<point x="412.333" y="230.667" type="curve" smooth="yes"/>
			<point x="464.224" y="230.667"/>
			<point x="513.893" y="270.492"/>
			<point x="554" y="344.333" type="curve"/>
			<point x="503.333" y="400.333" type="line"/>
			<point x="472.899" y="346.993"/>
			<point x="443.883" y="321"/>
			<point x="414.333" y="321" type="curve" smooth="yes"/>
			<point x="395.479" y="321"/>
			<point x="382.188" y="325.223"/>
			<point x="337.333" y="343.667" type="curve" smooth="yes"/>
			<point x="271.667" y="370.667" type="line" smooth="yes"/>
			<point x="242.9" y="382.511"/>
			<point x="216.481" y="388.667"/>
			<point x="194.667" y="388.667" type="curve" smooth="yes"/>
			<point x="132.402" y="388.667"/>
			<point x="93.685" y="344.998"/>
			<point x="50" y="267.667" type="curve"/>
		</contour>
	</outline>
</glyph>
<glyph name="exclamdown" format="2">
	<unicode hex="00A1"/>
	<advance width="304"/>
	<outline>
		<contour>
			<point x="105.333" y="-189.667" type="line"/>
			<point x="199" y="-189.667" type="line"/>
			<point x="199" y="356.667" type="line"/>
			<point x="105.333" y="356.667" type="line"/>
		</contour>
		<contour>
			<point x="105.333" y="422.667" type="line"/>
			<point x="199" y="422.667" type="line"/>
			<point x="199" y="549.333" type="line"/>
			<point x="105.333" y="549.333" type="line"/>
		</contour>
	</outline>
</glyph>
<glyph name="cent" format="2">
	<unicode hex="00A2"/>
	<advance width="556"/>
	<outline>
		<contour>
			<point x="247" y="54.333" type="line"/>
			<point x="332.667" y="54.333" type="line"/>
			<point x="332.667" y="150" type="line"/>
			<point x="412.914" y="164.369"/>
			<point x="478.084" y="218.56"/>
			<point x="507.333" y="296.667" type="curve"/>
			<point x="404.667" y="296.667" type="line"/>
			<point x="366.319" y="252.648"/>
			<point x="330.992" y="234.667"/>
			<point x="283" y="234.667" type="curve" smooth="yes"/>
			<point x="201.49" y="234.667"/>
			<point x="138.333" y="298.846"/>
			<point x="138.333" y="381.667" type="curve" smooth="yes"/>
			<point x="138.333" y="465.41"/>
			<point x="199.739" y="527.667"/>
			<point x="282.333" y="527.667" type="curve" smooth="yes"/>
			<point x="336.478" y="527.667"/>
			<point x="381.237" y="502.491"/>
			<point x="408.667" y="456.333" type="curve"/>
			<point x="511.333" y="456.333" type="line"/>
			<point x="485.891" y="538.723"/>
			<point x="418.263" y="598.079"/>
			<point x="332.667" y="613" type="curve"/>
			<point x="332.667" y="709.667" type="line"/>
			<point x="247" y="709.667" type="line"/>
			<point x="247" y="613" type="line"/>
			<point x="125.34" y="594.7"/>
			<point x="44.667" y="502.667"/>
			<point x="44.667" y="381.667" type="curve" smooth="yes"/>
			<point x="44.667" y="261.093"/>
			<point x="129.192" y="164.534"/>
			<point x="247" y="150" type="curve"/>
		</contour>
	</outline>
</glyph>
<glyph name="sterling" format="2">
	<unicode hex="00A3"/>
	<advance width="603"/>
	<outline>
		<contour>
			<point x="53" y="0" type="line"/>
			<point x="329.667" y="0" type="line" smooth="yes"/>
			<point x="488.321" y="0"/>
			<point x="582.333" y="80.368"/>
			<point x="582.333" y="216" type="curve" smooth="yes"/>
			<point x="582.333" y="234.553"/>
			<point x="580.286" y="246.686"/>
			<point x="573.333" y="270" type="curve"/>
			<point x="481.333" y="270" type="line"/>
			<point x="486.866" y="247.763"/>
			<point x="488.667" y="235.144"/>
			<point x="488.667" y="219.333" type="curve" smooth="yes"/>
			<point x="488.667" y="134.779"/>
			<point x="433.38" y="86.35"/>
			<point x="336.739" y="86.35" type="curve" smooth="yes"/>
			<point x="296.667" y="86.35" type="line"/>
			<point x="313.668" y="126.272"/>
			<point x="320.333" y="156.06"/>
			<point x="320.333" y="189.333" type="curve" smooth="yes"/>
			<point x="320.333" y="239.306"/>
			<point x="301.706" y="284.67"/>
			<point x="261.667" y="334.667" type="curve"/>
			<point x="440.667" y="334.667" type="line"/>
			<point x="440.667" y="421" type="line"/>
			<point x="182.333" y="421" type="line"/>
			<point x="161.073" y="455.69"/>
			<point x="154.667" y="476.313"/>
			<point x="154.667" y="512.333" type="curve" smooth="yes"/>
			<point x="154.667" y="602.597"/>
			<point x="214.269" y="666.667"/>
			<point x="298.333" y="666.667" type="curve" smooth="yes"/>
			<point x="375.956" y="666.667"/>
			<point x="431.738" y="620.358"/>
			<point x="449.667" y="541" type="curve"/>
			<point x="540.667" y="541" type="line"/>
			<point x="527.665" y="666.698"/>
			<point x="429.303" y="752"/>
			<point x="297.333" y="752" type="curve" smooth="yes"/>
			<point x="161.359" y="752"/>
			<point x="61" y="650.691"/>
			<point x="61" y="513.333" type="curve" smooth="yes"/>
			<point x="61" y="480.228"/>
			<point x="66.064" y="457.17"/>
			<point x="81.333" y="421" type="curve"/>
			<point x="12" y="421" type="line"/>
			<point x="12" y="334.667" type="line"/>
			<point x="143.333" y="334.667" type="line"/>
			<point x="208.477" y="276.166"/>
			<point x="226.667" y="243.818"/>
			<point x="226.667" y="187.667" type="curve" smooth="yes"/>
			<point x="226.667" y="148.089"/>
			<point x="215.239" y="114.659"/>
			<point x="192" y="86.333" type="curve"/>
			<point x="53" y="86.333" type="line"/>
		</contour>
	</outline>
</glyph>
<glyph name="currency" format="2">
	<unicode hex="00A4"/>
	<advance width="556"/>
	<outline>
		<contour>
			<point x="91.333" y="88" type="line"/>
			<point x="134" y="130" type="line"/>
			<point x="183.337" y="97.331"/>
			<point x="224.671" y="84.333"/>
			<point x="277.667" y="84.333" type="curve" smooth="yes"/>
			<point x="330.669" y="84.333"/>
			<point x="370.349" y="96.688"/>
			<point x="422.667" y="130" type="curve"/>
			<point x="464.667" y="88" type="line"/>
			<point x="526.333" y="150" type="line"/>
			<point x="484.333" y="192.333" type="line"/>
			<point x="514.911" y="232.473"/>
			<point x="528.333" y="275.191"/>
			<point x="528.333" y="333" type="curve" smooth="yes"/>
			<point x="528.333" y="389.062"/>
			<point x="516.483" y="428.794"/>
			<point x="485.333" y="477.667" type="curve"/>
			<point x="526.667" y="520" type="line"/>
			<point x="465" y="583.667" type="line"/>
			<point x="421.333" y="541.333" type="line"/>
			<point x="377.678" y="570.356"/>
			<point x="331.64" y="584"/>
			<point x="277.333" y="584" type="curve" smooth="yes"/>
			<point x="224.756" y="584"/>
			<point x="185.074" y="571.927"/>
			<point x="135.333" y="540.667" type="curve"/>
			<point x="91.667" y="583.333" type="line"/>
			<point x="28.333" y="520.667" type="line"/>
			<point x="71.667" y="477.667" type="line"/>
			<point x="39.718" y="427.827"/>
			<point x="28.333" y="390.858"/>
			<point x="28.333" y="335.333" type="curve" smooth="yes"/>
			<point x="28.333" y="279.699"/>
			<point x="39.973" y="241.081"/>
			<point x="71" y="192.667" type="curve"/>
			<point x="29.667" y="151" type="line"/>
		</contour>
		<contour>
			<point x="115.667" y="335" type="curve" smooth="yes"/>
			<point x="115.667" y="426.294"/>
			<point x="186.297" y="497.333"/>
			<point x="277" y="497.333" type="curve" smooth="yes"/>
			<point x="372.176" y="497.333"/>
			<point x="440.333" y="429.159"/>
			<point x="440.333" y="334" type="curve" smooth="yes"/>
			<point x="440.333" y="242.881"/>
			<point x="370.214" y="172.333"/>
			<point x="279.667" y="172.333" type="curve" smooth="yes"/>
			<point x="186.785" y="172.333"/>
			<point x="115.667" y="242.881"/>
		</contour>
	</outline>
</glyph>
<glyph name="yen" format="2">
	<unicode hex="00A5"/>
	<advance width="556"/>
	<outline>
		<contour>
			<point x="38.333" y="220.333" type="line"/>
			<point x="243.667" y="220.333" type="line"/>
			<point x="243.667" y="0" type="line"/>
			<point x="336.667" y="0" type="line"/>
			<point x="336.667" y="220.333" type="line"/>
			<point x="539.667" y="220.333" type="line"/>
			<point x="539.667" y="294.333" type="line"/>
			<point x="354" y="294.333" type="line"/>
			<point x="405" y="390.667" type="line"/>
			<point x="544.333" y="390.667" type="line"/>
			<point x="544.333" y="464.667" type="line"/>
			<point x="445" y="464.667" type="line"/>
			<point x="590" y="739" type="line"/>
			<point x="488" y="739" type="line"/>
			<point x="290.333" y="350.667" type="line"/>
			<point x="89.667" y="739" type="line"/>
			<point x="-10.667" y="739" type="line"/>
			<point x="135" y="464.667" type="line"/>
			<point x="33.667" y="464.667" type="line"/>
			<point x="33.667" y="390.667" type="line"/>
			<point x="174.333" y="390.667" type="line"/>
			<point x="225.667" y="294.333" type="line"/>
			<point x="38.333" y="294.333" type="line"/>
		</contour>
	</outline>
</glyph>
<glyph name="section" format="2">
	<unicode hex="00A7"/>
	<advance width="597"/>
	<outline>
		<contour>
			<point x="89" y="61" type="line"/>
			<point x="95.405" y="-63.073"/>
			<point x="181.346" y="-146.333"/>
			<point x="303.333" y="-146.333" type="curve" smooth="yes"/>
			<point x="417.21" y="-146.333"/>
			<point x="500.333" y="-69.781"/>
			<point x="500.333" y="35" type="curve" smooth="yes"/>
			<point x="500.333" y="79.016"/>
			<point x="485.806" y="112.537"/>
			<point x="451.667" y="147.333" type="curve"/>
			<point x="500.292" y="183.969"/>
			<point x="527.333" y="234.954"/>
			<point x="527.333" y="290" type="curve" smooth="yes"/>
			<point x="527.333" y="350.298"/>
			<point x="492.207" y="399.383"/>
			<point x="425.667" y="431" type="curve" smooth="yes"/>
			<point x="265.667" y="507.333" type="line" smooth="yes"/>
			<point x="226.951" y="525.809"/>
			<point x="206" y="554.09"/>
			<point x="206" y="587.667" type="curve" smooth="yes"/>
			<point x="206" y="634.589"/>
			<point x="243.213" y="666.667"/>
			<point x="298" y="666.667" type="curve" smooth="yes"/>
			<point x="354.536" y="666.667"/>
			<point x="386.37" y="642.485"/>
			<point x="396.667" y="591.667" type="curve"/>
			<point x="486" y="591.667" type="line"/>
			<point x="475.973" y="690.578"/>
			<point x="404.416" y="752"/>
			<point x="300" y="752" type="curve" smooth="yes"/>
			<point x="194.326" y="752"/>
			<point x="118.333" y="683.32"/>
			<point x="118.333" y="588" type="curve" smooth="yes"/>
			<point x="118.333" y="549.051"/>
			<point x="128.062" y="521.953"/>
			<point x="153" y="491.667" type="curve"/>
			<point x="95.839" y="450.553"/>
			<point x="69.667" y="403.495"/>
			<point x="69.667" y="341.667" type="curve" smooth="yes"/>
			<point x="69.667" y="277.988"/>
			<point x="98.644" y="238.785"/>
			<point x="176" y="200.333" type="curve" smooth="yes"/>
			<point x="325.667" y="125.667" type="line" smooth="yes"/>
			<point x="390.192" y="93.57"/>
			<point x="412.667" y="69.57"/>
			<point x="412.667" y="33.333" type="curve" smooth="yes"/>
			<point x="412.667" y="-20.482"/>
			<point x="365.896" y="-61"/>
			<point x="303.667" y="-61" type="curve" smooth="yes"/>
			<point x="230.692" y="-61"/>
			<point x="183.01" y="-14.264"/>
			<point x="179" y="61" type="curve"/>
		</contour>
		<contour>
			<point x="392.333" y="193" type="curve"/>
			<point x="210" y="282.333" type="line" smooth="yes"/>
			<point x="171.278" y="301.37"/>
			<point x="154" y="322.765"/>
			<point x="154" y="351.333" type="curve" smooth="yes"/>
			<point x="154" y="384.846"/>
			<point x="172.145" y="416.856"/>
			<point x="205" y="440.333" type="curve"/>
			<point x="380" y="356.333" type="line" smooth="yes"/>
			<point x="422.795" y="335.707"/>
			<point x="440.667" y="312.397"/>
			<point x="440.667" y="279.333" type="curve" smooth="yes"/>
			<point x="440.667" y="247.677"/>
			<point x="422.007" y="214.339"/>
		</contour>
	</outline>
</glyph>
<glyph name="copyright" format="2">
	<unicode hex="00A9"/>
	<advance width="762"/>
	<outline>
		<contour>
			<point x="169.667" y="372" type="curve" smooth="yes"/>
			<point x="169.667" y="250.033"/>
			<point x="267.636" y="151"/>
			<point x="388.333" y="151" type="curve" smooth="yes"/>
			<point x="476.741" y="151"/>
			<point x="552.675" y="200.741"/>
			<point x="587.333" y="280.667" type="curve"/>
			<point x="500.333" y="280.667" type="line"/>
			<point x="471.795" y="240.131"/>
			<point x="433.841" y="219.333"/>
			<point x="388.333" y="219.333" type="curve" smooth="yes"/>
			<point x="310.08" y="219.333"/>
			<point x="245.333" y="288.576"/>
			<point x="245.333" y="372.333" type="curve" smooth="yes"/>
			<point x="245.333" y="456.379"/>
			<point x="309.059" y="523.333"/>
			<point x="389" y="523.333" type="curve" smooth="yes"/>
			<point x="435.794" y="523.333"/>
			<point x="474.846" y="500.843"/>
			<point x="503" y="458.667" type="curve"/>
			<point x="589.333" y="458.667" type="line"/>
			<point x="555.949" y="539.719"/>
			<point x="478.608" y="591.667"/>
			<point x="388.667" y="591.667" type="curve" smooth="yes"/>
			<point x="266.351" y="591.667"/>
			<point x="169.667" y="494.682"/>
		</contour>
		<contour>
			<point x="-2.667" y="369" type="curve" smooth="yes"/>
			<point x="-2.667" y="158.035"/>
			<point x="168.965" y="-13"/>
			<point x="380.667" y="-13" type="curve" smooth="yes"/>
			<point x="592.11" y="-13"/>
			<point x="763.667" y="158.109"/>
			<point x="763.667" y="369" type="curve" smooth="yes"/>
			<point x="763.667" y="578.776"/>
			<point x="592.554" y="752"/>
			<point x="385.333" y="752" type="curve" smooth="yes"/>
			<point x="168.27" y="752"/>
			<point x="-2.667" y="583.267"/>
		</contour>
		<contour>
			<point x="61.333" y="369.333" type="curve" smooth="yes"/>
			<point x="61.333" y="545.58"/>
			<point x="204.248" y="691.667"/>
			<point x="376.667" y="691.667" type="curve" smooth="yes"/>
			<point x="557.426" y="691.667"/>
			<point x="699.667" y="549.574"/>
			<point x="699.667" y="369" type="curve" smooth="yes"/>
			<point x="699.667" y="192.132"/>
			<point x="556.464" y="48.333"/>
			<point x="380.333" y="48.333" type="curve" smooth="yes"/>
			<point x="204.385" y="48.333"/>
			<point x="61.333" y="192.281"/>
		</contour>
	</outline>
</glyph>
<glyph name="ordfeminine" format="2">
	<unicode hex="00AA"/>
	<advance width="373"/>
	<outline>
		<contour>
			<point x="281.333" y="445.667" type="line"/>
			<point x="335.333" y="445.667" type="line"/>
			<point x="335.333" y="739" type="line"/>
			<point x="281.333" y="739" type="line"/>
			<point x="281.333" y="696" type="line"/>
			<point x="260.104" y="727.197"/>
			<point x="221.493" y="746.667"/>
			<point x="181" y="746.667" type="curve" smooth="yes"/>
			<point x="97.683" y="746.667"/>
			<point x="30.667" y="678.338"/>
			<point x="30.667" y="593.333" type="curve" smooth="yes"/>
			<point x="30.667" y="507.687"/>
			<point x="97.318" y="437.667"/>
			<point x="178.667" y="437.667" type="curve" smooth="yes"/>
			<point x="221.096" y="437.667"/>
			<point x="253.067" y="453.749"/>
			<point x="281.333" y="489.333" type="curve"/>
		</contour>
		<contour>
			<point x="185" y="495" type="curve" smooth="yes"/>
			<point x="134.652" y="495"/>
			<point x="91.333" y="540.016"/>
			<point x="91.333" y="592.333" type="curve" smooth="yes"/>
			<point x="91.333" y="643.834"/>
			<point x="134.83" y="689.333"/>
			<point x="184" y="689.333" type="curve" smooth="yes"/>
			<point x="235.798" y="689.333"/>
			<point x="277.333" y="645.862"/>
			<point x="277.333" y="591.667" type="curve" smooth="yes"/>
			<point x="277.333" y="539.319"/>
			<point x="234.986" y="495"/>
		</contour>
		<contour>
			<point x="31.667" y="316" type="line"/>
			<point x="340.667" y="316" type="line"/>
			<point x="340.667" y="373.333" type="line"/>
			<point x="31.667" y="373.333" type="line"/>
		</contour>
	</outline>
</glyph>
<glyph name="guillemotleft" format="2">
	<unicode hex="00AB"/>
	<advance width="437"/>
	<outline>
		<contour>
			<point x="163.333" y="102" type="line"/>
			<point x="202.667" y="165" type="line"/>
			<point x="117.667" y="296.333" type="line"/>
			<point x="202.667" y="426.667" type="line"/>
			<point x="163.333" y="489" type="line"/>
			<point x="41.481" y="314.195" type="line"/>
			<point x="41.667" y="277.667" type="line"/>
		</contour>
		<contour>
			<point x="349.667" y="102" type="line"/>
			<point x="389" y="165" type="line"/>
			<point x="304" y="296.333" type="line"/>
			<point x="389" y="426.667" type="line"/>
			<point x="349.667" y="489" type="line"/>
			<point x="226.513" y="314.195" type="line"/>
			<point x="226.667" y="277.667" type="line"/>
		</contour>
	</outline>
</glyph>
<glyph name="logicalnot" format="2">
	<unicode hex="00AC"/>
	<advance width="604"/>
	<outline>
		<contour>
			<point x="48.667" y="361.667" type="line"/>
			<point x="466.667" y="361.667" type="line"/>
			<point x="466.667" y="159.333" type="line"/>
			<point x="552.667" y="159.333" type="line"/>
			<point x="552.667" y="448.333" type="line"/>
			<point x="48.667" y="448.333" type="line"/>
		</contour>
	</outline>
</glyph>
<glyph name="registered" format="2">
	<unicode hex="00AE"/>
	<advance width="762"/>
	<outline>
		<contour>
			<point x="249" y="160" type="line"/>
			<point x="323.333" y="160" type="line"/>
			<point x="323.333" y="339.333" type="line"/>
			<point x="452" y="160" type="line"/>
			<point x="543" y="160" type="line"/>
			<point x="425" y="313.667" type="line"/>
			<point x="501.003" y="324.667"/>
			<point x="542.333" y="371.002"/>
			<point x="542.333" y="444.333" type="curve" smooth="yes"/>
			<point x="542.333" y="534.394"/>
			<point x="485.762" y="583"/>
			<point x="380.667" y="583" type="curve" smooth="yes"/>
			<point x="249" y="583" type="line"/>
		</contour>
		<contour>
			<point x="323.333" y="367.333" type="line"/>
			<point x="323.333" y="513.333" type="line"/>
			<point x="380.667" y="513.333" type="line" smooth="yes"/>
			<point x="433.86" y="513.333"/>
			<point x="466.667" y="486.116"/>
			<point x="466.667" y="442" type="curve" smooth="yes"/>
			<point x="466.667" y="393.615"/>
			<point x="430.927" y="367.333"/>
			<point x="365" y="367.333" type="curve" smooth="yes"/>
		</contour>
		<contour>
			<point x="-2.667" y="369" type="curve" smooth="yes"/>
			<point x="-2.667" y="158.035"/>
			<point x="168.965" y="-13"/>
			<point x="380.667" y="-13" type="curve" smooth="yes"/>
			<point x="592.11" y="-13"/>
			<point x="763.667" y="158.109"/>
			<point x="763.667" y="369" type="curve" smooth="yes"/>
			<point x="763.667" y="578.776"/>
			<point x="592.554" y="752"/>
			<point x="385.333" y="752" type="curve" smooth="yes"/>
			<point x="168.27" y="752"/>
			<point x="-2.667" y="583.267"/>
		</contour>
		<contour>
			<point x="61.333" y="369.333" type="curve" smooth="yes"/>
			<point x="61.333" y="545.58"/>
			<point x="204.248" y="691.667"/>
			<point x="376.667" y="691.667" type="curve" smooth="yes"/>
			<point x="557.426" y="691.667"/>
			<point x="699.667" y="549.574"/>
			<point x="699.667" y="369" type="curve" smooth="yes"/>
			<point x="699.667" y="192.132"/>
			<point x="556.464" y="48.333"/>
			<point x="380.333" y="48.333" type="curve" smooth="yes"/>
			<point x="204.385" y="48.333"/>
			<point x="61.333" y="192.281"/>
		</contour>
	</outline>
</glyph>
<glyph name="macron" format="2">
	<unicode hex="00AF"/>
	<advance width="458"/>
	<outline>
		<contour>
			<point x="70.667" y="644.667" type="line"/>
			<point x="387.667" y="644.667" type="line"/>
			<point x="387.667" y="720.667" type="line"/>
			<point x="70.667" y="720.667" type="line"/>
		</contour>
	</outline>
</glyph>
<glyph name="degree" format="2">
	<unicode hex="00B0"/>
	<advance width="400"/>
	<outline>
		<contour>
			<point x="200" y="380" type="curve" smooth="yes"/>
			<point x="284.157" y="380"/>
			<point x="350" y="447.16"/>
			<point x="350" y="533" type="curve" smooth="yes"/>
			<point x="350" y="618.966"/>
			<point x="286.033" y="686"/>
			<point x="204" y="686" type="curve" smooth="yes"/>
			<point x="117.441" y="686"/>
			<point x="50" y="619.435"/>
			<point x="50" y="534" type="curve" smooth="yes"/>
			<point x="50" y="447.88"/>
			<point x="116.117" y="380"/>
		</contour>
		<contour>
			<point x="200" y="437" type="curve" smooth="yes"/>
			<point x="148.052" y="437"/>
			<point x="106" y="479.947"/>
			<point x="106" y="533" type="curve" smooth="yes"/>
			<point x="106" y="585.553"/>
			<point x="148.542" y="629"/>
			<point x="200" y="629" type="curve" smooth="yes"/>
			<point x="252.156" y="629"/>
			<point x="293" y="586.839"/>
			<point x="293" y="533" type="curve" smooth="yes"/>
			<point x="293" y="479.161"/>
			<point x="252.156" y="437"/>
		</contour>
	</outline>
</glyph>
<glyph name="plusminus" format="2">
	<unicode hex="00B1"/>
	<advance width="604"/>
	<outline>
		<contour>
			<point x="50" y="310" type="line"/>
			<point x="256.667" y="310" type="line"/>
			<point x="256.667" y="141" type="line"/>
			<point x="348" y="141" type="line"/>
			<point x="348" y="310" type="line"/>
			<point x="554" y="310" type="line"/>
			<point x="554" y="398.667" type="line"/>
			<point x="348" y="398.667" type="line"/>
			<point x="348" y="607.667" type="line"/>
			<point x="256.667" y="607.667" type="line"/>
			<point x="256.667" y="398.667" type="line"/>
			<point x="50" y="398.667" type="line"/>
		</contour>
		<contour>
			<point x="50" y="0" type="line"/>
			<point x="554" y="0" type="line"/>
			<point x="554" y="88.667" type="line"/>
			<point x="50" y="88.667" type="line"/>
		</contour>
	</outline>
</glyph>
<glyph name="twosuperior" format="2">
	<unicode hex="00B2"/>
	<advance width="333"/>
	<outline>
		<contour>
			<point x="12.333" y="290.667" type="line"/>
			<point x="320" y="290.667" type="line"/>
			<point x="320" y="354" type="line"/>
			<point x="115" y="354" type="line"/>
			<point x="235" y="459.667" type="line" smooth="yes"/>
			<point x="296.868" y="513.76"/>
			<point x="322" y="555.602"/>
			<point x="322" y="604.333" type="curve" smooth="yes"/>
			<point x="322" y="684.464"/>
			<point x="255.53" y="747"/>
			<point x="170.333" y="747" type="curve" smooth="yes"/>
			<point x="73.175" y="747"/>
			<point x="14" y="684.799"/>
			<point x="14" y="582.667" type="curve"/>
			<point x="83" y="582.667" type="line"/>
			<point x="83.331" y="647.497"/>
			<point x="114.191" y="684"/>
			<point x="168.667" y="684" type="curve" smooth="yes"/>
			<point x="214.896" y="684"/>
			<point x="252" y="649.431"/>
			<point x="252" y="606.333" type="curve" smooth="yes"/>
			<point x="252" y="574.149"/>
			<point x="237.605" y="553.148"/>
			<point x="177.667" y="498.667" type="curve" smooth="yes"/>
			<point x="12.333" y="349.333" type="line"/>
		</contour>
	</outline>
</glyph>
<glyph name="threesuperior" format="2">
	<unicode hex="00B3"/>
	<advance width="333"/>
	<outline>
		<contour>
			<point x="9.667" y="437.667" type="line"/>
			<point x="14.72" y="342.633"/>
			<point x="75.744" y="282.667"/>
			<point x="167" y="282.667" type="curve" smooth="yes"/>
			<point x="253.382" y="282.667"/>
			<point x="322.667" y="348.714"/>
			<point x="322.667" y="431" type="curve" smooth="yes"/>
			<point x="322.667" y="481.845"/>
			<point x="299.156" y="521.79"/>
			<point x="254" y="547.667" type="curve"/>
			<point x="282.133" y="572.103"/>
			<point x="292.667" y="593.853"/>
			<point x="292.667" y="627" type="curve" smooth="yes"/>
			<point x="292.667" y="694.863"/>
			<point x="238.145" y="746.667"/>
			<point x="166.667" y="746.667" type="curve" smooth="yes"/>
			<point x="92" y="746.667"/>
			<point x="43.761" y="697.819"/>
			<point x="40.667" y="619.333" type="curve"/>
			<point x="111" y="619.333" type="line"/>
			<point x="112.685" y="661.674"/>
			<point x="131.534" y="684"/>
			<point x="166.333" y="684" type="curve" smooth="yes"/>
			<point x="198.698" y="684"/>
			<point x="222.667" y="661.301"/>
			<point x="222.667" y="630.667" type="curve" smooth="yes"/>
			<point x="222.667" y="595.514"/>
			<point x="195.468" y="576.68"/>
			<point x="143.729" y="576.68" type="curve" smooth="yes"/>
			<point x="127.667" y="576.68" type="line"/>
			<point x="127.667" y="513.333" type="line"/>
			<point x="139.106" y="513.333" type="line" smooth="yes"/>
			<point x="212.217" y="513.333"/>
			<point x="253" y="483.025"/>
			<point x="253" y="428.667" type="curve" smooth="yes"/>
			<point x="253" y="383.189"/>
			<point x="213.85" y="345.667"/>
			<point x="166.333" y="345.667" type="curve" smooth="yes"/>
			<point x="116.659" y="345.667"/>
			<point x="83.918" y="380.478"/>
			<point x="79.667" y="437.667" type="curve"/>
		</contour>
	</outline>
</glyph>
<glyph name="acute" format="2">
	<unicode hex="00B4"/>
	<advance width="385"/>
	<outline>
		<contour>
			<point x="110.333" y="611" type="line"/>
			<point x="314.667" y="727" type="line"/>
			<point x="274" y="796.333" type="line"/>
			<point x="70.667" y="674.333" type="line"/>
		</contour>
	</outline>
</glyph>
<glyph name="mu" format="2">
	<unicode hex="00B5"/>
	<advance width="606"/>
	<outline>
		<contour>
			<point x="60" y="-189.667" type="line"/>
			<point x="153.667" y="-189.667" type="line"/>
			<point x="153.667" y="74" type="line"/>
			<point x="190.131" y="16.451"/>
			<point x="241.243" y="-13"/>
			<point x="304.667" y="-13" type="curve" smooth="yes"/>
			<point x="373.238" y="-13"/>
			<point x="419.387" y="13.857"/>
			<point x="455.333" y="74.333" type="curve"/>
			<point x="455.333" y="0" type="line"/>
			<point x="545.667" y="0" type="line"/>
			<point x="545.667" y="549.333" type="line"/>
			<point x="452" y="549.333" type="line"/>
			<point x="452" y="275" type="line" smooth="yes"/>
			<point x="452" y="205.966"/>
			<point x="444.453" y="166.32"/>
			<point x="425.667" y="136" type="curve" smooth="yes"/>
			<point x="400.626" y="96.295"/>
			<point x="355.612" y="72.333"/>
			<point x="306" y="72.333" type="curve" smooth="yes"/>
			<point x="266.034" y="72.333"/>
			<point x="226.277" y="90.157"/>
			<point x="197" y="121.333" type="curve" smooth="yes"/>
			<point x="161.919" y="157.355"/>
			<point x="153.667" y="185.644"/>
			<point x="153.667" y="275" type="curve" smooth="yes"/>
			<point x="153.667" y="549.333" type="line"/>
			<point x="60" y="549.333" type="line"/>
		</contour>
	</outline>
</glyph>
<glyph name="paragraph" format="2">
	<unicode hex="00B6"/>
	<advance width="576"/>
	<outline>
		<contour>
			<point x="231.667" y="-131.333" type="line"/>
			<point x="315.333" y="-131.333" type="line"/>
			<point x="315.333" y="658.667" type="line"/>
			<point x="419.333" y="658.667" type="line"/>
			<point x="419.333" y="-131.333" type="line"/>
			<point x="503" y="-131.333" type="line"/>
			<point x="503" y="739" type="line"/>
			<point x="276.333" y="739" type="line" smooth="yes"/>
			<point x="209.453" y="739"/>
			<point x="163.291" y="729.707"/>
			<point x="128.667" y="709" type="curve" smooth="yes"/>
			<point x="70.828" y="676.293"/>
			<point x="37" y="615.284"/>
			<point x="37" y="543.667" type="curve" smooth="yes"/>
			<point x="37" y="431.772"/>
			<point x="112.577" y="355.314"/>
			<point x="231.667" y="346.667" type="curve"/>
		</contour>
	</outline>
</glyph>
<glyph name="periodcentered" format="2">
	<unicode hex="00B7"/>
	<advance width="278"/>
	<outline>
		<contour>
			<point x="92" y="252.667" type="line"/>
			<point x="185.667" y="252.667" type="line"/>
			<point x="185.667" y="381" type="line"/>
			<point x="92" y="381" type="line"/>
		</contour>
	</outline>
</glyph>
<glyph name="cedilla" format="2">
	<unicode hex="00B8"/>
	<advance width="324"/>
	<outline>
		<contour>
			<point x="70.667" y="-148.667" type="line"/>
			<point x="80.699" y="-196.813"/>
			<point x="115.144" y="-225.667"/>
			<point x="162.667" y="-225.667" type="curve" smooth="yes"/>
			<point x="216.198" y="-225.667"/>
			<point x="253.333" y="-186.479"/>
			<point x="253.333" y="-130" type="curve" smooth="yes"/>
			<point x="253.333" y="-80.128"/>
			<point x="218.809" y="-43"/>
			<point x="172.333" y="-43" type="curve" smooth="yes"/>
			<point x="162.631" y="-43"/>
			<point x="156.002" y="-44.605"/>
			<point x="140.667" y="-50.667" type="curve"/>
			<point x="160.333" y="0" type="line"/>
			<point x="119" y="0" type="line"/>
			<point x="83.667" y="-88.333" type="line"/>
			<point x="120.333" y="-108.333" type="line"/>
			<point x="134.788" y="-89.778"/>
			<point x="145.532" y="-83.333"/>
			<point x="162" y="-83.333" type="curve" smooth="yes"/>
			<point x="187.096" y="-83.333"/>
			<point x="205.333" y="-104.107"/>
			<point x="205.333" y="-132.667" type="curve" smooth="yes"/>
			<point x="205.333" y="-159.219"/>
			<point x="187.475" y="-178.667"/>
			<point x="163" y="-178.667" type="curve" smooth="yes"/>
			<point x="142.349" y="-178.667"/>
			<point x="127.459" y="-167.038"/>
			<point x="120.333" y="-145.333" type="curve"/>
		</contour>
	</outline>
</glyph>
<glyph name="onesuperior" format="2">
	<unicode hex="00B9"/>
	<advance width="333"/>
	<outline>
		<contour>
			<point x="162" y="290.667" type="line"/>
			<point x="231.333" y="290.667" type="line"/>
			<point x="231.333" y="739" type="line"/>
			<point x="92.333" y="739" type="line"/>
			<point x="92.333" y="675.667" type="line"/>
			<point x="162" y="675.667" type="line"/>
		</contour>
	</outline>
</glyph>
<glyph name="ordmasculine" format="2">
	<unicode hex="00BA"/>
	<advance width="368"/>
	<outline>
		<contour>
			<point x="184" y="442" type="curve" smooth="yes"/>
			<point x="268.164" y="442"/>
			<point x="337" y="510.831"/>
			<point x="337" y="595" type="curve" smooth="yes"/>
			<point x="337" y="677.35"/>
			<point x="267.984" y="746.667"/>
			<point x="186" y="746.667" type="curve" smooth="yes"/>
			<point x="100.259" y="746.667"/>
			<point x="31.333" y="678.927"/>
			<point x="31.333" y="594.667" type="curve" smooth="yes"/>
			<point x="31.333" y="510.831"/>
			<point x="100.167" y="442"/>
		</contour>
		<contour>
			<point x="184.667" y="499.333" type="curve" smooth="yes"/>
			<point x="131.659" y="499.333"/>
			<point x="91" y="541.01"/>
			<point x="91" y="595.333" type="curve" smooth="yes"/>
			<point x="91" y="647.674"/>
			<point x="132.34" y="690.667"/>
			<point x="182.667" y="690.667" type="curve" smooth="yes"/>
			<point x="235.625" y="690.667"/>
			<point x="277.333" y="648.376"/>
			<point x="277.333" y="594.667" type="curve" smooth="yes"/>
			<point x="277.333" y="541.086"/>
			<point x="236.75" y="499.333"/>
		</contour>
		<contour>
			<point x="31.333" y="316.333" type="line"/>
			<point x="337" y="316.333" type="line"/>
			<point x="337" y="373.667" type="line"/>
			<point x="31.333" y="373.667" type="line"/>
		</contour>
	</outline>
</glyph>
<glyph name="onequarter" format="2">
	<unicode hex="00BC"/>
	<advance width="834"/>
	<outline>
		<contour>
			<point x="154" y="290.667" type="line"/>
			<point x="223.333" y="290.667" type="line"/>
			<point x="223.333" y="739" type="line"/>
			<point x="84.333" y="739" type="line"/>
			<point x="84.333" y="675.667" type="line"/>
			<point x="154" y="675.667" type="line"/>
		</contour>
		<contour>
			<point x="199.667" y="0" type="line"/>
			<point x="267.333" y="0" type="line"/>
			<point x="597.333" y="739" type="line"/>
			<point x="529" y="739" type="line"/>
		</contour>
		<contour>
			<point x="467.667" y="74.667" type="line"/>
			<point x="686.333" y="74.667" type="line"/>
			<point x="686.333" y="0" type="line"/>
			<point x="755.667" y="0" type="line"/>
			<point x="755.667" y="74.667" type="line"/>
			<point x="799.667" y="74.667" type="line"/>
			<point x="799.667" y="136.667" type="line"/>
			<point x="755.667" y="136.667" type="line"/>
			<point x="755.667" y="448.333" type="line"/>
			<point x="687.667" y="448.333" type="line"/>
			<point x="467.667" y="130.333" type="line"/>
		</contour>
		<contour>
			<point x="548.333" y="136.667" type="line"/>
			<point x="686.333" y="338" type="line"/>
			<point x="686.333" y="136.667" type="line"/>
		</contour>
	</outline>
</glyph>
<glyph name="onehalf" format="2">
	<unicode hex="00BD"/>
	<advance width="834"/>
	<outline>
		<contour>
			<point x="149.333" y="290.667" type="line"/>
			<point x="218.667" y="290.667" type="line"/>
			<point x="218.667" y="739" type="line"/>
			<point x="79.667" y="739" type="line"/>
			<point x="79.667" y="675.667" type="line"/>
			<point x="149.333" y="675.667" type="line"/>
		</contour>
		<contour>
			<point x="188" y="0" type="line"/>
			<point x="255.667" y="0" type="line"/>
			<point x="585.667" y="739" type="line"/>
			<point x="517.333" y="739" type="line"/>
		</contour>
		<contour>
			<point x="494" y="0" type="line"/>
			<point x="801.667" y="0" type="line"/>
			<point x="801.667" y="63.333" type="line"/>
			<point x="596.667" y="63.333" type="line"/>
			<point x="716.667" y="169" type="line" smooth="yes"/>
			<point x="778.535" y="223.094"/>
			<point x="803.667" y="264.935"/>
			<point x="803.667" y="313.667" type="curve" smooth="yes"/>
			<point x="803.667" y="393.797"/>
			<point x="737.197" y="456.333"/>
			<point x="652" y="456.333" type="curve" smooth="yes"/>
			<point x="554.909" y="456.333"/>
			<point x="495.667" y="394.063"/>
			<point x="495.667" y="292" type="curve"/>
			<point x="564.667" y="292" type="line"/>
			<point x="564.998" y="356.809"/>
			<point x="595.876" y="393.333"/>
			<point x="650.333" y="393.333" type="curve" smooth="yes"/>
			<point x="696.562" y="393.333"/>
			<point x="733.667" y="358.765"/>
			<point x="733.667" y="315.667" type="curve" smooth="yes"/>
			<point x="733.667" y="284.619"/>
			<point x="716.983" y="260.376"/>
			<point x="659.333" y="208" type="curve" smooth="yes"/>
			<point x="494" y="58.667" type="line"/>
		</contour>
	</outline>
</glyph>
<glyph name="threequarters" format="2">
	<unicode hex="00BE"/>
	<advance width="834"/>
	<outline>
		<contour>
			<point x="10.667" y="437.667" type="line"/>
			<point x="13.981" y="344.568"/>
			<point x="76.866" y="282.667"/>
			<point x="168" y="282.667" type="curve" smooth="yes"/>
			<point x="254.382" y="282.667"/>
			<point x="323.667" y="348.714"/>
			<point x="323.667" y="431" type="curve" smooth="yes"/>
			<point x="323.667" y="481.845"/>
			<point x="300.156" y="521.79"/>
			<point x="255" y="547.667" type="curve"/>
			<point x="283.133" y="572.103"/>
			<point x="293.667" y="593.853"/>
			<point x="293.667" y="627" type="curve" smooth="yes"/>
			<point x="293.667" y="694.863"/>
			<point x="239.145" y="746.667"/>
			<point x="167.667" y="746.667" type="curve" smooth="yes"/>
			<point x="92.992" y="746.667"/>
			<point x="44.762" y="697.827"/>
			<point x="41.667" y="619.333" type="curve"/>
			<point x="112" y="619.333" type="line"/>
			<point x="113.685" y="661.674"/>
			<point x="132.534" y="684"/>
			<point x="167.333" y="684" type="curve" smooth="yes"/>
			<point x="199.698" y="684"/>
			<point x="223.667" y="661.301"/>
			<point x="223.667" y="630.667" type="curve" smooth="yes"/>
			<point x="223.667" y="595.378"/>
			<point x="196.291" y="576.361"/>
			<point x="144.351" y="576.361" type="curve" smooth="yes"/>
			<point x="128.667" y="576.361" type="line"/>
			<point x="128.667" y="513.298" type="line"/>
			<point x="146.517" y="513.298" type="line" smooth="yes"/>
			<point x="213.073" y="513.298"/>
			<point x="254" y="481.088"/>
			<point x="254" y="428.667" type="curve" smooth="yes"/>
			<point x="254" y="383.189"/>
			<point x="214.85" y="345.667"/>
			<point x="167.333" y="345.667" type="curve" smooth="yes"/>
			<point x="117.659" y="345.667"/>
			<point x="84.918" y="380.478"/>
			<point x="80.667" y="437.667" type="curve"/>
		</contour>
		<contour>
			<point x="243.333" y="0" type="line"/>
			<point x="311" y="0" type="line"/>
			<point x="641" y="739" type="line"/>
			<point x="572.667" y="739" type="line"/>
		</contour>
		<contour>
			<point x="482.667" y="74.667" type="line"/>
			<point x="701.333" y="74.667" type="line"/>
			<point x="701.333" y="0" type="line"/>
			<point x="770.667" y="0" type="line"/>
			<point x="770.667" y="74.667" type="line"/>
			<point x="814.667" y="74.667" type="line"/>
			<point x="814.667" y="136.667" type="line"/>
			<point x="770.667" y="136.667" type="line"/>
			<point x="770.667" y="448.333" type="line"/>
			<point x="702.667" y="448.333" type="line"/>
			<point x="482.667" y="130.333" type="line"/>
		</contour>
		<contour>
			<point x="563.333" y="136.667" type="line"/>
			<point x="701.333" y="338" type="line"/>
			<point x="701.333" y="136.667" type="line"/>
		</contour>
	</outline>
</glyph>
<glyph name="questiondown" format="2">
	<unicode hex="00BF"/>
	<advance width="567"/>
	<outline>
		<contour>
			<point x="422.333" y="37.333" type="line"/>
			<point x="414.671" y="-61.533"/>
			<point x="366.364" y="-114"/>
			<point x="283" y="-114" type="curve" smooth="yes"/>
			<point x="205.338" y="-114"/>
			<point x="149.333" y="-59.671"/>
			<point x="149.333" y="15.667" type="curve" smooth="yes"/>
			<point x="149.333" y="58.438"/>
			<point x="164.876" y="85.447"/>
			<point x="220.333" y="137.333" type="curve" smooth="yes"/>
			<point x="302.937" y="212.845"/>
			<point x="331" y="264.666"/>
			<point x="331" y="343.333" type="curve" smooth="yes"/>
			<point x="331" y="358.333" type="line"/>
			<point x="239.894" y="358.333" type="line"/>
			<point x="239.894" y="349.537" type="line" smooth="yes"/>
			<point x="239.894" y="289.929"/>
			<point x="218.843" y="253.758"/>
			<point x="149.667" y="191.333" type="curve" smooth="yes"/>
			<point x="79.911" y="128.585"/>
			<point x="55.667" y="83.91"/>
			<point x="55.667" y="18.333" type="curve" smooth="yes"/>
			<point x="55.667" y="-109.31"/>
			<point x="150.973" y="-202.667"/>
			<point x="281.333" y="-202.667" type="curve" smooth="yes"/>
			<point x="418.902" y="-202.667"/>
			<point x="507.619" y="-110.877"/>
			<point x="513.333" y="37.333" type="curve"/>
		</contour>
		<contour>
			<point x="238" y="422.667" type="line"/>
			<point x="331.667" y="422.667" type="line"/>
			<point x="331.667" y="549.333" type="line"/>
			<point x="238" y="549.333" type="line"/>
		</contour>
	</outline>
</glyph>
<glyph name="Agrave" format="2">
	<unicode hex="00C0"/>
	<advance width="740"/>
	<outline>
		<contour>
			<point x="9.667" y="0" type="line"/>
			<point x="112" y="0" type="line"/>
			<point x="211.333" y="229.667" type="line"/>
			<point x="528.333" y="229.667" type="line"/>
			<point x="626" y="0" type="line"/>
			<point x="730.333" y="0" type="line"/>
			<point x="415" y="739" type="line"/>
			<point x="323.667" y="739" type="line"/>
		</contour>
		<contour>
			<point x="246.667" y="318" type="line"/>
			<point x="369.667" y="618.667" type="line"/>
			<point x="490.667" y="318" type="line"/>
		</contour>
		<contour>
			<point x="213.667" y="904" type="line"/>
			<point x="420.333" y="790.667" type="line"/>
			<point x="460" y="854.333" type="line"/>
			<point x="254" y="972" type="line"/>
		</contour>
	</outline>
	<anchor name="Anchor-0" x="370" y="996.333"/>
</glyph>
<glyph name="Atilde" format="2">
	<unicode hex="00C3"/>
	<advance width="740"/>
	<outline>
		<contour>
			<point x="9.667" y="0" type="line"/>
			<point x="112" y="0" type="line"/>
			<point x="211.333" y="229.667" type="line"/>
			<point x="528.333" y="229.667" type="line"/>
			<point x="626" y="0" type="line"/>
			<point x="730.333" y="0" type="line"/>
			<point x="415" y="739" type="line"/>
			<point x="323.667" y="739" type="line"/>
		</contour>
		<contour>
			<point x="246.667" y="318" type="line"/>
			<point x="369.667" y="618.667" type="line"/>
			<point x="490.667" y="318" type="line"/>
		</contour>
		<contour>
			<point x="260.333" y="813.667" type="line"/>
			<point x="284.316" y="834.541"/>
			<point x="301.472" y="843.333"/>
			<point x="323.667" y="843.333" type="curve" smooth="yes"/>
			<point x="336.619" y="843.333"/>
			<point x="349.175" y="840.277"/>
			<point x="368.333" y="832.667" type="curve" smooth="yes"/>
			<point x="402.883" y="818.05"/>
			<point x="418.061" y="813.667"/>
			<point x="432" y="813.667" type="curve" smooth="yes"/>
			<point x="465.371" y="813.667"/>
			<point x="502.496" y="834.077"/>
			<point x="524" y="864.667" type="curve"/>
			<point x="484" y="922.333" type="line"/>
			<point x="463.202" y="899.882"/>
			<point x="445.2" y="890.333"/>
			<point x="423.667" y="890.333" type="curve" smooth="yes"/>
			<point x="412.98" y="890.333"/>
			<point x="393.968" y="895.623"/>
			<point x="376" y="903.333" type="curve" smooth="yes"/>
			<point x="344.464" y="916.904"/>
			<point x="335.456" y="919.333"/>
			<point x="316.667" y="919.333" type="curve" smooth="yes"/>
			<point x="278.771" y="919.333"/>
			<point x="247.41" y="903.422"/>
			<point x="220.333" y="871" type="curve"/>
		</contour>
	</outline>
	<anchor name="Anchor-0" x="370" y="996.333"/>
</glyph>
<glyph name="Aring" format="2">
	<unicode hex="00C5"/>
	<advance width="740"/>
	<outline>
		<contour>
			<point x="9.667" y="0" type="line"/>
			<point x="112" y="0" type="line"/>
			<point x="211.333" y="229.667" type="line"/>
			<point x="528.333" y="229.667" type="line"/>
			<point x="626" y="0" type="line"/>
			<point x="730.333" y="0" type="line"/>
			<point x="415" y="739" type="line"/>
			<point x="323.667" y="739" type="line"/>
		</contour>
		<contour>
			<point x="246.667" y="318" type="line"/>
			<point x="369.667" y="618.667" type="line"/>
			<point x="490.667" y="318" type="line"/>
		</contour>
		<contour>
			<point x="308.667" y="850.333" type="curve" smooth="yes"/>
			<point x="327.667" y="816.851"/>
			<point x="370.484" y="805"/>
			<point x="404.333" y="824" type="curve" smooth="yes"/>
			<point x="438.333" y="842.758"/>
			<point x="450.243" y="885.667"/>
			<point x="431.667" y="919.667" type="curve" smooth="yes"/>
			<point x="412.408" y="953.183"/>
			<point x="369.486" y="965.74"/>
			<point x="336.333" y="946.667" type="curve" smooth="yes"/>
			<point x="301.667" y="927.667"/>
			<point x="289.667" y="885"/>
		</contour>
		<contour>
			<point x="324" y="884.667" type="curve" smooth="yes"/>
			<point x="324" y="910.284"/>
			<point x="344.298" y="931.333"/>
			<point x="369" y="931.333" type="curve" smooth="yes"/>
			<point x="395.259" y="931.333"/>
			<point x="416" y="910.739"/>
			<point x="416" y="884.667" type="curve" smooth="yes"/>
			<point x="416" y="859.85"/>
			<point x="395.18" y="839.333"/>
			<point x="370" y="839.333" type="curve" smooth="yes"/>
			<point x="344.48" y="839.333"/>
			<point x="324" y="859.516"/>
		</contour>
	</outline>
	<anchor name="Anchor-0" x="370" y="1006.33"/>
</glyph>
<glyph name="AE" format="2">
	<unicode hex="00C6"/>
	<advance width="956"/>
	<outline>
		<contour>
			<point x="8" y="0" type="line"/>
			<point x="121.667" y="0" type="line"/>
			<point x="274.333" y="230.333" type="line"/>
			<point x="519.667" y="230.333" type="line"/>
			<point x="519.667" y="0" type="line"/>
			<point x="900" y="0" type="line"/>
			<point x="900" y="88.333" type="line"/>
			<point x="614.667" y="88.333" type="line"/>
			<point x="614.667" y="327.667" type="line"/>
			<point x="889" y="327.667" type="line"/>
			<point x="889" y="416" type="line"/>
			<point x="614.667" y="416" type="line"/>
			<point x="614.667" y="650.667" type="line"/>
			<point x="900" y="650.667" type="line"/>
			<point x="900" y="739" type="line"/>
			<point x="511" y="739" type="line"/>
		</contour>
		<contour>
			<point x="332" y="318.667" type="line"/>
			<point x="519.667" y="600.333" type="line"/>
			<point x="519.667" y="318.667" type="line"/>
		</contour>
	</outline>
	<anchor name="Anchor-0" x="515.333" y="805"/>
</glyph>
<glyph name="Ccedilla" format="2">
	<unicode hex="00C7"/>
	<advance width="809"/>
	<outline>
		<contour>
			<point x="325" y="-166" type="line"/>
			<point x="337.073" y="-214.929"/>
			<point x="372.255" y="-243.667"/>
			<point x="420.333" y="-243.667" type="curve" smooth="yes"/>
			<point x="475.446" y="-243.667"/>
			<point x="513.667" y="-204.217"/>
			<point x="513.667" y="-147.333" type="curve" smooth="yes"/>
			<point x="513.667" y="-95.524"/>
			<point x="479.204" y="-57.667"/>
			<point x="432" y="-57.667" type="curve" smooth="yes"/>
			<point x="421.786" y="-57.667"/>
			<point x="414.472" y="-59.25"/>
			<point x="399.667" y="-64.667" type="curve"/>
			<point x="421" y="-13" type="line"/>
			<point x="580.217" y="-13"/>
			<point x="700.608" y="60.065"/>
			<point x="768.667" y="198" type="curve"/>
			<point x="660.333" y="198" type="line"/>
			<point x="591.186" y="113.016"/>
			<point x="521.307" y="76.333"/>
			<point x="428" y="76.333" type="curve" smooth="yes"/>
			<point x="267.751" y="76.333"/>
			<point x="137.333" y="208.247"/>
			<point x="137.333" y="370.333" type="curve" smooth="yes"/>
			<point x="137.333" y="536.625"/>
			<point x="261.939" y="662.667"/>
			<point x="426.333" y="662.667" type="curve" smooth="yes"/>
			<point x="529.677" y="662.667"/>
			<point x="605.115" y="623.139"/>
			<point x="660.333" y="540.333" type="curve"/>
			<point x="766.667" y="540.333" type="line"/>
			<point x="707.371" y="672.155"/>
			<point x="577.794" y="752"/>
			<point x="423.333" y="752" type="curve" smooth="yes"/>
			<point x="207.049" y="752"/>
			<point x="41.333" y="585.716"/>
			<point x="41.333" y="368.667" type="curve" smooth="yes"/>
			<point x="41.333" y="172.598"/>
			<point x="176.565" y="20.147"/>
			<point x="378.333" y="-10.333" type="curve"/>
			<point x="339.333" y="-104.333" type="line"/>
			<point x="377" y="-125" type="line"/>
			<point x="391.606" y="-107.386"/>
			<point x="402.309" y="-101.333"/>
			<point x="419" y="-101.333" type="curve" smooth="yes"/>
			<point x="443.899" y="-101.333"/>
			<point x="462.333" y="-121.223"/>
			<point x="462.333" y="-148" type="curve" smooth="yes"/>
			<point x="462.333" y="-175.532"/>
			<point x="445.138" y="-194"/>
			<point x="419.333" y="-194" type="curve" smooth="yes"/>
			<point x="398.134" y="-194"/>
			<point x="384.941" y="-183.809"/>
			<point x="377" y="-161.333" type="curve"/>
		</contour>
	</outline>
	<anchor name="Anchor-0" x="424.667" y="805"/>
</glyph>
<glyph name="Egrave" format="2">
	<unicode hex="00C8"/>
	<advance width="532"/>
	<outline>
		<contour>
			<point x="74.333" y="0" type="line"/>
			<point x="476" y="0" type="line"/>
			<point x="476" y="88.333" type="line"/>
			<point x="169.333" y="88.333" type="line"/>
			<point x="169.333" y="327.667" type="line"/>
			<point x="465" y="327.667" type="line"/>
			<point x="465" y="416" type="line"/>
			<point x="169.333" y="416" type="line"/>
			<point x="169.333" y="650.667" type="line"/>
			<point x="476" y="650.667" type="line"/>
			<point x="476" y="739" type="line"/>
			<point x="74.333" y="739" type="line"/>
		</contour>
		<contour>
			<point x="116.667" y="904" type="line"/>
			<point x="323.333" y="790.667" type="line"/>
			<point x="363" y="854.333" type="line"/>
			<point x="157" y="972" type="line"/>
		</contour>
	</outline>
	<anchor name="Anchor-0" x="275" y="996.333"/>
</glyph>
<glyph name="Ecircumflex" format="2">
	<unicode hex="00CA"/>
	<advance width="532"/>
	<outline>
		<contour>
			<point x="74.333" y="0" type="line"/>
			<point x="476" y="0" type="line"/>
			<point x="476" y="88.333" type="line"/>
			<point x="169.333" y="88.333" type="line"/>
			<point x="169.333" y="327.667" type="line"/>
			<point x="465" y="327.667" type="line"/>
			<point x="465" y="416" type="line"/>
			<point x="169.333" y="416" type="line"/>
			<point x="169.333" y="650.667" type="line"/>
			<point x="476" y="650.667" type="line"/>
			<point x="476" y="739" type="line"/>
			<point x="74.333" y="739" type="line"/>
		</contour>
		<contour>
			<point x="89.667" y="805" type="line"/>
			<point x="199.333" y="805" type="line"/>
			<point x="276" y="875.667" type="line"/>
			<point x="351" y="805" type="line"/>
			<point x="458.667" y="805" type="line"/>
			<point x="315" y="935" type="line"/>
			<point x="235.333" y="935" type="line"/>
		</contour>
	</outline>
	<anchor name="Anchor-0" x="275" y="996.333"/>
</glyph>
<glyph name="Edieresis" format="2">
	<unicode hex="00CB"/>
	<advance width="532"/>
	<outline>
		<contour>
			<point x="74.333" y="0" type="line"/>
			<point x="476" y="0" type="line"/>
			<point x="476" y="88.333" type="line"/>
			<point x="169.333" y="88.333" type="line"/>
			<point x="169.333" y="327.667" type="line"/>
			<point x="465" y="327.667" type="line"/>
			<point x="465" y="416" type="line"/>
			<point x="169.333" y="416" type="line"/>
			<point x="169.333" y="650.667" type="line"/>
			<point x="476" y="650.667" type="line"/>
			<point x="476" y="739" type="line"/>
			<point x="74.333" y="739" type="line"/>
		</contour>
		<contour>
			<point x="144.667" y="805" type="line"/>
			<point x="238.333" y="805" type="line"/>
			<point x="238.333" y="933.333" type="line"/>
			<point x="144.667" y="933.333" type="line"/>
		</contour>
		<contour>
			<point x="312.667" y="805" type="line"/>
			<point x="406.333" y="805" type="line"/>
			<point x="406.333" y="933.333" type="line"/>
			<point x="312.667" y="933.333" type="line"/>
		</contour>
	</outline>
	<anchor name="Anchor-0" x="275" y="996.333"/>
</glyph>
<glyph name="Igrave" format="2">
	<unicode hex="00CC"/>
	<advance width="244"/>
	<outline>
		<contour>
			<point x="74.333" y="0" type="line"/>
			<point x="169.333" y="0" type="line"/>
			<point x="169.333" y="739" type="line"/>
			<point x="74.333" y="739" type="line"/>
		</contour>
		<contour>
			<point x="1" y="904" type="line"/>
			<point x="207.667" y="790.667" type="line"/>
			<point x="247.333" y="854.333" type="line"/>
			<point x="41.333" y="972" type="line"/>
		</contour>
	</outline>
	<anchor name="Anchor-0" x="121.667" y="996.333"/>
</glyph>
<glyph name="Icircumflex" format="2">
	<unicode hex="00CE"/>
	<advance width="244"/>
	<outline>
		<contour>
			<point x="74.333" y="0" type="line"/>
			<point x="169.333" y="0" type="line"/>
			<point x="169.333" y="739" type="line"/>
			<point x="74.333" y="739" type="line"/>
		</contour>
		<contour>
			<point x="-62.667" y="805" type="line"/>
			<point x="47" y="805" type="line"/>
			<point x="123.667" y="875.667" type="line"/>
			<point x="198.667" y="805" type="line"/>
			<point x="306.333" y="805" type="line"/>
			<point x="162.667" y="935" type="line"/>
			<point x="83" y="935" type="line"/>
		</contour>
	</outline>
	<anchor name="Anchor-0" x="121.667" y="996.333"/>
</glyph>
<glyph name="Idieresis" format="2">
	<unicode hex="00CF"/>
	<advance width="244"/>
	<outline>
		<contour>
			<point x="75" y="0" type="line"/>
			<point x="170" y="0" type="line"/>
			<point x="170" y="739" type="line"/>
			<point x="75" y="739" type="line"/>
		</contour>
		<contour>
			<point x="-8.667" y="805" type="line"/>
			<point x="85" y="805" type="line"/>
			<point x="85" y="933.333" type="line"/>
			<point x="-8.667" y="933.333" type="line"/>
		</contour>
		<contour>
			<point x="159.333" y="805" type="line"/>
			<point x="253" y="805" type="line"/>
			<point x="253" y="933.333" type="line"/>
			<point x="159.333" y="933.333" type="line"/>
		</contour>
	</outline>
	<anchor name="Anchor-0" x="121.667" y="996.333"/>
</glyph>
<glyph name="Eth" format="2">
	<unicode hex="00D0"/>
	<advance width="775"/>
	<outline>
		<contour>
			<point x="120" y="0" type="line"/>
			<point x="310" y="0" type="line" smooth="yes"/>
			<point x="581.261" y="0"/>
			<point x="733.333" y="131.916"/>
			<point x="733.333" y="367.333" type="curve" smooth="yes"/>
			<point x="733.333" y="609.756"/>
			<point x="579.918" y="739"/>
			<point x="292.333" y="739" type="curve" smooth="yes"/>
			<point x="120" y="739" type="line"/>
			<point x="120" y="416.667" type="line"/>
			<point x="24" y="416.667" type="line"/>
			<point x="24" y="336.333" type="line"/>
			<point x="120" y="336.333" type="line"/>
		</contour>
		<contour>
			<point x="215" y="88.333" type="line"/>
			<point x="215" y="336.333" type="line"/>
			<point x="403" y="336.333" type="line"/>
			<point x="403" y="416.667" type="line"/>
			<point x="215" y="416.667" type="line"/>
			<point x="215" y="650.667" type="line"/>
			<point x="292.667" y="650.667" type="line" smooth="yes"/>
			<point x="520.33" y="650.667"/>
			<point x="637.333" y="555.189"/>
			<point x="637.333" y="369.333" type="curve" smooth="yes"/>
			<point x="637.333" y="183.487"/>
			<point x="520.946" y="88.333"/>
			<point x="293.667" y="88.333" type="curve" smooth="yes"/>
		</contour>
	</outline>
	<anchor name="Anchor-0" x="340" y="805"/>
</glyph>
<glyph name="Ntilde" format="2">
	<unicode hex="00D1"/>
	<advance width="740"/>
	<outline>
		<contour>
			<point x="74.333" y="0" type="line"/>
			<point x="169.333" y="0" type="line"/>
			<point x="169.333" y="612.333" type="line"/>
			<point x="565.667" y="0" type="line"/>
			<point x="666" y="0" type="line"/>
			<point x="666" y="739" type="line"/>
			<point x="571" y="739" type="line"/>
			<point x="571" y="151" type="line"/>
			<point x="193" y="739" type="line"/>
			<point x="74.333" y="739" type="line"/>
		</contour>
		<contour>
			<point x="265.333" y="813.667" type="line"/>
			<point x="291.014" y="835.429"/>
			<point x="306.504" y="843.333"/>
			<point x="328.667" y="843.333" type="curve" smooth="yes"/>
			<point x="340.198" y="843.333"/>
			<point x="352.7" y="840.291"/>
			<point x="373.333" y="832.667" type="curve" smooth="yes"/>
			<point x="407.173" y="819.852"/>
			<point x="425.086" y="813.667"/>
			<point x="441.775" y="813.667" type="curve" smooth="yes"/>
			<point x="473.879" y="813.667"/>
			<point x="506.768" y="832.895"/>
			<point x="529" y="864.667" type="curve"/>
			<point x="489" y="922.333" type="line"/>
			<point x="468.202" y="899.882"/>
			<point x="450.2" y="890.333"/>
			<point x="428.667" y="890.333" type="curve" smooth="yes"/>
			<point x="417.349" y="890.333"/>
			<point x="399.363" y="895.324"/>
			<point x="381" y="903.333" type="curve" smooth="yes"/>
			<point x="354.477" y="914.888"/>
			<point x="338.476" y="919.333"/>
			<point x="321.667" y="919.333" type="curve" smooth="yes"/>
			<point x="283.771" y="919.333"/>
			<point x="252.41" y="903.422"/>
			<point x="225.333" y="871" type="curve"/>
		</contour>
	</outline>
	<anchor name="Anchor-0" x="370" y="996.333"/>
</glyph>
<glyph name="Ograve" format="2">
	<unicode hex="00D2"/>
	<advance width="860"/>
	<outline>
		<component base="O"/>
		<contour>
			<point x="284.667" y="904" type="line"/>
			<point x="491.333" y="790.667" type="line"/>
			<point x="531" y="854.333" type="line"/>
			<point x="325" y="972" type="line"/>
		</contour>
	</outline>
	<anchor name="Anchor-0" x="429.667" y="996.333"/>
</glyph>
<glyph name="Oacute" format="2">
	<unicode hex="00D3"/>
	<advance width="860"/>
	<outline>
		<component base="O"/>
		<contour>
			<point x="369.667" y="790.667" type="line"/>
			<point x="574" y="906.667" type="line"/>
			<point x="533.333" y="976" type="line"/>
			<point x="330" y="854" type="line"/>
		</contour>
	</outline>
	<anchor name="Anchor-0" x="429.667" y="996.333"/>
</glyph>
<glyph name="Ocircumflex" format="2">
	<unicode hex="00D4"/>
	<advance width="860"/>
	<outline>
		<component base="O"/>
		<contour>
			<point x="245.333" y="805" type="line"/>
			<point x="355" y="805" type="line"/>
			<point x="431.667" y="875.667" type="line"/>
			<point x="506.667" y="805" type="line"/>
			<point x="614.333" y="805" type="line"/>
			<point x="470.667" y="935" type="line"/>
			<point x="391" y="935" type="line"/>
		</contour>
	</outline>
	<anchor name="Anchor-0" x="429.667" y="996.333"/>
</glyph>
<glyph name="Otilde" format="2">
	<unicode hex="00D5"/>
	<advance width="860"/>
	<outline>
		<component base="O"/>
		<contour>
			<point x="325.333" y="813.667" type="line"/>
			<point x="355.251" y="836.144"/>
			<point x="369.401" y="843.333"/>
			<point x="388.667" y="843.333" type="curve" smooth="yes"/>
			<point x="401.619" y="843.333"/>
			<point x="414.175" y="840.277"/>
			<point x="433.333" y="832.667" type="curve" smooth="yes"/>
			<point x="467.883" y="818.05"/>
			<point x="483.061" y="813.667"/>
			<point x="497" y="813.667" type="curve" smooth="yes"/>
			<point x="530.371" y="813.667"/>
			<point x="567.496" y="834.077"/>
			<point x="589" y="864.667" type="curve"/>
			<point x="549" y="922.333" type="line"/>
			<point x="528.202" y="899.882"/>
			<point x="510.2" y="890.333"/>
			<point x="488.667" y="890.333" type="curve" smooth="yes"/>
			<point x="477.98" y="890.333"/>
			<point x="458.968" y="895.623"/>
			<point x="441" y="903.333" type="curve" smooth="yes"/>
			<point x="409.464" y="916.904"/>
			<point x="400.456" y="919.333"/>
			<point x="381.667" y="919.333" type="curve" smooth="yes"/>
			<point x="343.771" y="919.333"/>
			<point x="312.41" y="903.422"/>
			<point x="285.333" y="871" type="curve"/>
		</contour>
	</outline>
	<anchor name="Anchor-0" x="429.667" y="996.333"/>
</glyph>
<glyph name="Odieresis" format="2">
	<unicode hex="00D6"/>
	<advance width="860"/>
	<outline>
		<component base="O"/>
		<contour>
			<point x="299.333" y="805" type="line"/>
			<point x="393" y="805" type="line"/>
			<point x="393" y="933.333" type="line"/>
			<point x="299.333" y="933.333" type="line"/>
		</contour>
		<contour>
			<point x="467.333" y="805" type="line"/>
			<point x="561" y="805" type="line"/>
			<point x="561" y="933.333" type="line"/>
			<point x="467.333" y="933.333" type="line"/>
		</contour>
	</outline>
	<anchor name="Anchor-0" x="429.667" y="996.333"/>
</glyph>
<glyph name="multiply" format="2">
	<unicode hex="00D7"/>
	<advance width="604"/>
	<outline>
		<contour>
			<point x="50" y="131.333" type="line"/>
			<point x="112" y="70" type="line"/>
			<point x="302" y="260" type="line"/>
			<point x="492" y="70" type="line"/>
			<point x="554" y="131.333" type="line"/>
			<point x="364" y="321.333" type="line"/>
			<point x="554" y="512" type="line"/>
			<point x="492" y="573.333" type="line"/>
			<point x="302" y="383.333" type="line"/>
			<point x="112" y="573.333" type="line"/>
			<point x="50" y="512" type="line"/>
			<point x="240" y="321.333" type="line"/>
		</contour>
	</outline>
</glyph>
<glyph name="Oslash" format="2">
	<unicode hex="00D8"/>
	<advance width="860"/>
	<outline>
		<contour>
			<point x="41.333" y="370" type="curve" smooth="yes"/>
			<point x="41.333" y="257.568"/>
			<point x="87.826" y="155.148"/>
			<point x="171.333" y="83.667" type="curve"/>
			<point x="89.667" y="-28" type="line"/>
			<point x="159" y="-77" type="line"/>
			<point x="241.667" y="35.667" type="line"/>
			<point x="299.164" y="3.79"/>
			<point x="365.439" y="-13"/>
			<point x="434.333" y="-13" type="curve" smooth="yes"/>
			<point x="649.759" y="-13"/>
			<point x="819" y="156.091"/>
			<point x="819" y="371.333" type="curve" smooth="yes"/>
			<point x="819" y="484.848"/>
			<point x="774.948" y="581.01"/>
			<point x="689" y="655" type="curve"/>
			<point x="770.667" y="767" type="line"/>
			<point x="703" y="817" type="line"/>
			<point x="619.667" y="703" type="line"/>
			<point x="567.98" y="734.076"/>
			<point x="498.565" y="752"/>
			<point x="428" y="752" type="curve" smooth="yes"/>
			<point x="211.863" y="752"/>
			<point x="41.333" y="583.527"/>
		</contour>
		<contour>
			<point x="137.333" y="367.333" type="curve" smooth="yes"/>
			<point x="137.333" y="533.333"/>
			<point x="264.333" y="662.667"/>
			<point x="427.333" y="662.667" type="curve" smooth="yes"/>
			<point x="478.536" y="662.667"/>
			<point x="526.511" y="651.024"/>
			<point x="567" y="629" type="curve"/>
			<point x="225.667" y="159" type="line"/>
			<point x="166.849" y="217.161"/>
			<point x="137.333" y="286.88"/>
		</contour>
		<contour>
			<point x="294.333" y="109.667" type="curve"/>
			<point x="635.667" y="580" type="line"/>
			<point x="694.96" y="519.681"/>
			<point x="723" y="451.701"/>
			<point x="723" y="368.667" type="curve" smooth="yes"/>
			<point x="723" y="204.099"/>
			<point x="596.1" y="76.333"/>
			<point x="432.667" y="76.333" type="curve" smooth="yes"/>
			<point x="383.001" y="76.333"/>
			<point x="343.343" y="85.865"/>
		</contour>
	</outline>
	<anchor name="Anchor-0" x="430" y="805"/>
</glyph>
<glyph name="Ugrave" format="2">
	<unicode hex="00D9"/>
	<advance width="650"/>
	<outline>
		<component base="U"/>
		<contour>
			<point x="166.333" y="904" type="line"/>
			<point x="373" y="790.667" type="line"/>
			<point x="412.667" y="854.333" type="line"/>
			<point x="206.667" y="972" type="line"/>
		</contour>
	</outline>
	<anchor name="Anchor-0" x="324.667" y="996.333"/>
</glyph>
<glyph name="Uacute" format="2">
	<unicode hex="00DA"/>
	<advance width="650"/>
	<outline>
		<component base="U"/>
		<contour>
			<point x="278.333" y="790.667" type="line"/>
			<point x="482.667" y="906.667" type="line"/>
			<point x="442" y="976" type="line"/>
			<point x="238.667" y="854" type="line"/>
		</contour>
	</outline>
	<anchor name="Anchor-0" x="324.667" y="996.333"/>
</glyph>
<glyph name="Ucircumflex" format="2">
	<unicode hex="00DB"/>
	<advance width="650"/>
	<outline>
		<component base="U"/>
		<contour>
			<point x="140.333" y="805" type="line"/>
			<point x="250" y="805" type="line"/>
			<point x="326.667" y="875.667" type="line"/>
			<point x="401.667" y="805" type="line"/>
			<point x="509.333" y="805" type="line"/>
			<point x="365.667" y="935" type="line"/>
			<point x="286" y="935" type="line"/>
		</contour>
	</outline>
	<anchor name="Anchor-0" x="324.667" y="996.333"/>
</glyph>
<glyph name="Yacute" format="2">
	<unicode hex="00DD"/>
	<advance width="607"/>
	<outline>
		<contour>
			<point x="255.333" y="0" type="line"/>
			<point x="350.333" y="0" type="line"/>
			<point x="350.333" y="255.667" type="line"/>
			<point x="603.333" y="739" type="line"/>
			<point x="500" y="739" type="line"/>
			<point x="302.333" y="349.667" type="line"/>
			<point x="107.667" y="739" type="line"/>
			<point x="3.667" y="739" type="line"/>
			<point x="255.333" y="255.667" type="line"/>
		</contour>
		<contour>
			<point x="257" y="790.667" type="line"/>
			<point x="461.333" y="906.667" type="line"/>
			<point x="420.667" y="976" type="line"/>
			<point x="217.333" y="854" type="line"/>
		</contour>
	</outline>
	<anchor name="Anchor-0" x="303.333" y="996.333"/>
</glyph>
<glyph name="Thorn" format="2">
	<unicode hex="00DE"/>
	<advance width="587"/>
	<outline>
		<contour>
			<point x="74.333" y="0" type="line"/>
			<point x="169.333" y="0" type="line"/>
			<point x="169.333" y="160.333" type="line"/>
			<point x="278.667" y="160.333" type="line" smooth="yes"/>
			<point x="377.963" y="160.333"/>
			<point x="430.199" y="171.278"/>
			<point x="474" y="201" type="curve" smooth="yes"/>
			<point x="527.076" y="236.144"/>
			<point x="557.667" y="301.928"/>
			<point x="557.667" y="381.333" type="curve" smooth="yes"/>
			<point x="557.667" y="465.078"/>
			<point x="525.195" y="532.428"/>
			<point x="467.667" y="568" type="curve" smooth="yes"/>
			<point x="422.307" y="596.019"/>
			<point x="368.259" y="606.667"/>
			<point x="271.333" y="606.667" type="curve" smooth="yes"/>
			<point x="164.667" y="606.667" type="line"/>
			<point x="164.667" y="739" type="line"/>
			<point x="74.333" y="739" type="line"/>
		</contour>
		<contour>
			<point x="169.333" y="248.667" type="line"/>
			<point x="169.333" y="518.333" type="line"/>
			<point x="254.667" y="518.333" type="line" smooth="yes"/>
			<point x="315.947" y="518.333"/>
			<point x="354.751" y="514.43"/>
			<point x="385" y="505.333" type="curve" smooth="yes"/>
			<point x="433.552" y="490.369"/>
			<point x="461.667" y="444.82"/>
			<point x="461.667" y="381" type="curve" smooth="yes"/>
			<point x="461.667" y="327.718"/>
			<point x="438.819" y="286.23"/>
			<point x="400" y="268.667" type="curve"/>
			<point x="372.788" y="254.707"/>
			<point x="334.38" y="248.667"/>
			<point x="274" y="248.667" type="curve" smooth="yes"/>
		</contour>
	</outline>
	<anchor name="Anchor-0" x="290.667" y="805"/>
</glyph>
<glyph name="germandbls" format="2">
	<unicode hex="00DF"/>
	<advance width="575"/>
	<outline>
		<contour>
			<point x="57.333" y="0" type="line"/>
			<point x="147.333" y="0" type="line"/>
			<point x="147.333" y="99" type="line"/>
			<point x="184.242" y="24.522"/>
			<point x="245.456" y="-13"/>
			<point x="330.333" y="-13" type="curve" smooth="yes"/>
			<point x="454.645" y="-13"/>
			<point x="545" y="78.645"/>
			<point x="545" y="204.667" type="curve" smooth="yes"/>
			<point x="545" y="301.463"/>
			<point x="493.657" y="368.366"/>
			<point x="398.667" y="395.333" type="curve"/>
			<point x="455.086" y="428.189"/>
			<point x="480.333" y="474.357"/>
			<point x="480.333" y="544.667" type="curve" smooth="yes"/>
			<point x="480.333" y="663.122"/>
			<point x="388.875" y="752"/>
			<point x="267" y="752" type="curve" smooth="yes"/>
			<point x="130.792" y="752"/>
			<point x="57.333" y="658.009"/>
			<point x="57.333" y="483" type="curve" smooth="yes"/>
		</contour>
		<contour>
			<point x="151" y="198.333" type="line"/>
			<point x="151" y="488.333" type="line" smooth="yes"/>
			<point x="151" y="607.596"/>
			<point x="189.247" y="666"/>
			<point x="267.333" y="666" type="curve" smooth="yes"/>
			<point x="336.399" y="666"/>
			<point x="385.667" y="615.277"/>
			<point x="385.667" y="544" type="curve" smooth="yes"/>
			<point x="385.667" y="466.775"/>
			<point x="331.43" y="416.333"/>
			<point x="247.667" y="416.333" type="curve" smooth="yes"/>
			<point x="235.333" y="416.333" type="line"/>
			<point x="235.333" y="332.333" type="line"/>
			<point x="254.131" y="333.476"/>
			<point x="260.512" y="333.667"/>
			<point x="269" y="333.667" type="curve" smooth="yes"/>
			<point x="387.167" y="333.667"/>
			<point x="450.333" y="286.408"/>
			<point x="450.333" y="199.667" type="curve" smooth="yes"/>
			<point x="450.333" y="127.873"/>
			<point x="399.216" y="73"/>
			<point x="332.333" y="73" type="curve" smooth="yes"/>
			<point x="266.431" y="73"/>
			<point x="216.697" y="124.908"/>
			<point x="212.333" y="198.333" type="curve"/>
		</contour>
	</outline>
	<anchor name="Anchor-0" x="267.667" y="805"/>
</glyph>
<glyph name="agrave" format="2">
	<unicode hex="00E0"/>
	<advance width="678"/>
	<outline>
		<contour>
			<point x="527.667" y="0" type="line"/>
			<point x="617.667" y="0" type="line"/>
			<point x="617.667" y="549.333" type="line"/>
			<point x="527.667" y="549.333" type="line"/>
			<point x="527.667" y="460" type="line"/>
			<point x="475.981" y="531.232"/>
			<point x="413.885" y="562.333"/>
			<point x="323.333" y="562.333" type="curve" smooth="yes"/>
			<point x="159.465" y="562.333"/>
			<point x="37.333" y="438.803"/>
			<point x="37.333" y="273" type="curve" smooth="yes"/>
			<point x="37.333" y="108.02"/>
			<point x="159.643" y="-13"/>
			<point x="326.333" y="-13" type="curve" smooth="yes"/>
			<point x="414.266" y="-13"/>
			<point x="471.298" y="15.597"/>
			<point x="527.667" y="88" type="curve"/>
		</contour>
		<contour>
			<point x="277.333" y="127.333" type="curve" smooth="yes"/>
			<point x="196.373" y="160.759"/>
			<point x="154.419" y="249.963"/>
			<point x="185.333" y="331.667" type="curve"/>
			<point x="217.676" y="411.586"/>
			<point x="303.588" y="452.99"/>
			<point x="381.667" y="419.667" type="curve"/>
			<point x="464.333" y="386.67"/>
			<point x="504.67" y="302.333"/>
			<point x="472.667" y="219.667" type="curve" smooth="yes"/>
			<point x="440.234" y="136.975"/>
			<point x="356.642" y="95.099"/>
		</contour>
		<contour>
			<point x="191.333" y="724.333" type="line"/>
			<point x="398" y="611" type="line"/>
			<point x="437.667" y="674.667" type="line"/>
			<point x="231.667" y="792.333" type="line"/>
		</contour>
	</outline>
	<anchor name="Anchor-0" x="349.667" y="816.667"/>
</glyph>
<glyph name="aacute" format="2">
	<unicode hex="00E1"/>
	<advance width="678"/>
	<outline>
		<component base="a"/>
		<contour>
			<point x="301" y="611" type="line"/>
			<point x="505.333" y="727" type="line"/>
			<point x="464.667" y="796.333" type="line"/>
			<point x="261.333" y="674.333" type="line"/>
		</contour>
	</outline>
	<anchor name="Anchor-0" x="349.667" y="816.667"/>
</glyph>
<glyph name="acircumflex" format="2">
	<unicode hex="00E2"/>
	<advance width="678"/>
	<outline>
		<component base="a"/>
		<contour>
			<point x="164" y="625.333" type="line"/>
			<point x="273.667" y="625.333" type="line"/>
			<point x="350.333" y="696" type="line"/>
			<point x="425.333" y="625.333" type="line"/>
			<point x="533" y="625.333" type="line"/>
			<point x="389.333" y="755.333" type="line"/>
			<point x="309.667" y="755.333" type="line"/>
		</contour>
	</outline>
	<anchor name="Anchor-0" x="349.667" y="816.667"/>
</glyph>
<glyph name="atilde" format="2">
	<unicode hex="00E3"/>
	<advance width="678"/>
	<outline>
		<component base="a"/>
		<contour>
			<point x="236.667" y="634" type="line"/>
			<point x="261.563" y="656.289"/>
			<point x="276.067" y="663.667"/>
			<point x="300" y="663.667" type="curve" smooth="yes"/>
			<point x="312.952" y="663.667"/>
			<point x="325.508" y="660.611"/>
			<point x="344.667" y="653" type="curve" smooth="yes"/>
			<point x="379.217" y="638.384"/>
			<point x="394.395" y="634"/>
			<point x="408.333" y="634" type="curve" smooth="yes"/>
			<point x="441.704" y="634"/>
			<point x="478.829" y="654.41"/>
			<point x="500.333" y="685" type="curve"/>
			<point x="460.333" y="742.667" type="line"/>
			<point x="439.535" y="720.215"/>
			<point x="421.533" y="710.667"/>
			<point x="400" y="710.667" type="curve" smooth="yes"/>
			<point x="389.313" y="710.667"/>
			<point x="370.302" y="715.956"/>
			<point x="352.333" y="723.667" type="curve" smooth="yes"/>
			<point x="320.797" y="737.237"/>
			<point x="311.79" y="739.667"/>
			<point x="293" y="739.667" type="curve" smooth="yes"/>
			<point x="255.104" y="739.667"/>
			<point x="223.743" y="723.755"/>
			<point x="196.667" y="691.333" type="curve"/>
		</contour>
	</outline>
	<anchor name="Anchor-0" x="349.667" y="816.667"/>
</glyph>
<glyph name="adieresis" format="2">
	<unicode hex="00E4"/>
	<advance width="678"/>
	<outline>
		<component base="a"/>
		<contour>
			<point x="218" y="625.333" type="line"/>
			<point x="311.667" y="625.333" type="line"/>
			<point x="311.667" y="753.667" type="line"/>
			<point x="218" y="753.667" type="line"/>
		</contour>
		<contour>
			<point x="386" y="625.333" type="line"/>
			<point x="479.667" y="625.333" type="line"/>
			<point x="479.667" y="753.667" type="line"/>
			<point x="386" y="753.667" type="line"/>
		</contour>
	</outline>
	<anchor name="Anchor-0" x="349" y="816.667"/>
</glyph>
<glyph name="aring" format="2">
	<unicode hex="00E5"/>
	<advance width="678"/>
	<outline>
		<component base="a"/>
		<contour>
			<point x="287.333" y="670.667" type="curve" smooth="yes"/>
			<point x="306.333" y="637.185"/>
			<point x="349.15" y="625.333"/>
			<point x="383" y="644.333" type="curve" smooth="yes"/>
			<point x="417" y="663.092"/>
			<point x="428.909" y="706"/>
			<point x="410.333" y="740" type="curve" smooth="yes"/>
			<point x="391.074" y="773.516"/>
			<point x="348.152" y="786.074"/>
			<point x="315" y="767" type="curve" smooth="yes"/>
			<point x="280.333" y="748"/>
			<point x="268.333" y="705.333"/>
		</contour>
		<contour>
			<point x="302.667" y="705" type="curve" smooth="yes"/>
			<point x="302.667" y="730.617"/>
			<point x="322.964" y="751.667"/>
			<point x="347.667" y="751.667" type="curve" smooth="yes"/>
			<point x="373.926" y="751.667"/>
			<point x="394.667" y="731.072"/>
			<point x="394.667" y="705" type="curve" smooth="yes"/>
			<point x="394.667" y="680.183"/>
			<point x="373.847" y="659.667"/>
			<point x="348.667" y="659.667" type="curve" smooth="yes"/>
			<point x="323.147" y="659.667"/>
			<point x="302.667" y="679.85"/>
		</contour>
	</outline>
	<anchor name="Anchor-0" x="349" y="826.667"/>
</glyph>
<glyph name="ae" format="2">
	<unicode hex="00E6"/>
	<advance width="1130"/>
	<outline>
		<contour>
			<point x="526.333" y="0" type="line"/>
			<point x="614.333" y="0" type="line"/>
			<point x="614.333" y="81.333" type="line"/>
			<point x="669.07" y="17.585"/>
			<point x="734.766" y="-13"/>
			<point x="817.333" y="-13" type="curve" smooth="yes"/>
			<point x="935.768" y="-13"/>
			<point x="1043.6" y="63.455"/>
			<point x="1080" y="173.333" type="curve"/>
			<point x="980.333" y="173.333" type="line"/>
			<point x="949.131" y="110.529"/>
			<point x="888.242" y="73"/>
			<point x="815.333" y="73" type="curve" smooth="yes"/>
			<point x="714.774" y="73"/>
			<point x="633.652" y="141.553"/>
			<point x="619.333" y="237.667" type="curve"/>
			<point x="1090.67" y="237.667" type="line"/>
			<point x="1094.21" y="256.566"/>
			<point x="1095.53" y="270.97"/>
			<point x="1095.51" y="287.738" type="curve" smooth="yes"/>
			<point x="1095.35" y="444.403"/>
			<point x="974.207" y="562.333"/>
			<point x="813.333" y="562.333" type="curve" smooth="yes"/>
			<point x="730.581" y="562.333"/>
			<point x="669.499" y="533.205"/>
			<point x="614.333" y="467.667" type="curve"/>
			<point x="614.333" y="549.333" type="line"/>
			<point x="526.333" y="549.333" type="line"/>
			<point x="526.333" y="467.667" type="line"/>
			<point x="474.869" y="533.176"/>
			<point x="413.104" y="562.333"/>
			<point x="325.333" y="562.333" type="curve" smooth="yes"/>
			<point x="161.403" y="562.333"/>
			<point x="37.333" y="437.684"/>
			<point x="37.333" y="273" type="curve" smooth="yes"/>
			<point x="37.333" y="110.114"/>
			<point x="161.884" y="-13"/>
			<point x="326.667" y="-13" type="curve" smooth="yes"/>
			<point x="412.82" y="-13"/>
			<point x="470.088" y="14.105"/>
			<point x="526.333" y="81.333" type="curve"/>
		</contour>
		<contour>
			<point x="329.333" y="73" type="curve" smooth="yes"/>
			<point x="218.11" y="73"/>
			<point x="132.667" y="160.887"/>
			<point x="132.667" y="275.333" type="curve" smooth="yes"/>
			<point x="132.667" y="388.881"/>
			<point x="217.212" y="476.333"/>
			<point x="327" y="476.333" type="curve" smooth="yes"/>
			<point x="442.414" y="476.333"/>
			<point x="526.333" y="392.256"/>
			<point x="526.333" y="276.667" type="curve" smooth="yes"/>
			<point x="526.333" y="160.933"/>
			<point x="441.273" y="73"/>
		</contour>
		<contour>
			<point x="619" y="321.667" type="line"/>
			<point x="638.328" y="416.194"/>
			<point x="712.192" y="476.333"/>
			<point x="810.333" y="476.333" type="curve" smooth="yes"/>
			<point x="908.805" y="476.333"/>
			<point x="980.692" y="417.527"/>
			<point x="1000.33" y="321.667" type="curve"/>
		</contour>
	</outline>
	<anchor name="Anchor-0" x="569.333" y="625.333"/>
</glyph>
<glyph name="ccedilla" format="2">
	<unicode hex="00E7"/>
	<advance width="640"/>
	<outline>
		<contour>
			<point x="245.667" y="-156" type="line"/>
			<point x="254.588" y="-203.617"/>
			<point x="289.29" y="-233"/>
			<point x="336.667" y="-233" type="curve" smooth="yes"/>
			<point x="390.87" y="-233"/>
			<point x="427.667" y="-194.454"/>
			<point x="427.667" y="-137.667" type="curve" smooth="yes"/>
			<point x="427.667" y="-86.766"/>
			<point x="394.427" y="-51"/>
			<point x="347" y="-51" type="curve" smooth="yes"/>
			<point x="334.762" y="-51"/>
			<point x="327.746" y="-52.551"/>
			<point x="315.333" y="-58" type="curve"/>
			<point x="334.333" y="-13" type="line"/>
			<point x="458.751" y="-13"/>
			<point x="554.1" y="50.795"/>
			<point x="605" y="168" type="curve"/>
			<point x="499" y="168" type="line"/>
			<point x="449.775" y="100.034"/>
			<point x="402.363" y="73"/>
			<point x="332.333" y="73" type="curve" smooth="yes"/>
			<point x="219.559" y="73"/>
			<point x="132" y="161.111"/>
			<point x="132" y="274.667" type="curve" smooth="yes"/>
			<point x="132" y="389.424"/>
			<point x="217.088" y="476.333"/>
			<point x="329.333" y="476.333" type="curve" smooth="yes"/>
			<point x="403.625" y="476.333"/>
			<point x="462.135" y="442.083"/>
			<point x="499" y="377" type="curve"/>
			<point x="604.333" y="377" type="line"/>
			<point x="560.258" y="492.197"/>
			<point x="456.376" y="562.333"/>
			<point x="330" y="562.333" type="curve" smooth="yes"/>
			<point x="166.158" y="562.333"/>
			<point x="37.333" y="436.154"/>
			<point x="37.333" y="275.667" type="curve" smooth="yes"/>
			<point x="37.333" y="127.734"/>
			<point x="144.598" y="8.675"/>
			<point x="295" y="-10.333" type="curve"/>
			<point x="257.667" y="-95.667" type="line"/>
			<point x="295" y="-116.333" type="line"/>
			<point x="308.324" y="-98.795"/>
			<point x="319.25" y="-92.333"/>
			<point x="335.667" y="-92.333" type="curve" smooth="yes"/>
			<point x="361.625" y="-92.333"/>
			<point x="379.667" y="-112.293"/>
			<point x="379.667" y="-141" type="curve" smooth="yes"/>
			<point x="379.667" y="-167.516"/>
			<point x="362.153" y="-186"/>
			<point x="337" y="-186" type="curve" smooth="yes"/>
			<point x="316.14" y="-186"/>
			<point x="301.638" y="-174.489"/>
			<point x="295" y="-152.667" type="curve"/>
		</contour>
	</outline>
	<anchor name="Anchor-0" x="330" y="625.333"/>
</glyph>
<glyph name="egrave" format="2">
	<unicode hex="00E8"/>
	<advance width="645"/>
	<outline>
		<component base="e"/>
		<contour>
			<point x="168.333" y="724.333" type="line"/>
			<point x="375" y="611" type="line"/>
			<point x="414.667" y="674.667" type="line"/>
			<point x="208.667" y="792.333" type="line"/>
		</contour>
	</outline>
	<anchor name="Anchor-0" x="327.333" y="816.667"/>
</glyph>
<glyph name="eacute" format="2">
	<unicode hex="00E9"/>
	<advance width="645"/>
	<outline>
		<component base="e"/>
		<contour>
			<point x="278.667" y="611" type="line"/>
			<point x="483" y="727" type="line"/>
			<point x="442.333" y="796.333" type="line"/>
			<point x="239" y="674.333" type="line"/>
		</contour>
	</outline>
	<anchor name="Anchor-0" x="327.333" y="816.667"/>
</glyph>
<glyph name="ecircumflex" format="2">
	<unicode hex="00EA"/>
	<advance width="645"/>
	<outline>
		<component base="e"/>
		<contour>
			<point x="143.333" y="625.333" type="line"/>
			<point x="253" y="625.333" type="line"/>
			<point x="329.667" y="696" type="line"/>
			<point x="404.667" y="625.333" type="line"/>
			<point x="512.333" y="625.333" type="line"/>
			<point x="368.667" y="755.333" type="line"/>
			<point x="289" y="755.333" type="line"/>
		</contour>
	</outline>
	<anchor name="Anchor-0" x="327.333" y="816.667"/>
</glyph>
<glyph name="edieresis" format="2">
	<unicode hex="00EB"/>
	<advance width="645"/>
	<outline>
		<component base="e"/>
		<contour>
			<point x="197" y="625.333" type="line"/>
			<point x="290.667" y="625.333" type="line"/>
			<point x="290.667" y="753.667" type="line"/>
			<point x="197" y="753.667" type="line"/>
		</contour>
		<contour>
			<point x="365" y="625.333" type="line"/>
			<point x="458.667" y="625.333" type="line"/>
			<point x="458.667" y="753.667" type="line"/>
			<point x="365" y="753.667" type="line"/>
		</contour>
	</outline>
	<anchor name="Anchor-0" x="327.333" y="816.667"/>
</glyph>
<glyph name="igrave" format="2">
	<unicode hex="00EC"/>
	<advance width="214"/>
	<outline>
		<contour>
			<point x="60" y="0" type="line"/>
			<point x="153.667" y="0" type="line"/>
			<point x="153.667" y="549.333" type="line"/>
			<point x="60" y="549.333" type="line"/>
		</contour>
		<contour>
			<point x="-15.333" y="724.333" type="line"/>
			<point x="191.333" y="611" type="line"/>
			<point x="231" y="674.667" type="line"/>
			<point x="25" y="792.333" type="line"/>
		</contour>
	</outline>
	<anchor name="Anchor-0" x="106.667" y="816.667"/>
</glyph>
<glyph name="idieresis" format="2">
	<unicode hex="00EF"/>
	<advance width="214"/>
	<outline>
		<contour>
			<point x="60.667" y="0" type="line"/>
			<point x="154.333" y="0" type="line"/>
			<point x="154.333" y="549.333" type="line"/>
			<point x="60.667" y="549.333" type="line"/>
		</contour>
		<contour>
			<point x="-23.667" y="625.333" type="line"/>
			<point x="70" y="625.333" type="line"/>
			<point x="70" y="753.667" type="line"/>
			<point x="-23.667" y="753.667" type="line"/>
		</contour>
		<contour>
			<point x="144.333" y="625.333" type="line"/>
			<point x="238" y="625.333" type="line"/>
			<point x="238" y="753.667" type="line"/>
			<point x="144.333" y="753.667" type="line"/>
		</contour>
	</outline>
	<anchor name="Anchor-0" x="106.667" y="816.667"/>
</glyph>
<glyph name="eth" format="2">
	<unicode hex="00F0"/>
	<advance width="652"/>
	<outline>
		<contour>
			<point x="37.333" y="275.333" type="curve" smooth="yes"/>
			<point x="37.333" y="111.827"/>
			<point x="164.175" y="-13"/>
			<point x="330.333" y="-13" type="curve" smooth="yes"/>
			<point x="495.166" y="-13"/>
			<point x="614.333" y="110.157"/>
			<point x="614.333" y="280.667" type="curve" smooth="yes"/>
			<point x="614.333" y="407.362"/>
			<point x="547.214" y="516.976"/>
			<point x="381" y="661.667" type="curve"/>
			<point x="466.333" y="699.333" type="line"/>
			<point x="426.667" y="745" type="line"/>
			<point x="334.333" y="703.667" type="line"/>
			<point x="311.078" y="724.616"/>
			<point x="295.88" y="736.352"/>
			<point x="267.333" y="756" type="curve"/>
			<point x="197.667" y="725" type="line"/>
			<point x="221.303" y="707.772"/>
			<point x="240.993" y="690.399"/>
			<point x="261" y="669.333" type="curve"/>
			<point x="182.333" y="633.667" type="line"/>
			<point x="219.667" y="587.667" type="line"/>
			<point x="306.667" y="627" type="line"/>
			<point x="337.383" y="601.202"/>
			<point x="346.754" y="592.188"/>
			<point x="395.667" y="541" type="curve"/>
			<point x="356.7" y="552.658"/>
			<point x="336.611" y="556"/>
			<point x="309" y="556" type="curve" smooth="yes"/>
			<point x="156.679" y="556"/>
			<point x="37.333" y="432.68"/>
		</contour>
		<contour>
			<point x="132" y="273.667" type="curve" smooth="yes"/>
			<point x="132" y="388.346"/>
			<point x="215.346" y="476.333"/>
			<point x="324" y="476.333" type="curve" smooth="yes"/>
			<point x="437.02" y="476.333"/>
			<point x="519.667" y="390.313"/>
			<point x="519.667" y="272.667" type="curve" smooth="yes"/>
			<point x="519.667" y="157.468"/>
			<point x="439.127" y="73"/>
			<point x="329.333" y="73" type="curve" smooth="yes"/>
			<point x="216.763" y="73"/>
			<point x="132" y="159.24"/>
		</contour>
	</outline>
	<anchor name="Anchor-0" x="327.333" y="805"/>
</glyph>
<glyph name="ntilde" format="2">
	<unicode hex="00F1"/>
	<advance width="606"/>
	<outline>
		<component base="n"/>
		<contour>
			<point x="183.667" y="634" type="line"/>
			<point x="209.305" y="657.138"/>
			<point x="222.217" y="663.667"/>
			<point x="247" y="663.667" type="curve" smooth="yes"/>
			<point x="259.952" y="663.667"/>
			<point x="272.508" y="660.611"/>
			<point x="291.667" y="653" type="curve" smooth="yes"/>
			<point x="326.217" y="638.384"/>
			<point x="341.395" y="634"/>
			<point x="355.333" y="634" type="curve" smooth="yes"/>
			<point x="388.704" y="634"/>
			<point x="425.829" y="654.41"/>
			<point x="447.333" y="685" type="curve"/>
			<point x="407.333" y="742.667" type="line"/>
			<point x="386.535" y="720.215"/>
			<point x="368.533" y="710.667"/>
			<point x="347" y="710.667" type="curve" smooth="yes"/>
			<point x="336.313" y="710.667"/>
			<point x="317.302" y="715.956"/>
			<point x="299.333" y="723.667" type="curve" smooth="yes"/>
			<point x="267.797" y="737.237"/>
			<point x="258.79" y="739.667"/>
			<point x="240" y="739.667" type="curve" smooth="yes"/>
			<point x="202.104" y="739.667"/>
			<point x="170.743" y="723.755"/>
			<point x="143.667" y="691.333" type="curve"/>
		</contour>
	</outline>
	<anchor name="Anchor-0" x="303.333" y="816.667"/>
</glyph>
<glyph name="ograve" format="2">
	<unicode hex="00F2"/>
	<advance width="652"/>
	<outline>
		<contour>
			<point x="37.333" y="274" type="curve" smooth="yes"/>
			<point x="37.333" y="111.696"/>
			<point x="164.636" y="-13"/>
			<point x="330.333" y="-13" type="curve" smooth="yes"/>
			<point x="491.474" y="-13"/>
			<point x="614.333" y="110.805"/>
			<point x="614.333" y="273.333" type="curve" smooth="yes"/>
			<point x="614.333" y="436.745"/>
			<point x="490.588" y="562.333"/>
			<point x="329.667" y="562.333" type="curve" smooth="yes"/>
			<point x="162.532" y="562.333"/>
			<point x="37.333" y="438.862"/>
		</contour>
		<contour>
			<point x="328.667" y="73" type="curve" smooth="yes"/>
			<point x="216.622" y="73"/>
			<point x="132" y="159.382"/>
			<point x="132" y="273.667" type="curve" smooth="yes"/>
			<point x="132" y="388.346"/>
			<point x="215.346" y="476.333"/>
			<point x="324" y="476.333" type="curve" smooth="yes"/>
			<point x="437.02" y="476.333"/>
			<point x="519.667" y="390.313"/>
			<point x="519.667" y="272.667" type="curve" smooth="yes"/>
			<point x="519.667" y="158.005"/>
			<point x="438.338" y="73"/>
		</contour>
		<contour>
			<point x="169.333" y="724.333" type="line"/>
			<point x="376" y="611" type="line"/>
			<point x="415.667" y="674.667" type="line"/>
			<point x="209.667" y="792.333" type="line"/>
		</contour>
	</outline>
	<anchor name="Anchor-0" x="325.333" y="816.667"/>
</glyph>
<glyph name="otilde" format="2">
	<unicode hex="00F5"/>
	<advance width="652"/>
	<outline>
		<component base="o"/>
		<contour>
			<point x="37.333" y="274" type="curve" smooth="yes"/>
			<point x="37.333" y="111.696"/>
			<point x="164.636" y="-13"/>
			<point x="330.333" y="-13" type="curve" smooth="yes"/>
			<point x="491.474" y="-13"/>
			<point x="614.333" y="110.805"/>
			<point x="614.333" y="273.333" type="curve" smooth="yes"/>
			<point x="614.333" y="436.745"/>
			<point x="490.588" y="562.333"/>
			<point x="329.667" y="562.333" type="curve" smooth="yes"/>
			<point x="162.532" y="562.333"/>
			<point x="37.333" y="438.862"/>
		</contour>
		<contour>
			<point x="328.667" y="73" type="curve" smooth="yes"/>
			<point x="216.622" y="73"/>
			<point x="132" y="159.382"/>
			<point x="132" y="273.667" type="curve" smooth="yes"/>
			<point x="132" y="388.346"/>
			<point x="215.346" y="476.333"/>
			<point x="324" y="476.333" type="curve" smooth="yes"/>
			<point x="437.02" y="476.333"/>
			<point x="519.667" y="390.313"/>
			<point x="519.667" y="272.667" type="curve" smooth="yes"/>
			<point x="519.667" y="158.005"/>
			<point x="438.338" y="73"/>
		</contour>
		<contour>
			<point x="219.333" y="634" type="line"/>
			<point x="243.2" y="656.521"/>
			<point x="257.268" y="663.667"/>
			<point x="282.667" y="663.667" type="curve" smooth="yes"/>
			<point x="295.619" y="663.667"/>
			<point x="308.175" y="660.611"/>
			<point x="327.333" y="653" type="curve" smooth="yes"/>
			<point x="361.883" y="638.384"/>
			<point x="377.061" y="634"/>
			<point x="391" y="634" type="curve" smooth="yes"/>
			<point x="424.371" y="634"/>
			<point x="461.496" y="654.41"/>
			<point x="483" y="685" type="curve"/>
			<point x="443" y="742.667" type="line"/>
			<point x="422.202" y="720.215"/>
			<point x="404.2" y="710.667"/>
			<point x="382.667" y="710.667" type="curve" smooth="yes"/>
			<point x="371.98" y="710.667"/>
			<point x="352.968" y="715.956"/>
			<point x="335" y="723.667" type="curve" smooth="yes"/>
			<point x="303.464" y="737.237"/>
			<point x="294.456" y="739.667"/>
			<point x="275.667" y="739.667" type="curve" smooth="yes"/>
			<point x="237.771" y="739.667"/>
			<point x="206.41" y="723.755"/>
			<point x="179.333" y="691.333" type="curve"/>
		</contour>
	</outline>
	<anchor name="Anchor-0" x="325.333" y="816.667"/>
</glyph>
<glyph name="divide" format="2">
	<unicode hex="00F7"/>
	<advance width="604"/>
	<outline>
		<contour>
			<point x="250" y="452" type="line"/>
			<point x="353" y="452" type="line"/>
			<point x="353" y="553.667" type="line"/>
			<point x="250" y="553.667" type="line"/>
		</contour>
		<contour>
			<point x="250" y="99" type="line"/>
			<point x="353" y="99" type="line"/>
			<point x="353" y="200.667" type="line"/>
			<point x="250" y="200.667" type="line"/>
		</contour>
		<contour>
			<point x="50" y="282" type="line"/>
			<point x="554" y="282" type="line"/>
			<point x="554" y="370.667" type="line"/>
			<point x="50" y="370.667" type="line"/>
		</contour>
	</outline>
</glyph>
<glyph name="oslash" format="2">
	<unicode hex="00F8"/>
	<advance width="651"/>
	<outline>
		<contour>
			<point x="67.667" y="-2.667" type="line"/>
			<point x="131.333" y="-48.333" type="line"/>
			<point x="184.667" y="23.667" type="line"/>
			<point x="236.108" y="-2.909"/>
			<point x="275.754" y="-13"/>
			<point x="327.333" y="-13" type="curve" smooth="yes"/>
			<point x="490.708" y="-13"/>
			<point x="613.333" y="112.374"/>
			<point x="613.333" y="279.667" type="curve" smooth="yes"/>
			<point x="613.333" y="361.614"/>
			<point x="584.602" y="428.084"/>
			<point x="525.667" y="482.667" type="curve"/>
			<point x="579.667" y="556.333" type="line"/>
			<point x="515.667" y="603.667" type="line"/>
			<point x="460.333" y="528" type="line"/>
			<point x="418.145" y="551.361"/>
			<point x="375.514" y="562.333"/>
			<point x="326.667" y="562.333" type="curve" smooth="yes"/>
			<point x="165.819" y="562.333"/>
			<point x="37.333" y="434.152"/>
			<point x="37.333" y="273.667" type="curve" smooth="yes"/>
			<point x="37.333" y="195.273"/>
			<point x="62.38" y="134.274"/>
			<point x="120.667" y="70" type="curve"/>
		</contour>
		<contour>
			<point x="173.667" y="142.333" type="line"/>
			<point x="143.928" y="186.267"/>
			<point x="132" y="222.976"/>
			<point x="132" y="270" type="curve" smooth="yes"/>
			<point x="132" y="386.028"/>
			<point x="217.361" y="476.333"/>
			<point x="327" y="476.333" type="curve" smooth="yes"/>
			<point x="357.233" y="476.333"/>
			<point x="383.561" y="470.606"/>
			<point x="409.667" y="458.667" type="curve"/>
		</contour>
		<contour>
			<point x="474" y="411.667" type="line"/>
			<point x="504.869" y="372.072"/>
			<point x="518.667" y="330.991"/>
			<point x="518.667" y="278.667" type="curve" smooth="yes"/>
			<point x="518.667" y="159.248"/>
			<point x="436.585" y="73"/>
			<point x="323" y="73" type="curve" smooth="yes"/>
			<point x="290.783" y="73"/>
			<point x="268.12" y="77.949"/>
			<point x="235" y="92.333" type="curve"/>
		</contour>
	</outline>
	<anchor name="Anchor-0" x="325.667" y="625.333"/>
</glyph>
<glyph name="ugrave" format="2">
	<unicode hex="00F9"/>
	<advance width="605"/>
	<outline>
		<component base="u"/>
		<contour>
			<point x="143.667" y="724.333" type="line"/>
			<point x="350.333" y="611" type="line"/>
			<point x="390" y="674.667" type="line"/>
			<point x="184" y="792.333" type="line"/>
		</contour>
	</outline>
	<anchor name="Anchor-0" x="302" y="816.667"/>
</glyph>
<glyph name="uacute" format="2">
	<unicode hex="00FA"/>
	<advance width="605"/>
	<outline>
		<component base="u"/>
		<contour>
			<point x="255.667" y="611" type="line"/>
			<point x="460" y="727" type="line"/>
			<point x="419.333" y="796.333" type="line"/>
			<point x="216" y="674.333" type="line"/>
		</contour>
	</outline>
	<anchor name="Anchor-0" x="302" y="816.667"/>
</glyph>
<glyph name="udieresis" format="2">
	<unicode hex="00FC"/>
	<advance width="605"/>
	<outline>
		<component base="u"/>
		<contour>
			<point x="171.667" y="625.333" type="line"/>
			<point x="265.333" y="625.333" type="line"/>
			<point x="265.333" y="753.667" type="line"/>
			<point x="171.667" y="753.667" type="line"/>
		</contour>
		<contour>
			<point x="339.667" y="625.333" type="line"/>
			<point x="433.333" y="625.333" type="line"/>
			<point x="433.333" y="753.667" type="line"/>
			<point x="339.667" y="753.667" type="line"/>
		</contour>
	</outline>
	<anchor name="Anchor-0" x="302" y="816.667"/>
</glyph>
<glyph name="thorn" format="2">
	<unicode hex="00FE"/>
	<advance width="675"/>
	<outline>
		<contour>
			<point x="60" y="-189.667" type="line"/>
			<point x="153.667" y="-189.667" type="line"/>
			<point x="153.667" y="82.333" type="line"/>
			<point x="199.773" y="19.941"/>
			<point x="268.607" y="-13"/>
			<point x="353" y="-13" type="curve" smooth="yes"/>
			<point x="515.46" y="-13"/>
			<point x="638" y="110.466"/>
			<point x="638" y="274.333" type="curve" smooth="yes"/>
			<point x="638" y="439.099"/>
			<point x="516.566" y="562.333"/>
			<point x="354.333" y="562.333" type="curve" smooth="yes"/>
			<point x="267.837" y="562.333"/>
			<point x="198.394" y="529.319"/>
			<point x="153.667" y="467" type="curve"/>
			<point x="153.667" y="739" type="line"/>
			<point x="60" y="739" type="line"/>
		</contour>
		<contour>
			<point x="346.333" y="73" type="curve" smooth="yes"/>
			<point x="233.593" y="73"/>
			<point x="147.667" y="160.07"/>
			<point x="147.667" y="274.333" type="curve" smooth="yes"/>
			<point x="147.667" y="387.95"/>
			<point x="233.284" y="476.333"/>
			<point x="343.333" y="476.333" type="curve" smooth="yes"/>
			<point x="459.206" y="476.333"/>
			<point x="543.333" y="390.794"/>
			<point x="543.333" y="273" type="curve" smooth="yes"/>
			<point x="543.333" y="159.318"/>
			<point x="458.318" y="73"/>
		</contour>
	</outline>
	<anchor name="Anchor-0" x="355.333" y="683.667"/>
</glyph>
<glyph name="ydieresis" format="2">
	<unicode hex="00FF"/>
	<advance width="547"/>
	<outline>
		<contour>
			<point x="122" y="-189.667" type="line"/>
			<point x="222.333" y="-189.667" type="line"/>
			<point x="539.667" y="549.333" type="line"/>
			<point x="436" y="549.333" type="line"/>
			<point x="268" y="139" type="line"/>
			<point x="111.667" y="549.333" type="line"/>
			<point x="7" y="549.333" type="line"/>
			<point x="216" y="29.333" type="line"/>
		</contour>
		<contour>
			<point x="141" y="625.333" type="line"/>
			<point x="234.667" y="625.333" type="line"/>
			<point x="234.667" y="753.667" type="line"/>
			<point x="141" y="753.667" type="line"/>
		</contour>
		<contour>
			<point x="309" y="625.333" type="line"/>
			<point x="402.667" y="625.333" type="line"/>
			<point x="402.667" y="753.667" type="line"/>
			<point x="309" y="753.667" type="line"/>
		</contour>
	</outline>
	<anchor name="Anchor-0" x="271.333" y="816.667"/>
</glyph>
<glyph name="dotlessi" format="2">
	<unicode hex="0131"/>
	<advance width="214"/>
	<outline>
		<contour>
			<point x="60" y="0" type="line"/>
			<point x="153.667" y="0" type="line"/>
			<point x="153.667" y="549.333" type="line"/>
			<point x="60" y="549.333" type="line"/>
		</contour>
	</outline>
	<anchor name="Anchor-0" x="106.667" y="625.333"/>
</glyph>
<glyph name="Ldot" format="2">
	<unicode hex="013F"/>
	<advance width="459"/>
	<outline>
		<contour>
			<point x="306" y="311.667" type="line"/>
			<point x="399.667" y="311.667" type="line"/>
			<point x="399.667" y="440" type="line"/>
			<point x="306" y="440" type="line"/>
		</contour>
		<contour>
			<point x="74.333" y="0" type="line"/>
			<point x="448.667" y="0" type="line"/>
			<point x="448.667" y="88.333" type="line"/>
			<point x="169.333" y="88.333" type="line"/>
			<point x="169.333" y="739" type="line"/>
			<point x="74.333" y="739" type="line"/>
		</contour>
	</outline>
</glyph>
<glyph name="ldot" format="2">
	<unicode hex="0140"/>
	<advance width="382"/>
	<outline>
		<contour>
			<point x="60" y="0" type="line"/>
			<point x="153.667" y="0" type="line"/>
			<point x="153.667" y="739" type="line"/>
			<point x="60" y="739" type="line"/>
		</contour>
		<contour>
			<point x="235.667" y="306" type="line"/>
			<point x="329.333" y="306" type="line"/>
			<point x="329.333" y="434.333" type="line"/>
			<point x="235.667" y="434.333" type="line"/>
		</contour>
	</outline>
</glyph>
<glyph name="Lslash" format="2">
	<unicode hex="0141"/>
	<advance width="506"/>
	<outline>
		<contour>
			<point x="119" y="0" type="line"/>
			<point x="493.333" y="0" type="line"/>
			<point x="493.333" y="87.333" type="line"/>
			<point x="214" y="87.333" type="line"/>
			<point x="214" y="352" type="line"/>
			<point x="368" y="477" type="line"/>
			<point x="368" y="574" type="line"/>
			<point x="214" y="448.667" type="line"/>
			<point x="214" y="739" type="line"/>
			<point x="119" y="739" type="line"/>
			<point x="119" y="390.333" type="line"/>
			<point x="23" y="310.667" type="line"/>
			<point x="23" y="214" type="line"/>
			<point x="119" y="293" type="line"/>
		</contour>
	</outline>
	<anchor name="Anchor-0" x="166.333" y="805"/>
</glyph>
<glyph name="lslash" format="2">
	<unicode hex="0142"/>
	<advance width="314"/>
	<outline>
		<contour>
			<point x="112.333" y="0" type="line"/>
			<point x="206" y="0" type="line"/>
			<point x="206" y="380.333" type="line"/>
			<point x="287.667" y="437.333" type="line"/>
			<point x="287.667" y="519" type="line"/>
			<point x="206" y="461.333" type="line"/>
			<point x="206" y="739" type="line"/>
			<point x="112.333" y="739" type="line"/>
			<point x="112.333" y="417.667" type="line"/>
			<point x="33.333" y="361.333" type="line"/>
			<point x="33.333" y="280.333" type="line"/>
			<point x="112.333" y="336.333" type="line"/>
		</contour>
	</outline>
	<anchor name="Anchor-0" x="158.333" y="805"/>
</glyph>
<glyph name="OE" format="2">
	<unicode hex="0152"/>
	<advance width="1149"/>
	<outline>
		<contour>
			<point x="435.333" y="-13" type="curve" smooth="yes"/>
			<point x="556.345" y="-13"/>
			<point x="652.686" y="35.995"/>
			<point x="711.667" y="127.667" type="curve"/>
			<point x="711.667" y="0" type="line"/>
			<point x="1092.67" y="0" type="line"/>
			<point x="1092.67" y="88.333" type="line"/>
			<point x="807.333" y="88.333" type="line"/>
			<point x="807.333" y="327.667" type="line"/>
			<point x="1081.67" y="327.667" type="line"/>
			<point x="1081.67" y="416" type="line"/>
			<point x="807.333" y="416" type="line"/>
			<point x="807.333" y="650.667" type="line"/>
			<point x="1092.67" y="650.667" type="line"/>
			<point x="1092.67" y="739" type="line"/>
			<point x="711.667" y="739" type="line"/>
			<point x="711.667" y="613.667" type="line"/>
			<point x="651.799" y="703.478"/>
			<point x="551.605" y="752"/>
			<point x="425" y="752" type="curve" smooth="yes"/>
			<point x="205.358" y="752"/>
			<point x="41.333" y="588.692"/>
			<point x="41.333" y="370" type="curve" smooth="yes"/>
			<point x="41.333" y="150.169"/>
			<point x="209.167" y="-13"/>
		</contour>
		<contour>
			<point x="430" y="76.333" type="curve" smooth="yes"/>
			<point x="263.933" y="76.333"/>
			<point x="137.333" y="203.073"/>
			<point x="137.333" y="369.333" type="curve" smooth="yes"/>
			<point x="137.333" y="536.254"/>
			<point x="259.257" y="662.667"/>
			<point x="420.333" y="662.667" type="curve" smooth="yes"/>
			<point x="593.128" y="662.667"/>
			<point x="714" y="542.204"/>
			<point x="714" y="370" type="curve" smooth="yes"/>
			<point x="714" y="200.034"/>
			<point x="594.369" y="76.333"/>
		</contour>
	</outline>
	<anchor name="Anchor-0" x="653" y="805"/>
</glyph>
<glyph name="oe" format="2">
	<unicode hex="0153"/>
	<advance width="1116"/>
	<outline>
		<contour>
			<point x="970" y="173.667" type="line"/>
			<point x="934.519" y="107.463"/>
			<point x="877.064" y="73"/>
			<point x="804.333" y="73" type="curve" smooth="yes"/>
			<point x="703.305" y="73"/>
			<point x="621.163" y="142.874"/>
			<point x="609.333" y="238" type="curve"/>
			<point x="1077.67" y="238" type="line"/>
			<point x="1079.59" y="257.845"/>
			<point x="1080.67" y="271.867"/>
			<point x="1080.67" y="285.333" type="curve" smooth="yes"/>
			<point x="1080.67" y="443.945"/>
			<point x="959.557" y="562.333"/>
			<point x="797.333" y="562.333" type="curve" smooth="yes"/>
			<point x="695.534" y="562.333"/>
			<point x="620.443" y="519.516"/>
			<point x="561" y="428" type="curve"/>
			<point x="499.109" y="520.493"/>
			<point x="424.942" y="562.333"/>
			<point x="322" y="562.333" type="curve" smooth="yes"/>
			<point x="161.755" y="562.333"/>
			<point x="37.333" y="436.752"/>
			<point x="37.333" y="275" type="curve" smooth="yes"/>
			<point x="37.333" y="111.426"/>
			<point x="162.909" y="-13"/>
			<point x="328" y="-13" type="curve" smooth="yes"/>
			<point x="430.834" y="-13"/>
			<point x="503.093" y="29.853"/>
			<point x="561" y="125.333" type="curve"/>
			<point x="608.543" y="37.901"/>
			<point x="699.045" y="-13"/>
			<point x="807.333" y="-13" type="curve" smooth="yes"/>
			<point x="927.621" y="-13"/>
			<point x="1032.56" y="62.61"/>
			<point x="1066.67" y="173.667" type="curve"/>
		</contour>
		<contour>
			<point x="329.667" y="73" type="curve" smooth="yes"/>
			<point x="217.798" y="73"/>
			<point x="132" y="160.533"/>
			<point x="132" y="274.667" type="curve" smooth="yes"/>
			<point x="132" y="388.797"/>
			<point x="214.475" y="476.333"/>
			<point x="322" y="476.333" type="curve" smooth="yes"/>
			<point x="435.42" y="476.333"/>
			<point x="518.667" y="391.253"/>
			<point x="518.667" y="275.333" type="curve" smooth="yes"/>
			<point x="518.667" y="160.202"/>
			<point x="437.211" y="73"/>
		</contour>
		<contour>
			<point x="607.333" y="321.667" type="line"/>
			<point x="633.705" y="419.482"/>
			<point x="702.807" y="476.333"/>
			<point x="796" y="476.333" type="curve" smooth="yes"/>
			<point x="894.911" y="476.333"/>
			<point x="968.311" y="416.75"/>
			<point x="987.333" y="321.667" type="curve"/>
		</contour>
	</outline>
	<anchor name="Anchor-0" x="559.667" y="625.333"/>
</glyph>
<glyph name="Scaron" format="2">
	<unicode hex="0160"/>
	<advance width="507"/>
	<outline>
		<component base="S"/>
		<contour>
			<point x="75.333" y="935" type="line"/>
			<point x="219.667" y="805" type="line"/>
			<point x="299.333" y="805" type="line"/>
			<point x="444.333" y="935" type="line"/>
			<point x="335.333" y="935" type="line"/>
			<point x="259" y="864.333" type="line"/>
			<point x="183.667" y="935" type="line"/>
		</contour>
	</outline>
	<anchor name="Anchor-0" x="259.667" y="996.333"/>
</glyph>
<glyph name="scaron" format="2">
	<unicode hex="0161"/>
	<advance width="405"/>
	<outline>
		<component base="s"/>
		<contour>
			<point x="18" y="755.333" type="line"/>
			<point x="162.333" y="625.333" type="line"/>
			<point x="242" y="625.333" type="line"/>
			<point x="387" y="755.333" type="line"/>
			<point x="278" y="755.333" type="line"/>
			<point x="201.667" y="684.667" type="line"/>
			<point x="126.333" y="755.333" type="line"/>
		</contour>
	</outline>
	<anchor name="Anchor-0" x="202.667" y="816.667"/>
</glyph>
<glyph name="Ydieresis" format="2">
	<unicode hex="0178"/>
	<advance width="607"/>
	<outline>
		<contour>
			<point x="255.333" y="0" type="line"/>
			<point x="350.333" y="0" type="line"/>
			<point x="350.333" y="255.667" type="line"/>
			<point x="603.333" y="739" type="line"/>
			<point x="500" y="739" type="line"/>
			<point x="302.333" y="349.667" type="line"/>
			<point x="107.667" y="739" type="line"/>
			<point x="3.667" y="739" type="line"/>
			<point x="255.333" y="255.667" type="line"/>
		</contour>
		<contour>
			<point x="173" y="805" type="line"/>
			<point x="266.667" y="805" type="line"/>
			<point x="266.667" y="933.333" type="line"/>
			<point x="173" y="933.333" type="line"/>
		</contour>
		<contour>
			<point x="341" y="805" type="line"/>
			<point x="434.667" y="805" type="line"/>
			<point x="434.667" y="933.333" type="line"/>
			<point x="341" y="933.333" type="line"/>
		</contour>
	</outline>
	<anchor name="Anchor-0" x="303.333" y="996.333"/>
</glyph>
<glyph name="Zcaron" format="2">
	<unicode hex="017D"/>
	<advance width="494"/>
	<outline>
		<contour>
			<point x="21.333" y="0" type="line"/>
			<point x="480" y="0" type="line"/>
			<point x="480" y="88.333" type="line"/>
			<point x="132.333" y="88.333" type="line"/>
			<point x="466.333" y="653.333" type="line"/>
			<point x="466.333" y="739" type="line"/>
			<point x="33.667" y="739" type="line"/>
			<point x="33.667" y="650.667" type="line"/>
			<point x="356.667" y="650.667" type="line"/>
			<point x="21.333" y="83.333" type="line"/>
		</contour>
		<contour>
			<point x="68.667" y="935" type="line"/>
			<point x="213" y="805" type="line"/>
			<point x="292.667" y="805" type="line"/>
			<point x="437.667" y="935" type="line"/>
			<point x="328.667" y="935" type="line"/>
			<point x="252.333" y="864.333" type="line"/>
			<point x="177" y="935" type="line"/>
		</contour>
	</outline>
	<anchor name="Anchor-0" x="252.333" y="996.333"/>
</glyph>
<glyph name="zcaron" format="2">
	<unicode hex="017E"/>
	<advance width="444"/>
	<outline>
		<contour>
			<point x="16.667" y="0" type="line"/>
			<point x="427.333" y="0" type="line"/>
			<point x="427.333" y="84.333" type="line"/>
			<point x="127.667" y="84.333" type="line"/>
			<point x="408.333" y="467.667" type="line"/>
			<point x="408.333" y="549.333" type="line"/>
			<point x="32.667" y="549.333" type="line"/>
			<point x="32.667" y="465" type="line"/>
			<point x="299.333" y="465" type="line"/>
			<point x="16.667" y="84.333" type="line"/>
		</contour>
		<contour>
			<point x="39.333" y="755.333" type="line"/>
			<point x="183.667" y="625.333" type="line"/>
			<point x="263.333" y="625.333" type="line"/>
			<point x="408.333" y="755.333" type="line"/>
			<point x="299.333" y="755.333" type="line"/>
			<point x="223" y="684.667" type="line"/>
			<point x="147.667" y="755.333" type="line"/>
		</contour>
	</outline>
	<anchor name="Anchor-0" x="223.333" y="816.667"/>
</glyph>
<glyph name="florin" format="2">
	<unicode hex="0192"/>
	<advance width="556"/>
	<outline>
		<contour>
			<point x="13" y="-144.667" type="line"/>
			<point x="32.875" y="-149.891"/>
			<point x="47.667" y="-151.667"/>
			<point x="71.333" y="-151.667" type="curve" smooth="yes"/>
			<point x="207.246" y="-151.667"/>
			<point x="268.333" y="-86.588"/>
			<point x="300.667" y="92.667" type="curve" smooth="yes"/>
			<point x="374.667" y="501.333" type="line"/>
			<point x="480.333" y="501.333" type="line"/>
			<point x="494.667" y="584.333" type="line"/>
			<point x="389.333" y="584.333" type="line"/>
			<point x="392.907" y="604.407" type="line" smooth="yes"/>
			<point x="408.66" y="692.494"/>
			<point x="444.778" y="735.667"/>
			<point x="503" y="735.667" type="curve" smooth="yes"/>
			<point x="508.758" y="735.667"/>
			<point x="516.59" y="734.805"/>
			<point x="521.333" y="733.667" type="curve"/>
			<point x="535.333" y="816.667" type="line"/>
			<point x="521.527" y="818.813"/>
			<point x="515.056" y="819.667"/>
			<point x="506.333" y="819.667" type="curve" smooth="yes"/>
			<point x="401.36" y="819.667"/>
			<point x="329.052" y="743.489"/>
			<point x="304.667" y="608.333" type="curve" smooth="yes"/>
			<point x="300.333" y="584.333" type="line"/>
			<point x="195" y="584.333" type="line"/>
			<point x="180" y="501.333" type="line"/>
			<point x="286.667" y="501.333" type="line"/>
			<point x="213.333" y="104" type="line" smooth="yes"/>
			<point x="189.105" y="-27.292"/>
			<point x="155.977" y="-67.333"/>
			<point x="70.667" y="-67.333" type="curve" smooth="yes"/>
			<point x="57.375" y="-67.333"/>
			<point x="45.921" y="-66.278"/>
			<point x="27.667" y="-63.333" type="curve"/>
		</contour>
	</outline>
	<anchor name="Anchor-0" x="417.333" y="875.333"/>
</glyph>
<glyph name="circumflex" format="2">
	<unicode hex="02C6"/>
	<advance width="510"/>
	<outline>
		<contour>
			<point x="70.667" y="625.333" type="line"/>
			<point x="180.333" y="625.333" type="line"/>
			<point x="257" y="696" type="line"/>
			<point x="332" y="625.333" type="line"/>
			<point x="439.667" y="625.333" type="line"/>
			<point x="296" y="755.333" type="line"/>
			<point x="216.333" y="755.333" type="line"/>
		</contour>
	</outline>
</glyph>
<glyph name="caron" format="2">
	<unicode hex="02C7"/>
	<advance width="510"/>
	<outline>
		<contour>
			<point x="70.667" y="755.333" type="line"/>
			<point x="215" y="625.333" type="line"/>
			<point x="294.667" y="625.333" type="line"/>
			<point x="439.667" y="755.333" type="line"/>
			<point x="330.667" y="755.333" type="line"/>
			<point x="254.333" y="684.667" type="line"/>
			<point x="179" y="755.333" type="line"/>
		</contour>
	</outline>
</glyph>
<glyph name="breve" format="2">
	<unicode hex="02D8"/>
	<advance width="455"/>
	<outline>
		<contour>
			<point x="70.667" y="751.667" type="line"/>
			<point x="82.485" y="666.876"/>
			<point x="133.874" y="625.333"/>
			<point x="227.333" y="625.333" type="curve" smooth="yes"/>
			<point x="318.525" y="625.333"/>
			<point x="372.274" y="669.034"/>
			<point x="383.333" y="751.667" type="curve"/>
			<point x="306.667" y="751.667" type="line"/>
			<point x="300.608" y="714.88"/>
			<point x="273.697" y="696"/>
			<point x="227.333" y="696" type="curve" smooth="yes"/>
			<point x="181.388" y="696"/>
			<point x="154.409" y="714.478"/>
			<point x="146" y="751.667" type="curve"/>
		</contour>
	</outline>
</glyph>
<glyph name="dotaccent" format="2">
	<unicode hex="02D9"/>
	<advance width="235"/>
	<outline>
		<contour>
			<point x="70.667" y="625.333" type="line"/>
			<point x="164.333" y="625.333" type="line"/>
			<point x="164.333" y="753.667" type="line"/>
			<point x="70.667" y="753.667" type="line"/>
		</contour>
	</outline>
</glyph>
<glyph name="ring" format="2">
	<unicode hex="02DA"/>
	<advance width="333"/>
	<outline>
		<contour>
			<point x="105" y="670.667" type="curve" smooth="yes"/>
			<point x="124" y="637.185"/>
			<point x="166.817" y="625.333"/>
			<point x="200.667" y="644.333" type="curve" smooth="yes"/>
			<point x="234.667" y="663.092"/>
			<point x="246.576" y="706"/>
			<point x="228" y="740" type="curve" smooth="yes"/>
			<point x="208.741" y="773.516"/>
			<point x="165.819" y="786.074"/>
			<point x="132.667" y="767" type="curve" smooth="yes"/>
			<point x="98" y="748"/>
			<point x="86" y="705.333"/>
		</contour>
		<contour>
			<point x="120.333" y="705" type="curve" smooth="yes"/>
			<point x="120.333" y="730.617"/>
			<point x="140.631" y="751.667"/>
			<point x="165.333" y="751.667" type="curve" smooth="yes"/>
			<point x="191.593" y="751.667"/>
			<point x="212.333" y="731.072"/>
			<point x="212.333" y="705" type="curve" smooth="yes"/>
			<point x="212.333" y="680.183"/>
			<point x="191.513" y="659.667"/>
			<point x="166.333" y="659.667" type="curve" smooth="yes"/>
			<point x="140.813" y="659.667"/>
			<point x="120.333" y="679.85"/>
		</contour>
	</outline>
</glyph>
<glyph name="ogonek" format="2">
	<unicode hex="02DB"/>
	<advance width="305"/>
	<outline>
		<contour>
			<point x="234" y="-128.333" type="line"/>
			<point x="218.231" y="-135.422"/>
			<point x="205.467" y="-138.333"/>
			<point x="190.333" y="-138.333" type="curve" smooth="yes"/>
			<point x="157.933" y="-138.333"/>
			<point x="134.333" y="-118.947"/>
			<point x="134.333" y="-92.333" type="curve" smooth="yes"/>
			<point x="134.333" y="-64.552"/>
			<point x="158.54" y="-32.521"/>
			<point x="204.667" y="0" type="curve"/>
			<point x="147.333" y="0" type="line"/>
			<point x="94.967" y="-29.008"/>
			<point x="70.667" y="-61.355"/>
			<point x="70.667" y="-102.333" type="curve" smooth="yes"/>
			<point x="70.667" y="-156.911"/>
			<point x="115.282" y="-195.333"/>
			<point x="178.667" y="-195.333" type="curve" smooth="yes"/>
			<point x="196.135" y="-195.333"/>
			<point x="212.007" y="-192.252"/>
			<point x="234" y="-184.667" type="curve"/>
		</contour>
	</outline>
</glyph>
<glyph name="tilde" format="2">
	<unicode hex="02DC"/>
	<advance width="446"/>
	<outline>
		<contour>
			<point x="111.333" y="634" type="line"/>
			<point x="134.652" y="656.392"/>
			<point x="148.962" y="663.667"/>
			<point x="174.667" y="663.667" type="curve" smooth="yes"/>
			<point x="187.619" y="663.667"/>
			<point x="200.175" y="660.611"/>
			<point x="219.333" y="653" type="curve" smooth="yes"/>
			<point x="253.883" y="638.384"/>
			<point x="269.061" y="634"/>
			<point x="283" y="634" type="curve" smooth="yes"/>
			<point x="316.371" y="634"/>
			<point x="353.496" y="654.41"/>
			<point x="375" y="685" type="curve"/>
			<point x="335" y="742.667" type="line"/>
			<point x="314.202" y="720.215"/>
			<point x="296.2" y="710.667"/>
			<point x="274.667" y="710.667" type="curve" smooth="yes"/>
			<point x="263.98" y="710.667"/>
			<point x="244.968" y="715.956"/>
			<point x="227" y="723.667" type="curve" smooth="yes"/>
			<point x="195.464" y="737.237"/>
			<point x="186.456" y="739.667"/>
			<point x="167.667" y="739.667" type="curve" smooth="yes"/>
			<point x="129.771" y="739.667"/>
			<point x="98.41" y="723.755"/>
			<point x="71.333" y="691.333" type="curve"/>
		</contour>
	</outline>
</glyph>
<glyph name="hungarumlaut" format="2">
	<unicode hex="02DD"/>
	<advance width="596"/>
	<outline>
		<contour>
			<point x="110.667" y="611" type="line"/>
			<point x="300.667" y="735.667" type="line"/>
			<point x="254.667" y="795" type="line"/>
			<point x="70.667" y="665.333" type="line"/>
		</contour>
		<contour>
			<point x="336" y="611" type="line"/>
			<point x="525.667" y="735.667" type="line"/>
			<point x="480" y="795" type="line"/>
			<point x="295.667" y="665.333" type="line"/>
		</contour>
	</outline>
</glyph>
<glyph name="gravecomb" format="2">
	<unicode hex="0300"/>
	<outline>
		<contour>
			<point x="-482.333" y="724.333" type="line"/>
			<point x="-275.667" y="611" type="line"/>
			<point x="-236" y="674.667" type="line"/>
			<point x="-442" y="792.333" type="line"/>
		</contour>
	</outline>
	<anchor name="Anchor-1" x="-326.333" y="816.667"/>
	<anchor name="_Anchor-1" x="-326.333" y="625.333"/>
	<anchor name="_Anchor-0" x="-326.333" y="625.333"/>
</glyph>
<glyph name="acutecomb" format="2">
	<unicode hex="0301"/>
	<outline>
		<contour>
			<point x="-375" y="611" type="line"/>
			<point x="-170.667" y="727" type="line"/>
			<point x="-211.333" y="796.333" type="line"/>
			<point x="-414.667" y="674.333" type="line"/>
		</contour>
	</outline>
	<anchor name="Anchor-1" x="-326.333" y="816.667"/>
	<anchor name="_Anchor-1" x="-326.333" y="625.333"/>
	<anchor name="_Anchor-0" x="-326.333" y="625.333"/>
</glyph>
<glyph name="circumflexcomb" format="2">
	<unicode hex="0302"/>
	<outline>
		<contour>
			<point x="-510.667" y="625.333" type="line"/>
			<point x="-401" y="625.333" type="line"/>
			<point x="-324.333" y="696" type="line"/>
			<point x="-249.333" y="625.333" type="line"/>
			<point x="-141.667" y="625.333" type="line"/>
			<point x="-285.333" y="755.333" type="line"/>
			<point x="-365" y="755.333" type="line"/>
		</contour>
	</outline>
	<anchor name="Anchor-1" x="-326.333" y="816.667"/>
	<anchor name="_Anchor-1" x="-326.333" y="625.333"/>
	<anchor name="_Anchor-0" x="-326.333" y="625.333"/>
</glyph>
